<?xml version="1.0" encoding="utf-8"?>
<!-- Generator: Adobe Illustrator 16.0.4, SVG Export Plug-In . SVG Version: 6.00 Build 0)  -->
<!DOCTYPE svg PUBLIC "-//W3C//DTD SVG 1.1//EN" "http://www.w3.org/Graphics/SVG/1.1/DTD/svg11.dtd">
<svg version="1.1" id="Layer_1" xmlns="http://www.w3.org/2000/svg" xmlns:xlink="http://www.w3.org/1999/xlink" x="0px" y="0px"
	 width="136.208px" height="35px" viewBox="0 0 136.208 35" enable-background="new 0 0 136.208 35" xml:space="preserve">
<g>
	<path fill="#C72C27" d="M18.97-360.503l-5.756,0.727c-0.083,4.176-1.497,8.635-4.238,13.378c0-3.943-0.317-8.191-0.949-12.745
		l-3.731,0.442l3.036-5.281c-0.4-2.593-1.011-4.924-1.833-6.989l12.871-2.879v9.709c-1.813-2.002-3.795-3.247-5.945-3.732
		l0.442,3.131C15.376-364.002,17.41-362.591,18.97-360.503z"/>
	<path fill="#C72C27" d="M27.035-371.762c-2.509,0.548-4.406,1.971-5.693,4.27l4.966,1.961c-2.024,2.487-3.036,5.25-3.036,8.286
		c0,1.581,0.506,3.395,1.517,5.439h-5.628v-16.541l1.929,0.759l-2.372-6.768C21.69-374.355,24.463-373.491,27.035-371.762z"/>
	<path fill="#C72C27" d="M38.832-363.381c0,3.015-0.453,5.661-1.36,7.937c-0.8,2.046-2.213,4.354-4.237,6.928l0.885-15.118
		l-0.443-0.443c-1.58,2.025-2.372,4.366-2.372,7.022c0,1.433,0.516,3.184,1.549,5.25h-5.787v-15.877l5.029,1.582l3.194-1.96
		l3.542,2.593V-363.381z"/>
	<path fill="#C72C27" d="M47.75-371.762c-2.51,0.548-4.406,1.971-5.693,4.27l4.966,1.961c-2.024,2.487-3.036,5.25-3.036,8.286
		c0,1.581,0.506,3.395,1.518,5.439h-5.629v-16.541l1.929,0.759l-2.372-6.768C42.405-374.355,45.177-373.491,47.75-371.762z"/>
	<path fill="#C72C27" d="M58.028-357.973l-1.581,4.903l-7.021,1.896l-2.435-9.519c0.906,1.308,1.675,2.266,2.309,2.877
		c1.032,0.948,2.118,1.477,3.257,1.582c-0.907-2.362-2.636-4.059-5.188-5.092l1.645-4.744l8.192-2.15l0.695,8.666
		c-1.602-2.403-3.205-3.701-4.807-3.89c0.126,1.244,0.695,2.372,1.708,3.383C55.688-359.133,56.763-358.437,58.028-357.973z"/>
	<path fill="#C72C27" d="M71.025-363.35c0,2.995-0.453,5.63-1.36,7.906c-0.82,2.046-2.234,4.354-4.237,6.928l0.885-15.118
		l-0.443-0.443c-1.58,1.982-2.372,4.228-2.372,6.737c0,1.75,0.528,3.594,1.582,5.535h-5.82v-18.787l5.535-3.667v7.874l2.688-1.644
		l3.541,2.562V-363.35z"/>
	<path fill="#C72C27" d="M95.409-373.945v7.655c0,7.78-1.929,13.716-5.787,17.806v-12.935c-1.202,0.083-2.203,0.496-3.005,1.233
		c-0.802,0.739-1.202,1.688-1.202,2.847c0,1.602,0.633,3.448,1.898,5.535H80.83v-18.787l6.136-3.604v8.854l2.435,0.601v-7.685
		L95.409-373.945z"/>
	<path fill="#C72C27" d="M104.233-371.762c-2.509,0.548-4.406,1.971-5.693,4.27l4.966,1.961c-2.024,2.487-3.036,5.25-3.036,8.286
		c0,1.581,0.506,3.395,1.517,5.439h-5.628v-16.541l1.929,0.759l-2.373-6.768C98.889-374.355,101.661-373.491,104.233-371.762z"/>
	<path fill="#C72C27" d="M121.88-363.373c0,3.083-0.442,5.743-1.328,7.982c-0.802,1.985-2.225,4.276-4.27,6.875l0.885-15.117
		l-0.506-0.507l-0.601,0.506c0,3.1-0.443,5.788-1.329,8.064c-0.781,2.067-2.204,4.417-4.27,7.054l0.886-15.118l-0.443-0.443
		c-1.582,1.941-2.372,4.27-2.372,6.99c0,1.604,0.526,3.364,1.582,5.282h-5.819v-15.877l5.028,1.582l3.194-1.96l2.689,1.897
		l3.131-1.897l3.542,2.597V-363.373z"/>
	<path fill="#C72C27" d="M131.179-373.186c0,5.418-1.392,10.332-4.174,14.738l2.561,5.566c-0.443,0.443-1.192,0.664-2.246,0.664
		c-1.454,0-2.952,0.475-4.49,1.423c0.695-3.078,1.917-5.502,3.667-7.273c-0.063-6.115-1.149-11.175-3.257-15.181
		c1.308-0.38,2.614-0.569,3.921-0.569C128.618-373.817,129.956-373.606,131.179-373.186z"/>
	<path fill="#C72C27" d="M139.561-373.186c0,5.418-1.392,10.332-4.175,14.738l2.561,5.566c-0.443,0.443-1.192,0.664-2.246,0.664
		c-1.454,0-2.952,0.475-4.49,1.423c0.695-3.078,1.917-5.502,3.667-7.273c-0.063-6.115-1.149-11.175-3.257-15.181
		c1.308-0.38,2.614-0.569,3.921-0.569C136.999-373.817,138.337-373.606,139.561-373.186z"/>
	<path fill="#C72C27" d="M18.147-321.951l-1.929,6.516l-8.697,2.53l-2.815-12.114c2.361,3.626,4.744,5.557,7.148,5.789
		c-0.591-1.666-1.482-3.169-2.673-4.507c-1.191-1.339-2.578-2.356-4.159-3.052l2.024-6.325l10.12-2.847l0.823,11.417
		c-1.876-3.436-3.984-5.261-6.325-5.472c0.148,1.687,0.865,3.311,2.15,4.871C15.038-323.69,16.482-322.625,18.147-321.951z"/>
	<path fill="#C72C27" d="M30.609-313.38l-4.998-1.549l-3.195,1.898l-3.574-2.53v-2.152c0-2.994,0.454-5.629,1.36-7.906
		c0.822-2.088,2.236-4.375,4.238-6.863l-0.885,15.055l0.475,0.443c1.56-1.982,2.339-4.323,2.339-7.021
		c0-1.434-0.516-3.184-1.55-5.25h5.789V-313.38z"/>
	<path fill="#C72C27" d="M43.986-326.569c0,3.079-0.528,5.656-1.582,7.733c-1.054,2.077-2.826,4.001-5.313,5.771l-5.883-2.372
		c0.76-2.615,1.139-5.893,1.139-9.836c0-0.822-0.022-2.051-0.063-3.684c-0.042-1.634-0.063-2.832-0.063-3.59l5.502-3.669v6.294
		L43.986-326.569z M38.926-321.73c0-1.434-0.528-2.709-1.582-3.826c-0.928,1.454-1.391,3.088-1.391,4.902
		c0,1.35,0.336,2.625,1.011,3.826C38.271-318.029,38.926-319.663,38.926-321.73z"/>
	<path fill="#C72C27" d="M67.419-332.609c-3.395,3.416-5.956,7.896-7.685,13.442c0.823-0.168,1.803-0.548,2.942-1.139
		c0.928-0.526,1.866-1.043,2.814-1.549l-0.443,8.951c-2.235-1.076-4.596-1.613-7.084-1.613c-2.044,0-4.512,0.4-7.401,1.201
		l9.015-14.8c-0.57-1.054-1.551-1.582-2.942-1.582c-0.802,0-1.612,0.307-2.435,0.918c-0.402,0.316-1.044,0.938-1.929,1.866
		l2.181-8.95L67.419-332.609z"/>
	<path fill="#C72C27" d="M78.362-321.413l-6.008,2.467c0.547,1.16,1.507,1.74,2.877,1.74c0.674,0,1.308-0.201,1.897-0.601
		l0.601,0.727l-4.047,4.112l-7.527-3.828c1.011-1.54,1.517-3.163,1.517-4.871c0-1.369-0.473-2.824-1.423-4.364l7.781-4.111
		c1.56,1.118,2.673,2.362,3.337,3.732S78.362-323.375,78.362-321.413z M73.587-322.583c-0.063-1.265-0.601-2.203-1.613-2.816
		c-0.127,0.908-0.191,1.74-0.191,2.5c0,0.717,0.033,1.403,0.096,2.055L73.587-322.583z"/>
	<path fill="#C72C27" d="M87.217-323.626l-2.404-1.33c-0.948,1.751-1.423,3.585-1.423,5.504c0,1.75,0.518,3.616,1.551,5.598h-5.788
		v-15.971l3.448,1.582l4.617-2.816V-323.626z"/>
	<path fill="#C72C27" d="M99.677-326.822c0,3.186-0.506,5.819-1.517,7.907c-1.055,2.172-2.847,4.164-5.377,5.977
		c-0.781-0.357-1.866-0.98-3.258-1.866c-0.485-0.421-0.917-1.349-1.296-2.783c-0.337-1.244-0.505-2.298-0.505-3.163
		c0-4.006,1.486-7.242,4.459-9.709L99.677-326.822z M94.617-321.793c0-1.307-0.516-2.53-1.549-3.669
		c-0.948,1.645-1.423,3.248-1.423,4.808c0,1.56,0.337,2.877,1.011,3.953C93.963-317.882,94.617-319.58,94.617-321.793z"/>
	<path fill="#C72C27" d="M18.147-283.999l-1.929,6.516l-8.697,2.53l-2.815-12.113c2.361,3.626,4.744,5.557,7.148,5.788
		c-0.591-1.665-1.482-3.168-2.673-4.506c-1.191-1.34-2.578-2.356-4.159-3.053l2.024-6.325l10.12-2.847l0.823,11.417
		c-1.876-3.436-3.984-5.261-6.325-5.472c0.148,1.688,0.865,3.312,2.15,4.871C15.038-285.737,16.482-284.673,18.147-283.999z"/>
	<path fill="#C72C27" d="M31.051-289.375l-4.333,7.78c-0.042-2.889-0.696-4.881-1.961-5.977c-0.443,0.907-0.664,1.96-0.664,3.163
		c0,3.5,0.969,5.249,2.91,5.249c0.991,0,1.75-0.189,2.276-0.569l0.601,0.727l-4.047,4.111l-7.496-3.827
		c0.991-1.58,1.486-3.214,1.486-4.902c0-1.349-0.453-2.761-1.36-4.237l4.682-4.491L31.051-289.375z"/>
	<path fill="#C72C27" d="M42.847-288.869c0,3.185-0.506,5.819-1.518,7.906c-1.055,2.172-2.846,4.165-5.376,5.978
		c-0.781-0.358-1.866-0.98-3.259-1.866c-0.485-0.421-0.916-1.349-1.296-2.782c-0.337-1.245-0.506-2.298-0.506-3.163
		c0-4.006,1.487-7.243,4.459-9.71L42.847-288.869z M37.787-283.84c0-1.308-0.516-2.53-1.549-3.669
		c-0.948,1.644-1.423,3.248-1.423,4.807c0,1.56,0.337,2.877,1.012,3.954C37.133-279.93,37.787-281.627,37.787-283.84z"/>
	<path fill="#C72C27" d="M51.323-285.674l-2.403-1.329c-0.949,1.752-1.423,3.585-1.423,5.504c0,1.75,0.518,3.616,1.55,5.598h-5.789
		v-15.971l3.448,1.581l4.617-2.815V-285.674z"/>
	<path fill="#C72C27" d="M63.974-289.122c0,3.121-0.464,5.693-1.393,7.716c-1.012,2.215-2.709,4.186-5.091,5.914v4.333l-5.346,2.088
		v-23.594L63.974-289.122z M58.914-283.903c0-1.371-0.528-2.636-1.582-3.795c-0.928,1.371-1.391,3.058-1.391,5.06
		c0,1.391,0.335,2.625,1.012,3.7C58.26-280.118,58.914-281.773,58.914-283.903z"/>
	<path fill="#C72C27" d="M73.082-295.858c-2.509,0.548-4.406,1.971-5.693,4.27l4.966,1.961c-2.024,2.487-3.036,5.249-3.036,8.286
		c0,1.58,0.505,3.395,1.518,5.44h-5.629v-16.542l1.929,0.759l-2.372-6.767C67.738-298.451,70.51-297.586,73.082-295.858z"/>
	<path fill="#C72C27" d="M84.721-288.869c0,3.185-0.506,5.819-1.517,7.906c-1.056,2.172-2.847,4.165-5.377,5.978
		c-0.781-0.358-1.866-0.98-3.258-1.866c-0.486-0.421-0.917-1.349-1.296-2.782c-0.337-1.245-0.505-2.298-0.505-3.163
		c0-4.006,1.486-7.243,4.459-9.71L84.721-288.869z M79.661-283.84c0-1.308-0.516-2.53-1.549-3.669
		c-0.948,1.644-1.423,3.248-1.423,4.807c0,1.56,0.337,2.877,1.011,3.954C79.007-279.93,79.661-281.627,79.661-283.84z"/>
	<path fill="#C72C27" d="M97.056-287.477c0,3.015-0.454,5.661-1.36,7.938c-0.8,2.046-2.214,4.354-4.238,6.928l0.885-15.119
		l-0.442-0.443c-1.581,2.025-2.372,4.365-2.372,7.021c0,1.434,0.516,3.184,1.549,5.25h-5.787v-15.877l5.029,1.581l3.194-1.959
		l3.542,2.593V-287.477z"/>
	<path fill="#C72C27" d="M26.529-250.949c0,2.15-0.558,5.683-1.676,10.595l-5.028,3.383l-3.163-2.592l-3.732,2.592
		c-0.906-0.442-2.225-1.15-3.953-2.12c-1.117-0.739-2.077-2.481-2.877-5.228c-0.654-2.322-0.981-4.37-0.981-6.144
		c0-2.745,0.823-5.512,2.467-8.298h7.147c-2.699,3.373-4.048,7.105-4.048,11.196c0,1.75,0.379,3.595,1.139,5.534l0.854-0.758
		l3.667-20.146c2.024,4.68,3.037,8.634,3.037,11.86c0,2.361-0.38,5.175-1.139,8.443l0.569,0.697l0.98-0.854l3.701-20.146
		C25.517-258.191,26.529-254.195,26.529-250.949z"/>
	<path fill="#C72C27" d="M35.415-257.907c-2.509,0.549-4.406,1.972-5.693,4.27l4.966,1.961c-2.024,2.488-3.036,5.249-3.036,8.286
		c0,1.581,0.506,3.395,1.517,5.439h-5.629v-16.542l1.929,0.76l-2.372-6.768C30.071-260.5,32.842-259.635,35.415-257.907z"/>
	<path fill="#C72C27" d="M47.212-249.526c0,3.015-0.453,5.662-1.36,7.938c-0.8,2.046-2.213,4.354-4.237,6.927l0.885-15.119
		l-0.443-0.442c-1.58,2.024-2.372,4.365-2.372,7.021c0,1.434,0.516,3.184,1.549,5.25h-5.787v-15.877l5.029,1.582l3.194-1.96
		l3.542,2.593V-249.526z"/>
	<path fill="#C72C27" d="M58.408-244.118l-1.582,4.903l-7.021,1.896l-2.435-9.519c0.906,1.307,1.675,2.266,2.308,2.877
		c1.032,0.949,2.119,1.476,3.257,1.582c-0.907-2.361-2.636-4.059-5.187-5.092l1.644-4.743l8.192-2.15l0.695,8.666
		c-1.602-2.404-3.205-3.701-4.806-3.891c0.126,1.245,0.695,2.372,1.707,3.384C56.067-245.277,57.143-244.582,58.408-244.118z"/>
	<path fill="#C72C27" d="M68.022-259.331c0,5.419-1.392,10.333-4.175,14.739l2.561,5.565c-0.442,0.443-1.191,0.665-2.246,0.665
		c-1.454,0-2.952,0.475-4.49,1.423c0.695-3.079,1.917-5.502,3.668-7.273c-0.063-6.115-1.149-11.175-3.258-15.182
		c1.308-0.379,2.614-0.569,3.921-0.569C65.46-259.962,66.798-259.751,68.022-259.331z"/>
	<path fill="#C72C27" d="M76.403-259.331c0,5.419-1.392,10.333-4.174,14.739l2.561,5.565c-0.442,0.443-1.191,0.665-2.246,0.665
		c-1.454,0-2.952,0.475-4.49,1.423c0.695-3.079,1.917-5.502,3.668-7.273c-0.063-6.115-1.149-11.175-3.258-15.182
		c1.308-0.379,2.614-0.569,3.921-0.569C73.841-259.962,75.18-259.751,76.403-259.331z"/>
	<path fill="#C72C27" d="M21.975-221.442l-4.144,7.242c-1.074-0.568-2.488-0.948-4.237-1.139c-0.126,0.992-0.189,2.32-0.189,3.985
		c0,3.626,0.748,7.127,2.246,10.5c-1.476,0-2.784,0.168-3.922,0.505c-0.653,0.19-1.887,0.665-3.7,1.423
		c0-4.975,0.654-10.457,1.961-16.444c-1.708,0.042-3.522,0.357-5.44,0.948l0.569-6.421L21.975-221.442z"/>
	<path fill="#C72C27" d="M29.218-219.956c-2.51,0.549-4.407,1.972-5.693,4.27l4.966,1.961c-2.024,2.488-3.036,5.249-3.036,8.286
		c0,1.581,0.506,3.395,1.517,5.44h-5.628v-16.542l1.929,0.76l-2.372-6.768C23.874-222.548,26.645-221.684,29.218-219.956z"/>
	<path fill="#C72C27" d="M41.426-213.472l-4.333,7.78c-0.043-2.889-0.696-4.881-1.961-5.978c-0.442,0.907-0.664,1.961-0.664,3.163
		c0,3.5,0.969,5.249,2.91,5.249c0.991,0,1.75-0.189,2.277-0.569l0.601,0.728l-4.047,4.111l-7.496-3.827
		c0.991-1.581,1.486-3.215,1.486-4.901c0-1.349-0.453-2.762-1.36-4.238l4.682-4.491L41.426-213.472z"/>
	<path fill="#C72C27" d="M66.158-221.442l-4.144,7.242c-1.075-0.568-2.488-0.948-4.238-1.139c-0.126,0.992-0.189,2.32-0.189,3.985
		c0,3.626,0.748,7.127,2.246,10.5c-1.477,0-2.784,0.168-3.923,0.505c-0.653,0.19-1.887,0.665-3.699,1.423
		c0-4.975,0.653-10.457,1.961-16.444c-1.708,0.042-3.522,0.357-5.439,0.948l0.568-6.421L66.158-221.442z"/>
	<path fill="#C72C27" d="M77.352-212.365c-0.991,1.581-1.486,3.226-1.486,4.934c0,1.328,0.475,2.763,1.423,4.302l-7.781,4.142
		c-2.889-2.107-4.333-5.017-4.333-8.729l6.01-2.467c-0.548-1.159-1.518-1.74-2.91-1.74c-0.675,0-1.287,0.19-1.835,0.57l-0.601-0.727
		l4.018-4.08L77.352-212.365z M71.754-206.261c0-0.696-0.031-1.37-0.095-2.024l-1.708,1.708c0.042,1.265,0.57,2.203,1.582,2.814
		C71.681-204.669,71.754-205.503,71.754-206.261z"/>
	<path fill="#C72C27" d="M89.971-213.472l-4.333,7.78c-0.042-2.889-0.696-4.881-1.961-5.978c-0.442,0.907-0.664,1.961-0.664,3.163
		c0,3.5,0.969,5.249,2.91,5.249c0.991,0,1.75-0.189,2.276-0.569l0.601,0.728l-4.047,4.111l-7.496-3.827
		c0.991-1.581,1.486-3.215,1.486-4.901c0-1.349-0.453-2.762-1.36-4.238l4.682-4.491L89.971-213.472z"/>
	<path fill="#C72C27" d="M111.698-208.697l-5.756,0.727c-0.083,4.176-1.497,8.635-4.238,13.378c0-3.943-0.317-8.191-0.949-12.745
		l-3.732,0.443l3.036-5.281c-0.4-2.593-1.012-4.924-1.833-6.99l12.871-2.878v9.709c-1.813-2.002-3.795-3.247-5.946-3.732
		l0.443,3.131C108.103-212.196,110.138-210.784,111.698-208.697z"/>
	<path fill="#C72C27" d="M123.716-212.365c-0.991,1.581-1.487,3.226-1.487,4.934c0,1.328,0.475,2.763,1.423,4.302l-7.78,4.142
		c-2.889-2.107-4.333-5.017-4.333-8.729l6.01-2.467c-0.548-1.159-1.519-1.74-2.91-1.74c-0.675,0-1.287,0.19-1.835,0.57l-0.601-0.727
		l4.018-4.08L123.716-212.365z M118.118-206.261c0-0.696-0.031-1.37-0.095-2.024l-1.708,1.708c0.042,1.265,0.57,2.203,1.581,2.814
		C118.044-204.669,118.118-205.503,118.118-206.261z"/>
	<path fill="#C72C27" d="M134.627-213.03c-1.308,1.119-2.257,2.246-2.847,3.385c-0.654,1.244-0.981,2.678-0.981,4.301
		c0,1.75,0.538,3.533,1.613,5.346h-5.85v-10.658l-3.164-1.36l7.654-7.748l0.285,5.186L134.627-213.03z"/>
	<path fill="#C72C27" d="M146.297-212.365c-0.991,1.581-1.486,3.226-1.486,4.934c0,1.328,0.475,2.763,1.423,4.302l-7.781,4.142
		c-2.889-2.107-4.333-5.017-4.333-8.729l6.01-2.467c-0.548-1.159-1.518-1.74-2.909-1.74c-0.676,0-1.287,0.19-1.835,0.57
		l-0.601-0.727l4.018-4.08L146.297-212.365z M140.698-206.261c0-0.696-0.031-1.37-0.095-2.024l-1.708,1.708
		c0.042,1.265,0.57,2.203,1.582,2.814C140.625-204.669,140.698-205.503,140.698-206.261z"/>
	<path fill="#C72C27" d="M152.685-222.454c0,8.561-0.949,16.045-2.846,22.455h-2.656v-18.788L152.685-222.454z"/>
	<path fill="#C72C27" d="M160.75-219.956c-2.509,0.549-4.406,1.972-5.693,4.27l4.966,1.961c-2.024,2.488-3.036,5.249-3.036,8.286
		c0,1.581,0.506,3.395,1.517,5.44h-5.628v-16.542l1.929,0.76l-2.372-6.768C155.405-222.548,158.177-221.684,160.75-219.956z"/>
	<path fill="#C72C27" d="M171.25-213.03c-1.308,1.119-2.257,2.246-2.847,3.385c-0.653,1.244-0.98,2.678-0.98,4.301
		c0,1.75,0.538,3.533,1.612,5.346h-5.85v-10.658l-3.163-1.36l7.654-7.748l0.285,5.186L171.25-213.03z"/>
	<path fill="#C72C27" d="M178.967-219.956c-2.51,0.549-4.406,1.972-5.693,4.27l4.966,1.961c-2.024,2.488-3.036,5.249-3.036,8.286
		c0,1.581,0.506,3.395,1.518,5.44h-5.629v-16.542l1.929,0.76l-2.372-6.768C173.622-222.548,176.394-221.684,178.967-219.956z"/>
	<path fill="#C72C27" d="M190.637-207.558l-6.008,2.467c0.547,1.159,1.507,1.74,2.877,1.74c0.675,0,1.308-0.201,1.897-0.601
		l0.601,0.727l-4.047,4.112l-7.527-3.827c1.012-1.539,1.518-3.163,1.518-4.871c0-1.369-0.474-2.825-1.423-4.363l7.78-4.112
		c1.56,1.118,2.673,2.361,3.337,3.732C190.305-211.184,190.637-209.519,190.637-207.558z M185.862-208.728
		c-0.063-1.265-0.601-2.203-1.613-2.815c-0.127,0.907-0.19,1.74-0.19,2.499c0,0.717,0.032,1.403,0.095,2.055L185.862-208.728z"/>
	<path fill="#C72C27" d="M201.833-206.167l-1.581,4.903l-7.021,1.897l-2.435-9.519c0.906,1.307,1.676,2.266,2.309,2.877
		c1.032,0.948,2.118,1.476,3.257,1.582c-0.907-2.361-2.636-4.059-5.188-5.092l1.645-4.744l8.192-2.15l0.695,8.666
		c-1.602-2.403-3.204-3.701-4.806-3.89c0.126,1.245,0.695,2.372,1.708,3.383C199.492-207.326,200.568-206.63,201.833-206.167z"/>
	<path fill="#C72C27" d="M21.975-183.49l-4.144,7.242c-1.074-0.569-2.488-0.948-4.237-1.139c-0.126,0.992-0.189,2.32-0.189,3.985
		c0,3.626,0.748,7.126,2.246,10.5c-1.476,0-2.784,0.168-3.922,0.506c-0.653,0.191-1.887,0.664-3.7,1.423
		c0-4.975,0.654-10.458,1.961-16.445c-1.708,0.042-3.522,0.358-5.44,0.948l0.569-6.42L21.975-183.49z"/>
	<path fill="#C72C27" d="M29.218-182.004c-2.51,0.548-4.407,1.971-5.693,4.27l4.966,1.961c-2.024,2.488-3.036,5.25-3.036,8.287
		c0,1.58,0.506,3.395,1.517,5.439h-5.628v-16.541l1.929,0.759l-2.372-6.768C23.874-184.597,26.645-183.732,29.218-182.004z"/>
	<path fill="#C72C27" d="M41.426-175.521l-4.333,7.78c-0.043-2.889-0.696-4.881-1.961-5.978c-0.442,0.907-0.664,1.961-0.664,3.164
		c0,3.5,0.969,5.249,2.91,5.249c0.991,0,1.75-0.188,2.277-0.568l0.601,0.727l-4.047,4.111l-7.496-3.827
		c0.991-1.581,1.486-3.215,1.486-4.902c0-1.349-0.453-2.762-1.36-4.237l4.682-4.492L41.426-175.521z"/>
	<path fill="#C72C27" d="M66.158-183.49l-4.144,7.242c-1.075-0.569-2.488-0.948-4.238-1.139c-0.126,0.992-0.189,2.32-0.189,3.985
		c0,3.626,0.748,7.126,2.246,10.5c-1.477,0-2.784,0.168-3.923,0.506c-0.653,0.191-1.887,0.664-3.699,1.423
		c0-4.975,0.653-10.458,1.961-16.445c-1.708,0.042-3.522,0.358-5.439,0.948l0.568-6.42L66.158-183.49z"/>
	<path fill="#C72C27" d="M77.194-173.592c0,2.995-0.454,5.63-1.36,7.906c-0.821,2.046-2.234,4.354-4.238,6.927l0.885-15.118
		l-0.442-0.443c-1.58,1.982-2.372,4.228-2.372,6.737c0,1.75,0.527,3.594,1.581,5.535h-5.819v-18.787l5.535-3.667v7.874l2.688-1.644
		l3.542,2.562V-173.592z"/>
	<path fill="#C72C27" d="M90.255-174.414c-0.991,1.581-1.486,3.226-1.486,4.934c0,1.329,0.475,2.763,1.423,4.302l-7.78,4.142
		c-2.889-2.107-4.333-5.017-4.333-8.729l6.01-2.467c-0.548-1.16-1.519-1.74-2.91-1.74c-0.676,0-1.287,0.19-1.835,0.57l-0.601-0.727
		l4.018-4.081L90.255-174.414z M84.658-168.31c0-0.696-0.031-1.37-0.095-2.024l-1.708,1.708c0.042,1.266,0.57,2.203,1.582,2.814
		C84.584-166.718,84.658-167.551,84.658-168.31z"/>
	<path fill="#C72C27" d="M102.875-175.521l-4.333,7.78c-0.042-2.889-0.696-4.881-1.961-5.978c-0.443,0.907-0.665,1.961-0.665,3.164
		c0,3.5,0.97,5.249,2.91,5.249c0.991,0,1.75-0.188,2.276-0.568l0.601,0.727l-4.047,4.111l-7.496-3.827
		c0.991-1.581,1.486-3.215,1.486-4.902c0-1.349-0.454-2.762-1.36-4.237l4.681-4.492L102.875-175.521z"/>
	<path fill="#C72C27" d="M114.829-173.592c0,2.995-0.453,5.63-1.36,7.906c-0.821,2.046-2.234,4.354-4.238,6.927l0.885-15.118
		l-0.442-0.443c-1.58,1.982-2.372,4.228-2.372,6.737c0,1.75,0.527,3.594,1.581,5.535h-5.819v-18.787l5.535-3.667v7.874l2.688-1.644
		l3.542,2.562V-173.592z"/>
	<path fill="#C72C27" d="M137.504-170.745l-5.756,0.727c-0.083,4.176-1.496,8.635-4.237,13.378c0-3.943-0.316-8.191-0.948-12.745
		l-3.732,0.442l3.036-5.281c-0.4-2.593-1.012-4.924-1.834-6.989l12.871-2.879v9.709c-1.813-2.002-3.795-3.247-5.945-3.732
		l0.442,3.131C133.911-174.244,135.945-172.833,137.504-170.745z"/>
	<path fill="#C72C27" d="M149.523-174.414c-0.991,1.581-1.486,3.226-1.486,4.934c0,1.329,0.475,2.763,1.423,4.302l-7.781,4.142
		c-2.889-2.107-4.333-5.017-4.333-8.729l6.009-2.467c-0.548-1.16-1.519-1.74-2.909-1.74c-0.676,0-1.287,0.19-1.835,0.57
		l-0.601-0.727l4.018-4.081L149.523-174.414z M143.925-168.31c0-0.696-0.031-1.37-0.096-2.024l-1.708,1.708
		c0.043,1.266,0.57,2.203,1.582,2.814C143.852-166.718,143.925-167.551,143.925-168.31z"/>
	<path fill="#C72C27" d="M160.434-175.078c-1.307,1.118-2.257,2.245-2.846,3.385c-0.654,1.244-0.981,2.678-0.981,4.3
		c0,1.75,0.538,3.533,1.613,5.346h-5.85v-10.658l-3.163-1.36l7.654-7.748l0.285,5.186L160.434-175.078z"/>
	<path fill="#C72C27" d="M172.104-174.414c-0.991,1.581-1.486,3.226-1.486,4.934c0,1.329,0.475,2.763,1.423,4.302l-7.78,4.142
		c-2.889-2.107-4.333-5.017-4.333-8.729l6.01-2.467c-0.548-1.16-1.519-1.74-2.91-1.74c-0.675,0-1.287,0.19-1.835,0.57l-0.601-0.727
		l4.018-4.081L172.104-174.414z M166.506-168.31c0-0.696-0.031-1.37-0.095-2.024l-1.708,1.708c0.042,1.266,0.57,2.203,1.582,2.814
		C166.433-166.718,166.506-167.551,166.506-168.31z"/>
	<path fill="#C72C27" d="M178.492-184.502c0,8.56-0.948,16.044-2.847,22.455h-2.656v-18.787L178.492-184.502z"/>
	<path fill="#C72C27" d="M186.557-182.004c-2.509,0.548-4.406,1.971-5.693,4.27l4.966,1.961c-2.024,2.488-3.036,5.25-3.036,8.287
		c0,1.58,0.506,3.395,1.517,5.439h-5.629v-16.541l1.929,0.759l-2.372-6.768C181.212-184.597,183.984-183.732,186.557-182.004z"/>
	<path fill="#C72C27" d="M197.058-175.078c-1.308,1.118-2.257,2.245-2.847,3.385c-0.654,1.244-0.98,2.678-0.98,4.3
		c0,1.75,0.538,3.533,1.612,5.346h-5.85v-10.658l-3.163-1.36l7.654-7.748l0.284,5.186L197.058-175.078z"/>
	<path fill="#C72C27" d="M204.773-182.004c-2.509,0.548-4.406,1.971-5.693,4.27l4.966,1.961c-2.024,2.488-3.036,5.25-3.036,8.287
		c0,1.58,0.506,3.395,1.517,5.439h-5.628v-16.541l1.929,0.759l-2.372-6.768C199.429-184.597,202.202-183.732,204.773-182.004z"/>
	<path fill="#C72C27" d="M216.444-169.606l-6.008,2.467c0.547,1.16,1.507,1.74,2.877,1.74c0.674,0,1.307-0.2,1.896-0.601
		l0.601,0.727l-4.047,4.111l-7.527-3.827c1.011-1.54,1.517-3.163,1.517-4.871c0-1.369-0.474-2.825-1.423-4.364l7.781-4.111
		c1.56,1.118,2.672,2.361,3.336,3.731C216.113-173.233,216.444-171.567,216.444-169.606z M211.669-170.776
		c-0.063-1.266-0.601-2.204-1.612-2.816c-0.128,0.907-0.191,1.74-0.191,2.499c0,0.717,0.032,1.403,0.095,2.055L211.669-170.776z"/>
	<path fill="#C72C27" d="M227.64-168.215l-1.582,4.903l-7.021,1.896l-2.435-9.519c0.906,1.307,1.676,2.266,2.309,2.877
		c1.032,0.948,2.118,1.477,3.257,1.582c-0.907-2.362-2.635-4.059-5.188-5.092l1.645-4.744l8.193-2.15l0.695,8.666
		c-1.603-2.403-3.205-3.701-4.807-3.89c0.126,1.244,0.695,2.372,1.708,3.383C225.299-169.375,226.375-168.678,227.64-168.215z"/>
	<path fill="#C72C27" d="M19.983-139.878c0,3.837-0.581,7.369-1.74,10.595c-1.034,2.889-2.731,6.051-5.092,9.488l1.044-20.494
		l-0.665-0.759c-1.939,2.719-2.91,6.02-2.91,9.899c0,2.045,0.602,4.396,1.803,7.053H5.719v-21.506l5.946,2.119l3.827-2.657
		l4.491,3.448V-139.878z"/>
	<path fill="#C72C27" d="M31.748-131.655l-6.008,2.467c0.547,1.16,1.506,1.74,2.877,1.74c0.674,0,1.307-0.201,1.896-0.601
		l0.601,0.727l-4.047,4.112l-7.527-3.827c1.012-1.54,1.517-3.163,1.517-4.871c0-1.369-0.473-2.824-1.423-4.364l7.78-4.111
		c1.561,1.118,2.673,2.361,3.337,3.732C31.415-135.282,31.748-133.616,31.748-131.655z M26.972-132.825
		c-0.063-1.265-0.601-2.203-1.612-2.816c-0.128,0.908-0.191,1.74-0.191,2.5c0,0.717,0.032,1.403,0.095,2.055L26.972-132.825z"/>
	<path fill="#C72C27" d="M50.217-133.236c0,1.581-0.475,4.111-1.423,7.59l-4.112,2.467l-2.625-1.866l-3.131,1.866
		c-0.758-0.316-1.854-0.834-3.288-1.552c-0.97-0.549-1.782-1.827-2.436-3.834c-0.549-1.689-0.823-3.242-0.823-4.657
		c0-2.071,0.696-4.152,2.087-6.243h6.325c-2.34,2.678-3.511,5.482-3.511,8.412c0,1.223,0.307,2.52,0.918,3.891l0.601-0.507
		l3.1-14.99c1.665,3.401,2.498,6.401,2.498,9c0,1.733-0.306,3.782-0.917,6.148l0.412,0.443l0.727-0.6l3.101-14.991
		C49.384-139.203,50.217-136.062,50.217-133.236z"/>
	<path fill="#C72C27" d="M74.633-136.242c-1.582,2.489-2.372,4.586-2.372,6.294c0,0.78,0.379,1.803,1.138,3.068
		c-1.033,1.012-2.288,1.803-3.763,2.372c-0.633,0.253-2.066,0.674-4.302,1.265l-7.052-4.775c1.16-2.151,1.74-4.333,1.74-6.546
		c0-1.813-0.55-3.669-1.645-5.566l5.503-5.947l9.74,3.922l-4.901,7.401c-0.042-3.205-0.971-5.208-2.784-6.009
		c-0.674,1.413-1.012,3.142-1.012,5.187c0,2.93,0.496,5.439,1.486,7.527c0.612-0.886,0.918-1.994,0.918-3.322
		c0-0.485-0.506-1.286-1.519-2.404L74.633-136.242z"/>
	<path fill="#C72C27" d="M86.649-136.463c-0.991,1.582-1.486,3.227-1.486,4.934c0,1.329,0.475,2.763,1.423,4.303l-7.78,4.142
		c-2.889-2.108-4.333-5.018-4.333-8.729l6.01-2.467c-0.548-1.159-1.519-1.74-2.91-1.74c-0.675,0-1.287,0.19-1.835,0.57l-0.601-0.727
		l4.018-4.081L86.649-136.463z M81.052-130.358c0-0.696-0.031-1.371-0.096-2.024l-1.707,1.707c0.042,1.266,0.57,2.203,1.581,2.815
		C80.979-128.766,81.052-129.6,81.052-130.358z"/>
	<path fill="#C72C27" d="M104.708-135.664c0,3.083-0.443,5.743-1.328,7.982c-0.802,1.986-2.225,4.276-4.27,6.875l0.885-15.117
		l-0.505-0.507l-0.601,0.505c0,3.1-0.443,5.788-1.328,8.065c-0.781,2.066-2.204,4.417-4.27,7.053l0.885-15.118l-0.442-0.442
		c-1.582,1.94-2.372,4.27-2.372,6.989c0,1.604,0.526,3.364,1.582,5.282h-5.819v-15.877l5.028,1.582l3.194-1.96l2.688,1.896
		l3.131-1.896l3.543,2.597V-135.664z"/>
	<path fill="#C72C27" d="M117.264-131.655l-6.008,2.467c0.547,1.16,1.507,1.74,2.877,1.74c0.674,0,1.307-0.201,1.896-0.601
		l0.601,0.727l-4.047,4.112l-7.527-3.827c1.012-1.54,1.517-3.163,1.517-4.871c0-1.369-0.473-2.824-1.423-4.364l7.781-4.111
		c1.56,1.118,2.673,2.361,3.337,3.732C116.933-135.282,117.264-133.616,117.264-131.655z M112.489-132.825
		c-0.063-1.265-0.601-2.203-1.612-2.816c-0.128,0.908-0.191,1.74-0.191,2.5c0,0.717,0.032,1.403,0.095,2.055L112.489-132.825z"/>
	<path fill="#C72C27" d="M18.939-103.633c0.021,1.856-0.158,3.299-0.538,4.333c-0.442,1.287-1.297,2.424-2.562,3.416
		c1.16,1.455,1.919,3.405,2.278,5.852c0.189,1.37,0.284,3.499,0.284,6.388l-8.57-11.133c0,0.128,0,0.264,0,0.412
		c0,1.708,0.189,3.321,0.569,4.839c0.317,1.222,0.875,2.741,1.677,4.554l-6.579-2.751v-17.711l6.229-2.782L18.939-103.633z
		 M13.435-99.997l-1.833-2.688c-0.908,1.961-1.466,4.06-1.677,6.294L13.435-99.997z"/>
	<path fill="#C72C27" d="M32.347-99.111c0,3.185-0.505,5.819-1.518,7.906c-1.055,2.172-2.846,4.165-5.376,5.978
		c-0.782-0.358-1.866-0.981-3.259-1.866c-0.485-0.42-0.916-1.348-1.296-2.782c-0.337-1.245-0.506-2.298-0.506-3.163
		c0-4.006,1.486-7.243,4.459-9.71L32.347-99.111z M27.287-94.082c0-1.308-0.516-2.53-1.549-3.668
		c-0.949,1.644-1.423,3.248-1.423,4.807s0.337,2.877,1.012,3.954C26.633-90.171,27.287-91.869,27.287-94.082z"/>
	<path fill="#C72C27" d="M44.651-85.67l-4.997-1.549l-3.195,1.898l-3.574-2.53v-2.152c0-2.993,0.455-5.628,1.36-7.906
		c0.823-2.087,2.235-4.375,4.238-6.863l-0.886,15.055l0.475,0.442c1.56-1.981,2.34-4.322,2.34-7.021c0-1.434-0.516-3.184-1.549-5.25
		h5.788V-85.67z"/>
	<path fill="#C72C27" d="M57.554-97.719c0,3.015-0.454,5.661-1.36,7.938c-0.8,2.046-2.214,4.354-4.238,6.927l0.886-15.118
		l-0.442-0.443c-1.581,2.024-2.373,4.365-2.373,7.021c0,1.433,0.517,3.184,1.55,5.25h-5.787v-15.877l5.029,1.581l3.195-1.959
		l3.542,2.593V-97.719z"/>
	<path fill="#C72C27" d="M70.488-104.265c0,3.395-0.236,6.325-0.711,8.792c-0.474,2.467-1.355,5.292-2.641,8.476l-4.049,1.833
		c-1.433-0.928-2.587-2.133-3.463-3.62c-0.875-1.488-1.311-3.053-1.311-4.698c0-1.285,0.126-2.856,0.378-4.712
		c0.211-1.56,0.432-3.12,0.666-4.681l5.628,2.814v-4.871l5.503-3.668V-104.265z M65.333-94.367c0-0.801-0.083-1.697-0.252-2.688
		l-2.784,0.284c0.083,2.678,0.896,5.04,2.435,7.085C65.132-91.288,65.333-92.848,65.333-94.367z"/>
	<path fill="#C72C27" d="M93.387-103.349c0,4.112-0.581,7.539-1.74,10.279c-1.287,3.058-3.448,5.778-6.484,8.16
		c-0.653-0.4-1.307-0.79-1.961-1.169c-0.802-0.465-1.413-0.896-1.834-1.297c-0.57-0.526-1.086-1.771-1.551-3.732
		c-0.4-1.687-0.599-3.068-0.599-4.143c0-5.397,1.749-9.73,5.249-12.999L93.387-103.349z M87.472-96.708
		c0-1.959-0.653-3.679-1.961-5.155c-1.16,1.919-1.74,4.165-1.74,6.737c0,2.13,0.412,3.954,1.234,5.472
		C86.649-91.341,87.472-93.692,87.472-96.708z"/>
	<path fill="#C72C27" d="M106.004-97.719c0,3.015-0.453,5.661-1.36,7.938c-0.8,2.046-2.213,4.354-4.237,6.927l0.885-15.118
		l-0.443-0.443c-1.581,2.024-2.372,4.365-2.372,7.021c0,1.433,0.516,3.184,1.549,5.25h-5.787v-15.877l5.029,1.581l3.194-1.959
		l3.542,2.593V-97.719z"/>
	<path fill="#C72C27" d="M118.591-93.702l-6.008,2.467c0.547,1.16,1.507,1.74,2.877,1.74c0.674,0,1.307-0.201,1.896-0.601
		l0.601,0.728l-4.047,4.111l-7.527-3.827c1.011-1.539,1.517-3.163,1.517-4.871c0-1.369-0.474-2.825-1.423-4.364l7.781-4.112
		c1.56,1.119,2.672,2.362,3.336,3.732C118.26-97.329,118.591-95.664,118.591-93.702z M113.815-94.872
		c-0.063-1.265-0.601-2.203-1.612-2.815c-0.128,0.907-0.191,1.74-0.191,2.499c0,0.716,0.032,1.402,0.095,2.055L113.815-94.872z"/>
	<path fill="#C72C27" d="M127.921-107.523c0,5.419-1.393,10.333-4.175,14.739l2.561,5.565c-0.442,0.443-1.191,0.664-2.246,0.664
		c-1.454,0-2.952,0.475-4.49,1.423c0.695-3.078,1.917-5.503,3.668-7.273c-0.063-6.115-1.149-11.175-3.257-15.181
		c1.308-0.38,2.614-0.569,3.921-0.569C125.359-108.155,126.697-107.944,127.921-107.523z"/>
	<path fill="#C72C27" d="M18.939-65.682c0.021,1.855-0.158,3.299-0.538,4.333c-0.442,1.286-1.297,2.424-2.562,3.415
		c1.16,1.455,1.919,3.405,2.278,5.852c0.189,1.371,0.284,3.499,0.284,6.388l-8.57-11.133c0,0.127,0,0.264,0,0.412
		c0,1.708,0.189,3.32,0.569,4.838c0.317,1.223,0.875,2.741,1.677,4.555l-6.579-2.751v-17.711l6.229-2.782L18.939-65.682z
		 M13.435-62.045l-1.833-2.688c-0.908,1.961-1.466,4.06-1.677,6.294L13.435-62.045z"/>
	<path fill="#C72C27" d="M32.347-61.16c0,3.185-0.505,5.819-1.518,7.907c-1.055,2.172-2.846,4.164-5.376,5.977
		c-0.782-0.358-1.866-0.98-3.259-1.866c-0.485-0.421-0.916-1.349-1.296-2.782c-0.337-1.245-0.506-2.298-0.506-3.163
		c0-4.006,1.486-7.243,4.459-9.71L32.347-61.16z M27.287-56.13c0-1.308-0.516-2.53-1.549-3.669
		c-0.949,1.645-1.423,3.248-1.423,4.808c0,1.56,0.337,2.877,1.012,3.953C26.633-52.22,27.287-53.917,27.287-56.13z"/>
	<path fill="#C72C27" d="M44.651-47.718l-4.997-1.55l-3.195,1.898l-3.574-2.53v-2.151c0-2.994,0.455-5.629,1.36-7.907
		c0.823-2.087,2.235-4.374,4.238-6.862l-0.886,15.055l0.475,0.442c1.56-1.981,2.34-4.322,2.34-7.021c0-1.433-0.516-3.184-1.549-5.25
		h5.788V-47.718z"/>
	<path fill="#C72C27" d="M57.554-59.768c0,3.015-0.454,5.662-1.36,7.938c-0.8,2.046-2.214,4.354-4.238,6.928l0.886-15.119
		l-0.442-0.442c-1.581,2.024-2.373,4.365-2.373,7.021c0,1.434,0.517,3.184,1.55,5.25h-5.787v-15.877l5.029,1.581l3.195-1.959
		l3.542,2.593V-59.768z"/>
	<path fill="#C72C27" d="M70.488-66.313c0,3.395-0.236,6.325-0.711,8.792c-0.474,2.467-1.355,5.292-2.641,8.475l-4.049,1.833
		c-1.433-0.928-2.587-2.133-3.463-3.62c-0.875-1.487-1.311-3.052-1.311-4.697c0-1.286,0.126-2.857,0.378-4.713
		c0.211-1.56,0.432-3.119,0.666-4.681l5.628,2.815v-4.871l5.503-3.667V-66.313z M65.333-56.415c0-0.802-0.083-1.697-0.252-2.688
		l-2.784,0.285c0.083,2.678,0.896,5.04,2.435,7.084C65.132-53.337,65.333-54.896,65.333-56.415z"/>
	<path fill="#C72C27" d="M96.042-69.635l-4.144,7.243c-1.075-0.569-2.488-0.948-4.238-1.139c-0.126,0.992-0.189,2.32-0.189,3.985
		c0,3.626,0.748,7.126,2.246,10.5c-1.477,0-2.784,0.168-3.923,0.506c-0.653,0.19-1.887,0.664-3.699,1.423
		c0-4.975,0.653-10.458,1.96-16.445c-1.707,0.042-3.522,0.358-5.439,0.949l0.568-6.42L96.042-69.635z"/>
	<path fill="#C72C27" d="M112.836-57.332c0,1.581-0.475,4.111-1.423,7.59l-4.111,2.466l-2.625-1.866l-3.131,1.866
		c-0.758-0.316-1.854-0.834-3.288-1.552c-0.97-0.55-1.782-1.827-2.436-3.835c-0.548-1.689-0.822-3.241-0.822-4.657
		c0-2.071,0.696-4.152,2.087-6.243h6.325c-2.339,2.678-3.511,5.482-3.511,8.413c0,1.223,0.307,2.52,0.917,3.89l0.601-0.507
		l3.1-14.99c1.666,3.401,2.498,6.401,2.498,9c0,1.733-0.307,3.782-0.917,6.148l0.412,0.443l0.728-0.6l3.1-14.991
		C112.003-63.298,112.836-60.157,112.836-57.332z"/>
	<path fill="#C72C27" d="M125.202-61.16c0,3.185-0.506,5.819-1.517,7.907c-1.056,2.172-2.847,4.164-5.377,5.977
		c-0.781-0.358-1.866-0.98-3.259-1.866c-0.485-0.421-0.916-1.349-1.295-2.782c-0.337-1.245-0.505-2.298-0.505-3.163
		c0-4.006,1.486-7.243,4.458-9.71L125.202-61.16z M120.142-56.13c0-1.308-0.516-2.53-1.549-3.669
		c-0.949,1.645-1.423,3.248-1.423,4.808c0,1.56,0.337,2.877,1.011,3.953C119.488-52.22,120.142-53.917,120.142-56.13z"/>
	<path fill="#C72C27" d="M134.153-69.572c0,5.419-1.392,10.333-4.174,14.739l2.561,5.565c-0.442,0.443-1.191,0.665-2.246,0.665
		c-1.454,0-2.952,0.475-4.49,1.423c0.695-3.079,1.917-5.503,3.668-7.273c-0.063-6.115-1.149-11.175-3.258-15.182
		c1.308-0.379,2.614-0.569,3.921-0.569C131.591-70.204,132.93-69.993,134.153-69.572z"/>
	<path fill="#C72C27" d="M17.516-19.54c-0.844,3.774-1.845,6.875-3.004,9.299H4.928v-19.673l7.433-2.53
		c-0.57,6.684-1.624,12.494-3.163,17.427C12.761-15.69,15.534-17.199,17.516-19.54z"/>
	<path fill="#C72C27" d="M29.597-22.607c-0.991,1.581-1.486,3.226-1.486,4.934c0,1.328,0.475,2.763,1.423,4.302l-7.781,4.142
		c-2.889-2.108-4.333-5.018-4.333-8.729l6.009-2.467c-0.548-1.159-1.518-1.74-2.909-1.74c-0.676,0-1.287,0.19-1.835,0.57
		l-0.601-0.727l4.018-4.081L29.597-22.607z M24-16.502c0-0.696-0.031-1.371-0.096-2.024l-1.708,1.708
		c0.043,1.265,0.571,2.203,1.582,2.814C23.926-14.911,24-15.745,24-16.502z"/>
	<path fill="#C72C27" d="M40.287-16.409l-1.582,4.903l-7.021,1.897l-2.435-9.519c0.906,1.307,1.676,2.266,2.309,2.877
		c1.032,0.948,2.118,1.476,3.257,1.582c-0.907-2.361-2.636-4.059-5.188-5.093l1.645-4.743l8.192-2.15l0.695,8.666
		c-1.603-2.404-3.205-3.701-4.807-3.89c0.126,1.244,0.695,2.372,1.708,3.383C37.946-17.568,39.022-16.872,40.287-16.409z"/>
	<path fill="#C72C27" d="M51.989-23.271c-1.307,1.118-2.257,2.246-2.847,3.385c-0.654,1.244-0.98,2.678-0.98,4.301
		c0,1.75,0.538,3.532,1.613,5.346h-5.851v-10.658l-3.163-1.36l7.654-7.748l0.284,5.186L51.989-23.271z"/>
	<path fill="#C72C27" d="M73.242-27.73c0.021,1.856-0.158,3.3-0.538,4.333c-0.442,1.287-1.297,2.425-2.562,3.416
		c1.16,1.456,1.918,3.405,2.277,5.851c0.189,1.371,0.285,3.499,0.285,6.388l-8.57-11.132c0,0.127,0,0.263,0,0.411
		c0,1.708,0.189,3.32,0.569,4.839c0.316,1.223,0.875,2.741,1.677,4.555L59.8-11.822v-17.711l6.229-2.782L73.242-27.73z
		 M67.738-24.094l-1.834-2.688c-0.907,1.961-1.466,4.06-1.677,6.294L67.738-24.094z"/>
	<path fill="#C72C27" d="M86.651-23.208c0,3.185-0.506,5.82-1.517,7.907c-1.055,2.172-2.847,4.165-5.376,5.978
		c-0.781-0.358-1.866-0.981-3.259-1.866c-0.485-0.421-0.917-1.349-1.296-2.782c-0.337-1.245-0.506-2.299-0.506-3.163
		c0-4.006,1.487-7.243,4.459-9.71L86.651-23.208z M81.591-18.179c0-1.307-0.516-2.53-1.549-3.669
		c-0.948,1.645-1.423,3.248-1.423,4.808c0,1.56,0.337,2.878,1.011,3.954C80.938-14.268,81.591-15.965,81.591-18.179z"/>
	<path fill="#C72C27" d="M98.955-9.767l-4.998-1.549l-3.195,1.897l-3.574-2.529V-14.1c0-2.993,0.454-5.629,1.36-7.907
		c0.822-2.087,2.236-4.374,4.238-6.863l-0.885,15.055l0.475,0.443c1.56-1.982,2.339-4.323,2.339-7.022
		c0-1.433-0.516-3.184-1.549-5.25h5.789V-9.767z"/>
	<path fill="#C72C27" d="M111.857-21.816c0,3.016-0.453,5.662-1.36,7.938c-0.8,2.046-2.213,4.354-4.238,6.927l0.885-15.119
		l-0.442-0.442c-1.58,2.024-2.372,4.365-2.372,7.021c0,1.434,0.516,3.184,1.549,5.251h-5.787v-15.878l5.029,1.582l3.194-1.96
		l3.541,2.593V-21.816z"/>
	<path fill="#C72C27" d="M124.792-28.362c0,3.395-0.237,6.325-0.712,8.792c-0.474,2.467-1.355,5.292-2.641,8.476l-4.049,1.834
		c-1.434-0.928-2.588-2.134-3.463-3.62c-0.875-1.488-1.311-3.053-1.311-4.697c0-1.286,0.126-2.857,0.378-4.712
		c0.211-1.56,0.432-3.12,0.665-4.681l5.629,2.815v-4.871l5.503-3.667V-28.362z M119.636-18.464c0-0.802-0.083-1.697-0.252-2.688
		l-2.784,0.285c0.084,2.678,0.896,5.039,2.435,7.084C119.436-15.386,119.636-16.945,119.636-18.464z"/>
	<path fill="#C72C27" d="M134.186-31.621c0,5.419-1.393,10.333-4.174,14.739l2.561,5.566c-0.443,0.442-1.192,0.664-2.246,0.664
		c-1.455,0-2.952,0.475-4.49,1.423c0.695-3.078,1.917-5.502,3.667-7.273c-0.062-6.115-1.149-11.175-3.257-15.181
		c1.308-0.38,2.614-0.569,3.921-0.569C131.624-32.253,132.962-32.041,134.186-31.621z"/>
</g>
<g>
	<path fill="#C72C27" d="M23.556,8.977c0,4.755-0.719,9.13-2.156,13.127c-1.28,3.58-3.383,7.497-6.309,11.756l1.293-25.392
		l-0.823-0.94c-2.403,3.369-3.604,7.458-3.604,12.264c0,2.535,0.744,5.447,2.233,8.739H5.882V1.885l7.367,2.625l4.742-3.292
		l5.564,4.271V8.977z"/>
	<path fill="#C72C27" d="M38.132,19.165l-7.444,3.057c0.678,1.436,1.867,2.155,3.565,2.155c0.836,0,1.62-0.249,2.351-0.745
		l0.744,0.901l-5.014,5.095l-9.326-4.742c1.253-1.907,1.88-3.919,1.88-6.035c0-1.697-0.587-3.5-1.764-5.407l9.641-5.094
		c1.932,1.386,3.311,2.926,4.134,4.624C37.721,14.672,38.132,16.735,38.132,19.165z M32.215,17.716
		c-0.078-1.567-0.745-2.73-1.998-3.489c-0.158,1.124-0.236,2.156-0.236,3.097c0,0.888,0.04,1.738,0.118,2.546L32.215,17.716z"/>
	<path fill="#C72C27" d="M61.016,17.206c0,1.959-0.588,5.094-1.763,9.404l-5.095,3.057l-3.253-2.312l-3.879,2.312
		c-0.939-0.392-2.298-1.033-4.074-1.923c-1.202-0.681-2.208-2.264-3.019-4.751c-0.679-2.094-1.019-4.016-1.019-5.771
		c0-2.565,0.863-5.144,2.586-7.734h7.837c-2.899,3.318-4.35,6.792-4.35,10.423c0,1.515,0.38,3.122,1.138,4.82l0.744-0.628
		l3.841-18.573c2.063,4.214,3.095,7.931,3.095,11.15c0,2.148-0.379,4.686-1.137,7.619l0.511,0.548l0.901-0.743l3.841-18.574
		C59.984,9.813,61.016,13.706,61.016,17.206z"/>
	<path fill="#C72C27" d="M87.624,18.499l-2.391,8.073l-10.775,3.135l-3.489-15.009c2.926,4.494,5.879,6.885,8.857,7.172
		c-0.732-2.062-1.837-3.926-3.312-5.584c-1.477-1.659-3.193-2.919-5.153-3.782l2.508-7.836L86.408,1.14l1.019,14.146
		c-2.325-4.257-4.937-6.519-7.837-6.779c0.184,2.09,1.072,4.103,2.665,6.035C83.77,16.344,85.56,17.663,87.624,18.499z"/>
	<path fill="#C72C27" d="M102.944,19.165L95.5,22.222c0.677,1.436,1.867,2.155,3.565,2.155c0.835,0,1.62-0.249,2.351-0.745
		l0.744,0.901l-5.014,5.095l-9.326-4.742c1.253-1.907,1.88-3.919,1.88-6.035c0-1.697-0.587-3.5-1.764-5.407l9.64-5.094
		c1.933,1.386,3.312,2.926,4.135,4.624C102.533,14.672,102.944,16.735,102.944,19.165z M97.027,17.716
		c-0.078-1.567-0.744-2.73-1.998-3.489c-0.158,1.124-0.237,2.156-0.237,3.097c0,0.888,0.041,1.738,0.119,2.546L97.027,17.716z"/>
	<path fill="#C72C27" d="M117.091,12.385c-1.62,1.386-2.797,2.783-3.527,4.194c-0.81,1.542-1.215,3.318-1.215,5.329
		c0,2.168,0.666,4.377,1.998,6.623h-7.249V15.326l-3.919-1.686l9.484-9.6l0.352,6.426L117.091,12.385z"/>
	<path fill="#C72C27" d="M127.162,2.041c0,6.714-1.726,12.802-5.172,18.262l3.172,6.896c-0.549,0.548-1.477,0.823-2.782,0.823
		c-1.802,0-3.658,0.588-5.563,1.764c0.861-3.814,2.376-6.819,4.544-9.012c-0.078-7.577-1.424-13.846-4.036-18.81
		c1.62-0.47,3.238-0.705,4.859-0.705C123.987,1.258,125.646,1.519,127.162,2.041z"/>
</g>
</svg>
