<?xml version="1.0" encoding="utf-8"?>
<!-- Generator: Adobe Illustrator 16.0.4, SVG Export Plug-In . SVG Version: 6.00 Build 0)  -->
<!DOCTYPE svg PUBLIC "-//W3C//DTD SVG 1.1//EN" "http://www.w3.org/Graphics/SVG/1.1/DTD/svg11.dtd">
<svg version="1.1" id="Layer_1" xmlns="http://www.w3.org/2000/svg" xmlns:xlink="http://www.w3.org/1999/xlink" x="0px" y="0px"
	 width="231px" height="35px" viewBox="0 0 231 35" enable-background="new 0 0 231 35" xml:space="preserve">
<g>
	<path fill="#C72C27" d="M20.679,4.865l-4.144,7.242c-1.074-0.569-2.488-0.948-4.237-1.139c-0.126,0.992-0.189,2.32-0.189,3.985
		c0,3.626,0.748,7.126,2.246,10.5c-1.476,0-2.784,0.168-3.922,0.506c-0.653,0.191-1.887,0.664-3.7,1.423
		c0-4.975,0.654-10.458,1.961-16.445c-1.708,0.042-3.522,0.358-5.44,0.948l0.569-6.42L20.679,4.865z"/>
	<path fill="#C72C27" d="M27.922,6.352c-2.51,0.548-4.407,1.971-5.693,4.27l4.966,1.961c-2.024,2.488-3.036,5.25-3.036,8.287
		c0,1.58,0.506,3.396,1.517,5.438h-5.628V9.767l1.929,0.759l-2.372-6.768C22.578,3.758,25.349,4.623,27.922,6.352z"/>
	<path fill="#C72C27" d="M40.13,12.834l-4.333,7.78c-0.043-2.889-0.696-4.881-1.961-5.979c-0.442,0.907-0.664,1.961-0.664,3.164
		c0,3.5,0.969,5.249,2.91,5.249c0.991,0,1.75-0.188,2.277-0.568l0.601,0.728l-4.047,4.11l-7.496-3.826
		c0.991-1.581,1.486-3.215,1.486-4.902c0-1.349-0.453-2.762-1.36-4.237l4.682-4.492L40.13,12.834z"/>
	<path fill="#C72C27" d="M64.862,4.865l-4.144,7.242c-1.075-0.569-2.488-0.948-4.238-1.139c-0.126,0.992-0.189,2.32-0.189,3.985
		c0,3.626,0.748,7.126,2.246,10.5c-1.477,0-2.784,0.168-3.923,0.506c-0.653,0.191-1.887,0.664-3.699,1.423
		c0-4.975,0.653-10.458,1.961-16.445c-1.708,0.042-3.522,0.358-5.439,0.948l0.568-6.42L64.862,4.865z"/>
	<path fill="#C72C27" d="M75.898,14.764c0,2.995-0.454,5.63-1.36,7.906c-0.821,2.046-2.234,4.354-4.238,6.928l0.885-15.119
		l-0.442-0.443c-1.58,1.982-2.372,4.228-2.372,6.737c0,1.75,0.527,3.594,1.581,5.535h-5.819V7.521l5.535-3.667v7.874l2.688-1.644
		l3.542,2.562V14.764z"/>
	<path fill="#C72C27" d="M88.959,13.941c-0.991,1.581-1.486,3.226-1.486,4.934c0,1.329,0.475,2.764,1.423,4.302l-7.78,4.142
		c-2.889-2.106-4.333-5.017-4.333-8.729l6.01-2.467c-0.548-1.16-1.519-1.74-2.91-1.74c-0.676,0-1.287,0.19-1.835,0.57l-0.601-0.727
		l4.018-4.081L88.959,13.941z M83.362,20.046c0-0.696-0.031-1.37-0.095-2.024l-1.708,1.709c0.042,1.266,0.57,2.203,1.582,2.813
		C83.289,21.639,83.362,20.805,83.362,20.046z"/>
	<path fill="#C72C27" d="M101.579,12.834l-4.333,7.78c-0.042-2.889-0.696-4.881-1.961-5.979c-0.443,0.907-0.665,1.961-0.665,3.164
		c0,3.5,0.97,5.249,2.91,5.249c0.991,0,1.75-0.188,2.276-0.568l0.601,0.728l-4.047,4.11l-7.496-3.826
		c0.991-1.581,1.486-3.215,1.486-4.902c0-1.349-0.454-2.762-1.36-4.237l4.681-4.492L101.579,12.834z"/>
	<path fill="#C72C27" d="M113.533,14.764c0,2.995-0.453,5.63-1.36,7.906c-0.821,2.046-2.234,4.354-4.238,6.928l0.885-15.119
		l-0.442-0.443c-1.58,1.982-2.372,4.228-2.372,6.737c0,1.75,0.527,3.594,1.581,5.535h-5.819V7.521l5.535-3.667v7.874l2.688-1.644
		l3.542,2.562V14.764z"/>
	<path fill="#C72C27" d="M136.208,17.61l-5.756,0.727c-0.083,4.177-1.496,8.636-4.237,13.378c0-3.943-0.316-8.191-0.947-12.745
		l-3.732,0.442l3.035-5.281c-0.399-2.593-1.012-4.924-1.834-6.989l12.871-2.879v9.709c-1.812-2.002-3.795-3.247-5.944-3.732
		l0.442,3.131C132.615,14.111,134.648,15.522,136.208,17.61z"/>
	<path fill="#C72C27" d="M148.227,13.941c-0.99,1.581-1.485,3.226-1.485,4.934c0,1.329,0.475,2.764,1.423,4.302l-7.781,4.142
		c-2.889-2.106-4.333-5.017-4.333-8.729l6.009-2.467c-0.547-1.16-1.519-1.74-2.908-1.74c-0.676,0-1.287,0.19-1.836,0.57
		l-0.601-0.727l4.019-4.081L148.227,13.941z M142.629,20.046c0-0.696-0.031-1.37-0.096-2.024l-1.708,1.709
		c0.043,1.266,0.569,2.203,1.582,2.813C142.557,21.639,142.629,20.805,142.629,20.046z"/>
	<path fill="#C72C27" d="M159.139,13.277c-1.308,1.118-2.258,2.245-2.847,3.385c-0.653,1.244-0.981,2.678-0.981,4.3
		c0,1.75,0.539,3.533,1.613,5.347h-5.85V15.65l-3.163-1.36l7.653-7.748l0.285,5.186L159.139,13.277z"/>
	<path fill="#C72C27" d="M170.809,13.941c-0.992,1.581-1.486,3.226-1.486,4.934c0,1.329,0.475,2.764,1.423,4.302l-7.78,4.142
		c-2.889-2.106-4.333-5.017-4.333-8.729l6.011-2.467c-0.549-1.16-1.52-1.74-2.91-1.74c-0.676,0-1.287,0.19-1.836,0.57l-0.601-0.727
		l4.019-4.081L170.809,13.941z M165.21,20.046c0-0.696-0.03-1.37-0.095-2.024l-1.708,1.709c0.042,1.266,0.569,2.203,1.582,2.813
		C165.137,21.639,165.21,20.805,165.21,20.046z"/>
	<path fill="#C72C27" d="M177.195,3.854c0,8.56-0.947,16.044-2.846,22.455h-2.656V7.521L177.195,3.854z"/>
	<path fill="#C72C27" d="M185.262,6.352c-2.51,0.548-4.406,1.971-5.693,4.27l4.966,1.961c-2.024,2.488-3.036,5.25-3.036,8.287
		c0,1.58,0.506,3.396,1.518,5.438h-5.629V9.767l1.928,0.759l-2.371-6.768C179.917,3.758,182.688,4.623,185.262,6.352z"/>
	<path fill="#C72C27" d="M195.762,13.277c-1.308,1.118-2.257,2.245-2.847,3.385c-0.654,1.244-0.979,2.678-0.979,4.3
		c0,1.75,0.537,3.533,1.611,5.347h-5.85V15.65l-3.163-1.36l7.653-7.748l0.285,5.186L195.762,13.277z"/>
	<path fill="#C72C27" d="M203.479,6.352c-2.51,0.548-4.406,1.971-5.693,4.27l4.966,1.961c-2.024,2.488-3.036,5.25-3.036,8.287
		c0,1.58,0.506,3.396,1.518,5.438h-5.629V9.767l1.93,0.759l-2.372-6.768C198.133,3.758,200.906,4.623,203.479,6.352z"/>
	<path fill="#C72C27" d="M215.148,18.749l-6.008,2.467c0.547,1.16,1.506,1.74,2.877,1.74c0.674,0,1.307-0.2,1.896-0.601l0.601,0.727
		l-4.047,4.111l-7.527-3.827c1.012-1.54,1.518-3.163,1.518-4.871c0-1.369-0.475-2.825-1.423-4.364l7.78-4.111
		c1.561,1.118,2.672,2.361,3.336,3.731C214.816,15.123,215.148,16.788,215.148,18.749z M210.373,17.58
		c-0.062-1.266-0.602-2.204-1.611-2.816c-0.129,0.907-0.191,1.74-0.191,2.499c0,0.717,0.031,1.403,0.095,2.055L210.373,17.58z"/>
	<path fill="#C72C27" d="M226.344,20.141l-1.582,4.903l-7.021,1.896l-2.435-9.519c0.905,1.308,1.676,2.267,2.309,2.877
		c1.031,0.948,2.117,1.478,3.257,1.582c-0.907-2.362-2.636-4.059-5.188-5.092l1.646-4.744l8.192-2.15l0.695,8.667
		c-1.603-2.403-3.205-3.702-4.807-3.891c0.126,1.244,0.695,2.372,1.708,3.383C224.003,18.98,225.079,19.677,226.344,20.141z"/>
</g>
</svg>
