<?xml version="1.0" encoding="utf-8"?>
<!-- Generator: Adobe Illustrator 16.0.4, SVG Export Plug-In . SVG Version: 6.00 Build 0)  -->
<!DOCTYPE svg PUBLIC "-//W3C//DTD SVG 1.1//EN" "http://www.w3.org/Graphics/SVG/1.1/DTD/svg11.dtd">
<svg version="1.1" id="Layer_1" xmlns="http://www.w3.org/2000/svg" xmlns:xlink="http://www.w3.org/1999/xlink" x="0px" y="0px"
	 width="81.889px" height="35px" viewBox="0 0 81.889 35" enable-background="new 0 0 81.889 35" xml:space="preserve">
<g>
	<path fill="#C72C27" d="M17.674-94.148l-5.756,0.727c-0.083,4.176-1.497,8.635-4.238,13.378c0-3.943-0.317-8.191-0.949-12.745
		L3-92.345l3.036-5.281c-0.4-2.593-1.011-4.924-1.833-6.989l12.871-2.879v9.709c-1.813-2.002-3.795-3.247-5.945-3.732l0.442,3.131
		C14.08-97.647,16.114-96.235,17.674-94.148z"/>
	<path fill="#C72C27" d="M25.739-105.407c-2.509,0.548-4.406,1.971-5.693,4.27l4.966,1.961c-2.024,2.487-3.036,5.25-3.036,8.286
		c0,1.581,0.506,3.395,1.517,5.439h-5.628v-16.541l1.929,0.759L17.422-108C20.395-108,23.167-107.135,25.739-105.407z"/>
	<path fill="#C72C27" d="M37.536-97.025c0,3.015-0.453,5.661-1.36,7.937c-0.8,2.046-2.213,4.354-4.237,6.928l0.885-15.118
		l-0.443-0.443c-1.58,2.025-2.372,4.366-2.372,7.022c0,1.433,0.516,3.184,1.549,5.25h-5.787v-15.877l5.029,1.582l3.194-1.96
		l3.542,2.593V-97.025z"/>
	<path fill="#C72C27" d="M46.454-105.407c-2.51,0.548-4.406,1.971-5.693,4.27l4.966,1.961c-2.024,2.487-3.036,5.25-3.036,8.286
		c0,1.581,0.506,3.395,1.518,5.439H38.58v-16.541l1.929,0.759L38.137-108C41.109-108,43.881-107.135,46.454-105.407z"/>
	<path fill="#C72C27" d="M56.732-91.618l-1.581,4.903l-7.021,1.896l-2.435-9.519c0.906,1.308,1.675,2.266,2.309,2.877
		c1.032,0.948,2.118,1.477,3.257,1.582c-0.907-2.362-2.636-4.059-5.188-5.092l1.645-4.744l8.192-2.15l0.695,8.666
		c-1.602-2.403-3.205-3.701-4.807-3.89c0.126,1.244,0.695,2.372,1.708,3.383C54.392-92.778,55.467-92.081,56.732-91.618z"/>
	<path fill="#C72C27" d="M69.729-96.995c0,2.995-0.453,5.63-1.36,7.906c-0.82,2.046-2.234,4.354-4.237,6.928l0.885-15.118
		l-0.443-0.443c-1.58,1.982-2.372,4.228-2.372,6.737c0,1.75,0.528,3.594,1.582,5.535h-5.82v-18.787l5.535-3.667v7.874l2.688-1.644
		l3.541,2.562V-96.995z"/>
	<path fill="#C72C27" d="M94.113-107.59v7.655c0,7.78-1.929,13.716-5.787,17.806v-12.935c-1.202,0.083-2.203,0.496-3.005,1.233
		c-0.802,0.739-1.202,1.688-1.202,2.847c0,1.602,0.633,3.448,1.898,5.535h-6.484v-18.787l6.136-3.604v8.854l2.435,0.601v-7.685
		L94.113-107.59z"/>
	<path fill="#C72C27" d="M102.938-105.407c-2.509,0.548-4.406,1.971-5.693,4.27l4.966,1.961c-2.024,2.487-3.036,5.25-3.036,8.286
		c0,1.581,0.506,3.395,1.517,5.439h-5.628v-16.541l1.929,0.759L94.62-108C97.593-108,100.365-107.135,102.938-105.407z"/>
	<path fill="#C72C27" d="M120.584-97.018c0,3.083-0.442,5.743-1.328,7.982c-0.802,1.985-2.225,4.276-4.27,6.875l0.885-15.117
		l-0.506-0.507l-0.601,0.506c0,3.1-0.443,5.788-1.329,8.064c-0.781,2.067-2.204,4.417-4.27,7.054l0.886-15.118l-0.443-0.443
		c-1.582,1.941-2.372,4.27-2.372,6.99c0,1.604,0.526,3.364,1.582,5.282H103v-15.877l5.028,1.582l3.194-1.96l2.689,1.897l3.131-1.897
		l3.542,2.597V-97.018z"/>
	<path fill="#C72C27" d="M129.883-106.83c0,5.418-1.392,10.332-4.174,14.738l2.561,5.566c-0.443,0.443-1.192,0.664-2.246,0.664
		c-1.454,0-2.952,0.475-4.49,1.423c0.695-3.078,1.917-5.502,3.667-7.273c-0.063-6.115-1.149-11.175-3.257-15.181
		c1.308-0.38,2.614-0.569,3.921-0.569C127.322-107.462,128.66-107.251,129.883-106.83z"/>
	<path fill="#C72C27" d="M138.265-106.83c0,5.418-1.392,10.332-4.175,14.738l2.561,5.566c-0.443,0.443-1.192,0.664-2.246,0.664
		c-1.454,0-2.952,0.475-4.49,1.423c0.695-3.078,1.917-5.502,3.667-7.273c-0.063-6.115-1.149-11.175-3.257-15.181
		c1.308-0.38,2.614-0.569,3.921-0.569C135.703-107.462,137.042-107.251,138.265-106.83z"/>
	<path fill="#C72C27" d="M16.852-55.596l-1.929,6.516l-8.697,2.53L3.411-58.664c2.361,3.626,4.744,5.557,7.148,5.789
		c-0.591-1.666-1.482-3.169-2.673-4.507c-1.191-1.339-2.578-2.356-4.159-3.052l2.024-6.325l10.12-2.847l0.823,11.417
		c-1.876-3.436-3.984-5.261-6.325-5.472c0.148,1.687,0.865,3.311,2.15,4.871C13.742-57.334,15.187-56.27,16.852-55.596z"/>
	<path fill="#C72C27" d="M29.313-47.025l-4.998-1.549l-3.195,1.898l-3.574-2.53v-2.152c0-2.994,0.454-5.629,1.36-7.906
		c0.822-2.088,2.236-4.375,4.238-6.863l-0.885,15.055l0.475,0.443c1.56-1.982,2.339-4.323,2.339-7.021
		c0-1.434-0.516-3.184-1.55-5.25h5.789V-47.025z"/>
	<path fill="#C72C27" d="M42.69-60.213c0,3.079-0.528,5.656-1.582,7.733c-1.054,2.077-2.826,4.001-5.313,5.771l-5.883-2.372
		c0.76-2.615,1.139-5.893,1.139-9.836c0-0.822-0.022-2.051-0.063-3.684c-0.042-1.634-0.063-2.832-0.063-3.59l5.502-3.669v6.294
		L42.69-60.213z M37.63-55.375c0-1.434-0.528-2.709-1.582-3.826c-0.928,1.454-1.391,3.088-1.391,4.902
		c0,1.35,0.336,2.625,1.011,3.826C36.976-51.673,37.63-53.308,37.63-55.375z"/>
	<path fill="#C72C27" d="M66.124-66.254c-3.395,3.416-5.956,7.896-7.685,13.442c0.823-0.168,1.803-0.548,2.942-1.139
		c0.928-0.526,1.866-1.043,2.814-1.549l-0.443,8.951c-2.235-1.076-4.596-1.613-7.084-1.613c-2.044,0-4.512,0.4-7.401,1.201
		l9.015-14.8c-0.57-1.054-1.551-1.582-2.942-1.582c-0.802,0-1.612,0.307-2.435,0.918c-0.402,0.316-1.044,0.938-1.929,1.866
		l2.181-8.95L66.124-66.254z"/>
	<path fill="#C72C27" d="M77.066-55.058l-6.008,2.467c0.547,1.16,1.507,1.74,2.877,1.74c0.674,0,1.308-0.201,1.897-0.601
		l0.601,0.727l-4.047,4.112l-7.527-3.828c1.011-1.54,1.517-3.163,1.517-4.871c0-1.369-0.473-2.824-1.423-4.364l7.781-4.111
		c1.56,1.118,2.673,2.362,3.337,3.732S77.066-57.019,77.066-55.058z M72.291-56.228c-0.063-1.265-0.601-2.203-1.613-2.816
		c-0.127,0.908-0.191,1.74-0.191,2.5c0,0.717,0.033,1.403,0.096,2.055L72.291-56.228z"/>
	<path fill="#C72C27" d="M85.921-57.271l-2.404-1.33c-0.948,1.751-1.423,3.585-1.423,5.504c0,1.75,0.518,3.616,1.551,5.598h-5.788
		V-63.47l3.448,1.582l4.617-2.816V-57.271z"/>
	<path fill="#C72C27" d="M98.381-60.467c0,3.186-0.506,5.819-1.517,7.907c-1.055,2.172-2.847,4.164-5.377,5.977
		c-0.781-0.357-1.866-0.98-3.258-1.866c-0.485-0.421-0.917-1.349-1.296-2.783c-0.337-1.244-0.505-2.298-0.505-3.163
		c0-4.006,1.486-7.242,4.459-9.709L98.381-60.467z M93.321-55.438c0-1.307-0.516-2.53-1.549-3.669
		c-0.948,1.645-1.423,3.248-1.423,4.808c0,1.56,0.337,2.877,1.011,3.953C92.667-51.526,93.321-53.224,93.321-55.438z"/>
	<path fill="#C72C27" d="M16.852-17.643l-1.929,6.516l-8.697,2.53L3.411-20.711c2.361,3.626,4.744,5.557,7.148,5.788
		c-0.591-1.665-1.482-3.168-2.673-4.506c-1.191-1.34-2.578-2.356-4.159-3.053l2.024-6.325l10.12-2.847l0.823,11.417
		c-1.876-3.436-3.984-5.261-6.325-5.472c0.148,1.688,0.865,3.312,2.15,4.871C13.742-19.382,15.187-18.317,16.852-17.643z"/>
	<path fill="#C72C27" d="M29.755-23.02l-4.333,7.78c-0.042-2.889-0.696-4.881-1.961-5.977c-0.443,0.907-0.664,1.96-0.664,3.163
		c0,3.5,0.969,5.249,2.91,5.249c0.991,0,1.75-0.189,2.276-0.569l0.601,0.727l-4.047,4.111l-7.496-3.827
		c0.991-1.58,1.486-3.214,1.486-4.902c0-1.349-0.453-2.761-1.36-4.237l4.682-4.491L29.755-23.02z"/>
	<path fill="#C72C27" d="M41.551-22.514c0,3.185-0.506,5.819-1.518,7.906c-1.055,2.172-2.846,4.165-5.376,5.978
		c-0.781-0.358-1.866-0.98-3.259-1.866c-0.485-0.421-0.916-1.349-1.296-2.782c-0.337-1.245-0.506-2.298-0.506-3.163
		c0-4.006,1.487-7.243,4.459-9.71L41.551-22.514z M36.491-17.484c0-1.308-0.516-2.53-1.549-3.669
		c-0.948,1.644-1.423,3.248-1.423,4.807c0,1.56,0.337,2.877,1.012,3.954C35.837-13.574,36.491-15.271,36.491-17.484z"/>
	<path fill="#C72C27" d="M50.027-19.319l-2.403-1.329c-0.949,1.752-1.423,3.585-1.423,5.504c0,1.75,0.518,3.616,1.55,5.598h-5.789
		v-15.971l3.448,1.581l4.617-2.815V-19.319z"/>
	<path fill="#C72C27" d="M62.678-22.766c0,3.121-0.464,5.693-1.393,7.716c-1.012,2.215-2.709,4.186-5.091,5.914v4.333l-5.346,2.088
		v-23.594L62.678-22.766z M57.618-17.548c0-1.371-0.528-2.636-1.582-3.795c-0.928,1.371-1.391,3.058-1.391,5.06
		c0,1.391,0.335,2.625,1.012,3.7C56.964-13.763,57.618-15.418,57.618-17.548z"/>
	<path fill="#C72C27" d="M71.786-29.503c-2.509,0.548-4.406,1.971-5.693,4.27l4.966,1.961c-2.024,2.487-3.036,5.249-3.036,8.286
		c0,1.58,0.505,3.395,1.518,5.44h-5.629v-16.542l1.929,0.759l-2.372-6.767C66.442-32.096,69.214-31.231,71.786-29.503z"/>
	<path fill="#C72C27" d="M83.425-22.514c0,3.185-0.506,5.819-1.517,7.906c-1.056,2.172-2.847,4.165-5.377,5.978
		c-0.781-0.358-1.866-0.98-3.258-1.866c-0.486-0.421-0.917-1.349-1.296-2.782c-0.337-1.245-0.505-2.298-0.505-3.163
		c0-4.006,1.486-7.243,4.459-9.71L83.425-22.514z M78.365-17.484c0-1.308-0.516-2.53-1.549-3.669
		c-0.948,1.644-1.423,3.248-1.423,4.807c0,1.56,0.337,2.877,1.011,3.954C77.711-13.574,78.365-15.271,78.365-17.484z"/>
	<path fill="#C72C27" d="M95.76-21.122c0,3.015-0.454,5.661-1.36,7.938c-0.8,2.046-2.214,4.354-4.238,6.928l0.885-15.119
		l-0.442-0.443c-1.581,2.025-2.372,4.365-2.372,7.021c0,1.434,0.516,3.184,1.549,5.25h-5.787v-15.877l5.029,1.581l3.194-1.959
		l3.542,2.593V-21.122z"/>
	<path fill="#C72C27" d="M25.233,15.407c0,2.15-0.558,5.683-1.676,10.595l-5.028,3.383l-3.163-2.592l-3.732,2.592
		c-0.906-0.442-2.225-1.15-3.953-2.12c-1.117-0.739-2.077-2.481-2.877-5.228c-0.654-2.322-0.981-4.37-0.981-6.144
		c0-2.745,0.823-5.512,2.467-8.298h7.147c-2.699,3.373-4.048,7.105-4.048,11.196c0,1.75,0.379,3.595,1.139,5.534l0.854-0.758
		l3.667-20.146c2.024,4.68,3.037,8.634,3.037,11.86c0,2.361-0.38,5.175-1.139,8.443l0.569,0.697l0.98-0.854l3.701-20.146
		C24.221,8.164,25.233,12.16,25.233,15.407z"/>
	<path fill="#C72C27" d="M34.119,8.448c-2.509,0.549-4.406,1.972-5.693,4.27l4.966,1.961c-2.024,2.488-3.036,5.249-3.036,8.286
		c0,1.581,0.506,3.395,1.517,5.439h-5.629V11.864l1.929,0.76l-2.372-6.768C28.775,5.855,31.546,6.72,34.119,8.448z"/>
	<path fill="#C72C27" d="M45.916,16.83c0,3.015-0.453,5.662-1.36,7.938c-0.8,2.046-2.213,4.354-4.237,6.927l0.885-15.119
		l-0.443-0.442c-1.58,2.024-2.372,4.365-2.372,7.021c0,1.434,0.516,3.184,1.549,5.25h-5.787V12.528l5.029,1.582l3.194-1.96
		l3.542,2.593V16.83z"/>
	<path fill="#C72C27" d="M57.112,22.237l-1.582,4.903l-7.021,1.896l-2.435-9.519c0.906,1.307,1.675,2.266,2.308,2.877
		c1.032,0.949,2.119,1.476,3.257,1.582c-0.907-2.361-2.636-4.059-5.187-5.092l1.644-4.743l8.192-2.15l0.695,8.666
		c-1.602-2.404-3.205-3.701-4.806-3.891c0.126,1.245,0.695,2.372,1.707,3.384C54.771,21.078,55.847,21.774,57.112,22.237z"/>
	<path fill="#C72C27" d="M66.726,7.025c0,5.419-1.392,10.333-4.175,14.739l2.561,5.565c-0.442,0.443-1.191,0.665-2.246,0.665
		c-1.454,0-2.952,0.475-4.49,1.423c0.695-3.079,1.917-5.502,3.668-7.273c-0.063-6.115-1.149-11.175-3.258-15.182
		c1.308-0.379,2.614-0.569,3.921-0.569C64.164,6.393,65.502,6.604,66.726,7.025z"/>
	<path fill="#C72C27" d="M75.107,7.025c0,5.419-1.392,10.333-4.174,14.739l2.561,5.565c-0.442,0.443-1.191,0.665-2.246,0.665
		c-1.454,0-2.952,0.475-4.49,1.423c0.695-3.079,1.917-5.502,3.668-7.273c-0.063-6.115-1.149-11.175-3.258-15.182
		c1.308-0.379,2.614-0.569,3.921-0.569C72.545,6.393,73.884,6.604,75.107,7.025z"/>
	<path fill="#C72C27" d="M20.679,44.914l-4.144,7.242c-1.074-0.568-2.488-0.948-4.237-1.139c-0.126,0.992-0.189,2.32-0.189,3.985
		c0,3.626,0.748,7.127,2.246,10.5c-1.476,0-2.784,0.168-3.922,0.505c-0.653,0.19-1.887,0.665-3.7,1.423
		c0-4.975,0.654-10.457,1.961-16.444c-1.708,0.042-3.522,0.357-5.44,0.948l0.569-6.421L20.679,44.914z"/>
	<path fill="#C72C27" d="M27.922,46.399c-2.51,0.549-4.407,1.972-5.693,4.27l4.966,1.961c-2.024,2.488-3.036,5.249-3.036,8.286
		c0,1.581,0.506,3.395,1.517,5.44h-5.628V49.815l1.929,0.76l-2.372-6.768C22.578,43.807,25.349,44.671,27.922,46.399z"/>
	<path fill="#C72C27" d="M40.13,52.883l-4.333,7.78c-0.043-2.889-0.696-4.881-1.961-5.978c-0.442,0.907-0.664,1.961-0.664,3.163
		c0,3.5,0.969,5.249,2.91,5.249c0.991,0,1.75-0.189,2.277-0.569l0.601,0.728l-4.047,4.111l-7.496-3.827
		c0.991-1.581,1.486-3.215,1.486-4.901c0-1.349-0.453-2.762-1.36-4.238l4.682-4.491L40.13,52.883z"/>
	<path fill="#C72C27" d="M64.862,44.914l-4.144,7.242c-1.075-0.568-2.488-0.948-4.238-1.139c-0.126,0.992-0.189,2.32-0.189,3.985
		c0,3.626,0.748,7.127,2.246,10.5c-1.477,0-2.784,0.168-3.923,0.505c-0.653,0.19-1.887,0.665-3.699,1.423
		c0-4.975,0.653-10.457,1.961-16.444c-1.708,0.042-3.522,0.357-5.439,0.948l0.568-6.421L64.862,44.914z"/>
	<path fill="#C72C27" d="M76.056,53.99c-0.991,1.581-1.486,3.226-1.486,4.934c0,1.328,0.475,2.763,1.423,4.302l-7.781,4.142
		c-2.889-2.107-4.333-5.017-4.333-8.729l6.01-2.467c-0.548-1.159-1.518-1.74-2.91-1.74c-0.675,0-1.287,0.19-1.835,0.57l-0.601-0.727
		l4.018-4.08L76.056,53.99z M70.458,60.095c0-0.696-0.031-1.37-0.095-2.024l-1.708,1.708c0.042,1.265,0.57,2.203,1.582,2.814
		C70.385,61.687,70.458,60.853,70.458,60.095z"/>
	<path fill="#C72C27" d="M88.675,52.883l-4.333,7.78c-0.042-2.889-0.696-4.881-1.961-5.978c-0.442,0.907-0.664,1.961-0.664,3.163
		c0,3.5,0.969,5.249,2.91,5.249c0.991,0,1.75-0.189,2.276-0.569l0.601,0.728l-4.047,4.111l-7.496-3.827
		c0.991-1.581,1.486-3.215,1.486-4.901c0-1.349-0.453-2.762-1.36-4.238l4.682-4.491L88.675,52.883z"/>
	<path fill="#C72C27" d="M110.402,57.659l-5.756,0.727c-0.083,4.176-1.497,8.635-4.238,13.378c0-3.943-0.317-8.191-0.949-12.745
		l-3.732,0.443l3.036-5.281c-0.4-2.593-1.012-4.924-1.833-6.99l12.871-2.878v9.709c-1.813-2.002-3.795-3.247-5.946-3.732
		l0.443,3.131C106.807,54.16,108.842,55.571,110.402,57.659z"/>
	<path fill="#C72C27" d="M122.42,53.99c-0.991,1.581-1.487,3.226-1.487,4.934c0,1.328,0.475,2.763,1.423,4.302l-7.78,4.142
		c-2.889-2.107-4.333-5.017-4.333-8.729l6.01-2.467c-0.548-1.159-1.519-1.74-2.91-1.74c-0.675,0-1.287,0.19-1.835,0.57l-0.601-0.727
		l4.018-4.08L122.42,53.99z M116.822,60.095c0-0.696-0.031-1.37-0.095-2.024l-1.708,1.708c0.042,1.265,0.57,2.203,1.581,2.814
		C116.749,61.687,116.822,60.853,116.822,60.095z"/>
	<path fill="#C72C27" d="M133.332,53.326c-1.308,1.119-2.257,2.246-2.847,3.385c-0.654,1.244-0.981,2.678-0.981,4.301
		c0,1.75,0.538,3.533,1.613,5.346h-5.85V55.699l-3.164-1.36l7.654-7.748l0.285,5.186L133.332,53.326z"/>
	<path fill="#C72C27" d="M145.001,53.99c-0.991,1.581-1.486,3.226-1.486,4.934c0,1.328,0.475,2.763,1.423,4.302l-7.781,4.142
		c-2.889-2.107-4.333-5.017-4.333-8.729l6.01-2.467c-0.548-1.159-1.518-1.74-2.909-1.74c-0.676,0-1.287,0.19-1.835,0.57
		l-0.601-0.727l4.018-4.08L145.001,53.99z M139.402,60.095c0-0.696-0.031-1.37-0.095-2.024l-1.708,1.708
		c0.042,1.265,0.57,2.203,1.582,2.814C139.329,61.687,139.402,60.853,139.402,60.095z"/>
	<path fill="#C72C27" d="M151.389,43.902c0,8.561-0.949,16.045-2.846,22.455h-2.656V47.569L151.389,43.902z"/>
	<path fill="#C72C27" d="M159.454,46.399c-2.509,0.549-4.406,1.972-5.693,4.27l4.966,1.961c-2.024,2.488-3.036,5.249-3.036,8.286
		c0,1.581,0.506,3.395,1.517,5.44h-5.628V49.815l1.929,0.76l-2.372-6.768C154.109,43.807,156.881,44.671,159.454,46.399z"/>
	<path fill="#C72C27" d="M169.955,53.326c-1.308,1.119-2.257,2.246-2.847,3.385c-0.653,1.244-0.98,2.678-0.98,4.301
		c0,1.75,0.538,3.533,1.612,5.346h-5.85V55.699l-3.163-1.36l7.654-7.748l0.285,5.186L169.955,53.326z"/>
	<path fill="#C72C27" d="M177.671,46.399c-2.51,0.549-4.406,1.972-5.693,4.27l4.966,1.961c-2.024,2.488-3.036,5.249-3.036,8.286
		c0,1.581,0.506,3.395,1.518,5.44h-5.629V49.815l1.929,0.76l-2.372-6.768C172.326,43.807,175.098,44.671,177.671,46.399z"/>
	<path fill="#C72C27" d="M189.341,58.797l-6.008,2.467c0.547,1.159,1.507,1.74,2.877,1.74c0.675,0,1.308-0.201,1.897-0.601
		l0.601,0.727l-4.047,4.112l-7.527-3.827c1.012-1.539,1.518-3.163,1.518-4.871c0-1.369-0.474-2.825-1.423-4.363l7.78-4.112
		c1.56,1.118,2.673,2.361,3.337,3.732C189.009,55.171,189.341,56.837,189.341,58.797z M184.566,57.627
		c-0.063-1.265-0.601-2.203-1.613-2.815c-0.127,0.907-0.19,1.74-0.19,2.499c0,0.717,0.032,1.403,0.095,2.055L184.566,57.627z"/>
	<path fill="#C72C27" d="M200.537,60.189l-1.581,4.903l-7.021,1.897L189.5,57.47c0.906,1.307,1.676,2.266,2.309,2.877
		c1.032,0.948,2.118,1.476,3.257,1.582c-0.907-2.361-2.636-4.059-5.188-5.092l1.645-4.744l8.192-2.15l0.695,8.666
		c-1.602-2.403-3.204-3.701-4.806-3.89c0.126,1.245,0.695,2.372,1.708,3.383C198.196,59.029,199.272,59.726,200.537,60.189z"/>
	<path fill="#C72C27" d="M20.679,82.865l-4.144,7.242c-1.074-0.569-2.488-0.948-4.237-1.139c-0.126,0.992-0.189,2.32-0.189,3.985
		c0,3.626,0.748,7.126,2.246,10.5c-1.476,0-2.784,0.168-3.922,0.506c-0.653,0.191-1.887,0.664-3.7,1.423
		c0-4.975,0.654-10.458,1.961-16.445c-1.708,0.042-3.522,0.358-5.44,0.948l0.569-6.42L20.679,82.865z"/>
	<path fill="#C72C27" d="M27.922,84.352c-2.51,0.548-4.407,1.971-5.693,4.27l4.966,1.961c-2.024,2.488-3.036,5.25-3.036,8.287
		c0,1.58,0.506,3.395,1.517,5.439h-5.628V87.767l1.929,0.759l-2.372-6.768C22.578,81.758,25.349,82.623,27.922,84.352z"/>
	<path fill="#C72C27" d="M40.13,90.834l-4.333,7.78c-0.043-2.889-0.696-4.881-1.961-5.978c-0.442,0.907-0.664,1.961-0.664,3.164
		c0,3.5,0.969,5.249,2.91,5.249c0.991,0,1.75-0.188,2.277-0.568l0.601,0.727l-4.047,4.111l-7.496-3.827
		c0.991-1.581,1.486-3.215,1.486-4.902c0-1.349-0.453-2.762-1.36-4.237l4.682-4.492L40.13,90.834z"/>
	<path fill="#C72C27" d="M64.862,82.865l-4.144,7.242c-1.075-0.569-2.488-0.948-4.238-1.139c-0.126,0.992-0.189,2.32-0.189,3.985
		c0,3.626,0.748,7.126,2.246,10.5c-1.477,0-2.784,0.168-3.923,0.506c-0.653,0.191-1.887,0.664-3.699,1.423
		c0-4.975,0.653-10.458,1.961-16.445c-1.708,0.042-3.522,0.358-5.439,0.948l0.568-6.42L64.862,82.865z"/>
	<path fill="#C72C27" d="M75.898,92.764c0,2.995-0.454,5.63-1.36,7.906c-0.821,2.046-2.234,4.354-4.238,6.927l0.885-15.118
		l-0.442-0.443c-1.58,1.982-2.372,4.228-2.372,6.737c0,1.75,0.527,3.594,1.581,5.535h-5.819V85.521l5.535-3.667v7.874l2.688-1.644
		l3.542,2.562V92.764z"/>
	<path fill="#C72C27" d="M88.959,91.941c-0.991,1.581-1.486,3.226-1.486,4.934c0,1.329,0.475,2.763,1.423,4.302l-7.78,4.142
		c-2.889-2.107-4.333-5.017-4.333-8.729l6.01-2.467c-0.548-1.16-1.519-1.74-2.91-1.74c-0.676,0-1.287,0.19-1.835,0.57l-0.601-0.727
		l4.018-4.081L88.959,91.941z M83.362,98.046c0-0.696-0.031-1.37-0.095-2.024l-1.708,1.708c0.042,1.266,0.57,2.203,1.582,2.814
		C83.289,99.638,83.362,98.804,83.362,98.046z"/>
	<path fill="#C72C27" d="M101.579,90.834l-4.333,7.78c-0.042-2.889-0.696-4.881-1.961-5.978c-0.443,0.907-0.665,1.961-0.665,3.164
		c0,3.5,0.97,5.249,2.91,5.249c0.991,0,1.75-0.188,2.276-0.568l0.601,0.727l-4.047,4.111l-7.496-3.827
		c0.991-1.581,1.486-3.215,1.486-4.902c0-1.349-0.454-2.762-1.36-4.237l4.681-4.492L101.579,90.834z"/>
	<path fill="#C72C27" d="M113.533,92.764c0,2.995-0.453,5.63-1.36,7.906c-0.821,2.046-2.234,4.354-4.238,6.927l0.885-15.118
		l-0.442-0.443c-1.58,1.982-2.372,4.228-2.372,6.737c0,1.75,0.527,3.594,1.581,5.535h-5.819V85.521l5.535-3.667v7.874l2.688-1.644
		l3.542,2.562V92.764z"/>
	<path fill="#C72C27" d="M136.208,95.61l-5.756,0.727c-0.083,4.176-1.496,8.635-4.237,13.378c0-3.943-0.316-8.191-0.948-12.745
		l-3.732,0.442l3.036-5.281c-0.4-2.593-1.012-4.924-1.834-6.989l12.871-2.879v9.709c-1.813-2.002-3.795-3.247-5.945-3.732
		l0.442,3.131C132.615,92.111,134.649,93.522,136.208,95.61z"/>
	<path fill="#C72C27" d="M148.227,91.941c-0.991,1.581-1.486,3.226-1.486,4.934c0,1.329,0.475,2.763,1.423,4.302l-7.781,4.142
		c-2.889-2.107-4.333-5.017-4.333-8.729l6.009-2.467c-0.548-1.16-1.519-1.74-2.909-1.74c-0.676,0-1.287,0.19-1.835,0.57
		l-0.601-0.727l4.018-4.081L148.227,91.941z M142.629,98.046c0-0.696-0.031-1.37-0.096-2.024l-1.708,1.708
		c0.043,1.266,0.57,2.203,1.582,2.814C142.556,99.638,142.629,98.804,142.629,98.046z"/>
	<path fill="#C72C27" d="M159.138,91.277c-1.307,1.118-2.257,2.245-2.846,3.385c-0.654,1.244-0.981,2.678-0.981,4.3
		c0,1.75,0.538,3.533,1.613,5.346h-5.85V93.65l-3.163-1.36l7.654-7.748l0.285,5.186L159.138,91.277z"/>
	<path fill="#C72C27" d="M170.808,91.941c-0.991,1.581-1.486,3.226-1.486,4.934c0,1.329,0.475,2.763,1.423,4.302l-7.78,4.142
		c-2.889-2.107-4.333-5.017-4.333-8.729l6.01-2.467c-0.548-1.16-1.519-1.74-2.91-1.74c-0.675,0-1.287,0.19-1.835,0.57l-0.601-0.727
		l4.018-4.081L170.808,91.941z M165.21,98.046c0-0.696-0.031-1.37-0.095-2.024l-1.708,1.708c0.042,1.266,0.57,2.203,1.582,2.814
		C165.137,99.638,165.21,98.804,165.21,98.046z"/>
	<path fill="#C72C27" d="M177.196,81.854c0,8.56-0.948,16.044-2.847,22.455h-2.656V85.521L177.196,81.854z"/>
	<path fill="#C72C27" d="M185.261,84.352c-2.509,0.548-4.406,1.971-5.693,4.27l4.966,1.961c-2.024,2.488-3.036,5.25-3.036,8.287
		c0,1.58,0.506,3.395,1.517,5.439h-5.629V87.767l1.929,0.759l-2.372-6.768C179.917,81.758,182.688,82.623,185.261,84.352z"/>
	<path fill="#C72C27" d="M195.762,91.277c-1.308,1.118-2.257,2.245-2.847,3.385c-0.654,1.244-0.98,2.678-0.98,4.3
		c0,1.75,0.538,3.533,1.612,5.346h-5.85V93.65l-3.163-1.36l7.654-7.748l0.284,5.186L195.762,91.277z"/>
	<path fill="#C72C27" d="M203.478,84.352c-2.509,0.548-4.406,1.971-5.693,4.27l4.966,1.961c-2.024,2.488-3.036,5.25-3.036,8.287
		c0,1.58,0.506,3.395,1.517,5.439h-5.628V87.767l1.929,0.759l-2.372-6.768C198.133,81.758,200.906,82.623,203.478,84.352z"/>
	<path fill="#C72C27" d="M215.148,96.749l-6.008,2.467c0.547,1.16,1.507,1.74,2.877,1.74c0.674,0,1.307-0.2,1.896-0.601l0.601,0.727
		l-4.047,4.111l-7.527-3.827c1.011-1.54,1.517-3.163,1.517-4.871c0-1.369-0.474-2.825-1.423-4.364l7.781-4.111
		c1.56,1.118,2.672,2.361,3.336,3.731C214.817,93.123,215.148,94.788,215.148,96.749z M210.373,95.58
		c-0.063-1.266-0.601-2.204-1.612-2.816c-0.128,0.907-0.191,1.74-0.191,2.499c0,0.717,0.032,1.403,0.095,2.055L210.373,95.58z"/>
	<path fill="#C72C27" d="M226.344,98.141l-1.582,4.903l-7.021,1.896l-2.435-9.519c0.906,1.307,1.676,2.266,2.309,2.877
		c1.032,0.948,2.118,1.477,3.257,1.582c-0.907-2.362-2.635-4.059-5.188-5.092l1.645-4.744l8.193-2.15l0.695,8.666
		c-1.603-2.403-3.205-3.701-4.807-3.89c0.126,1.244,0.695,2.372,1.708,3.383C224.003,96.98,225.079,97.677,226.344,98.141z"/>
	<path fill="#C72C27" d="M18.687,126.478c0,3.837-0.581,7.369-1.74,10.595c-1.034,2.889-2.731,6.051-5.092,9.488l1.044-20.494
		l-0.665-0.759c-1.939,2.719-2.91,6.02-2.91,9.899c0,2.045,0.602,4.396,1.803,7.053H4.423v-21.506l5.946,2.119l3.827-2.657
		l4.491,3.448V126.478z"/>
	<path fill="#C72C27" d="M30.452,134.7l-6.008,2.467c0.547,1.16,1.506,1.74,2.877,1.74c0.674,0,1.307-0.201,1.896-0.601l0.601,0.727
		l-4.047,4.112l-7.527-3.827c1.012-1.54,1.517-3.163,1.517-4.871c0-1.369-0.473-2.824-1.423-4.364l7.78-4.111
		c1.561,1.118,2.673,2.361,3.337,3.732C30.119,131.074,30.452,132.739,30.452,134.7z M25.676,133.531
		c-0.063-1.265-0.601-2.203-1.612-2.816c-0.128,0.908-0.191,1.74-0.191,2.5c0,0.717,0.032,1.403,0.095,2.055L25.676,133.531z"/>
	<path fill="#C72C27" d="M48.921,133.119c0,1.581-0.475,4.111-1.423,7.59l-4.112,2.467l-2.625-1.866l-3.131,1.866
		c-0.758-0.316-1.854-0.834-3.288-1.552c-0.97-0.549-1.782-1.827-2.436-3.834c-0.549-1.689-0.823-3.242-0.823-4.657
		c0-2.071,0.696-4.152,2.087-6.243h6.325c-2.34,2.678-3.511,5.482-3.511,8.412c0,1.223,0.307,2.52,0.918,3.891l0.601-0.507
		l3.1-14.99c1.665,3.401,2.498,6.401,2.498,9c0,1.733-0.306,3.782-0.917,6.148l0.412,0.443l0.727-0.6l3.101-14.991
		C48.088,127.153,48.921,130.294,48.921,133.119z"/>
	<path fill="#C72C27" d="M73.337,130.114c-1.582,2.489-2.372,4.586-2.372,6.294c0,0.78,0.379,1.803,1.138,3.068
		c-1.033,1.012-2.288,1.803-3.763,2.372c-0.633,0.253-2.066,0.674-4.302,1.265l-7.052-4.775c1.16-2.151,1.74-4.333,1.74-6.546
		c0-1.813-0.55-3.669-1.645-5.566l5.503-5.947l9.74,3.922l-4.901,7.401c-0.042-3.205-0.971-5.208-2.784-6.009
		c-0.674,1.413-1.012,3.142-1.012,5.187c0,2.93,0.496,5.439,1.486,7.527c0.612-0.886,0.918-1.994,0.918-3.322
		c0-0.485-0.506-1.286-1.519-2.404L73.337,130.114z"/>
	<path fill="#C72C27" d="M85.354,129.893c-0.991,1.582-1.486,3.227-1.486,4.934c0,1.329,0.475,2.763,1.423,4.303l-7.78,4.142
		c-2.889-2.108-4.333-5.018-4.333-8.729l6.01-2.467c-0.548-1.159-1.519-1.74-2.91-1.74c-0.675,0-1.287,0.19-1.835,0.57l-0.601-0.727
		l4.018-4.081L85.354,129.893z M79.756,135.998c0-0.696-0.031-1.371-0.096-2.024l-1.707,1.707c0.042,1.266,0.57,2.203,1.581,2.815
		C79.683,137.589,79.756,136.755,79.756,135.998z"/>
	<path fill="#C72C27" d="M103.413,130.692c0,3.083-0.443,5.743-1.328,7.982c-0.802,1.986-2.225,4.276-4.27,6.875l0.885-15.117
		l-0.505-0.507l-0.601,0.505c0,3.1-0.443,5.788-1.328,8.065c-0.781,2.066-2.204,4.417-4.27,7.053l0.885-15.118l-0.442-0.442
		c-1.582,1.94-2.372,4.27-2.372,6.989c0,1.604,0.526,3.364,1.582,5.282h-5.819v-15.877l5.028,1.582l3.194-1.96l2.688,1.896
		l3.131-1.896l3.543,2.597V130.692z"/>
	<path fill="#C72C27" d="M115.968,134.7l-6.008,2.467c0.547,1.16,1.507,1.74,2.877,1.74c0.674,0,1.307-0.201,1.896-0.601
		l0.601,0.727l-4.047,4.112l-7.527-3.827c1.012-1.54,1.517-3.163,1.517-4.871c0-1.369-0.473-2.824-1.423-4.364l7.781-4.111
		c1.56,1.118,2.673,2.361,3.337,3.732C115.637,131.074,115.968,132.739,115.968,134.7z M111.193,133.531
		c-0.063-1.265-0.601-2.203-1.612-2.816c-0.128,0.908-0.191,1.74-0.191,2.5c0,0.717,0.032,1.403,0.095,2.055L111.193,133.531z"/>
	<path fill="#C72C27" d="M17.643,162.722c0.021,1.856-0.158,3.299-0.538,4.333c-0.442,1.287-1.297,2.424-2.562,3.416
		c1.16,1.455,1.919,3.405,2.278,5.852c0.189,1.37,0.284,3.499,0.284,6.388l-8.57-11.133c0,0.128,0,0.264,0,0.412
		c0,1.708,0.189,3.321,0.569,4.839c0.317,1.222,0.875,2.741,1.677,4.554l-6.579-2.751v-17.711l6.229-2.782L17.643,162.722z
		 M12.139,166.359l-1.833-2.688c-0.908,1.961-1.466,4.06-1.677,6.294L12.139,166.359z"/>
	<path fill="#C72C27" d="M31.051,167.245c0,3.185-0.505,5.819-1.518,7.906c-1.055,2.172-2.846,4.165-5.376,5.978
		c-0.782-0.358-1.866-0.981-3.259-1.866c-0.485-0.42-0.916-1.348-1.296-2.782c-0.337-1.245-0.506-2.298-0.506-3.163
		c0-4.006,1.486-7.243,4.459-9.71L31.051,167.245z M25.991,172.273c0-1.308-0.516-2.53-1.549-3.668
		c-0.949,1.644-1.423,3.248-1.423,4.807s0.337,2.877,1.012,3.954C25.337,176.184,25.991,174.487,25.991,172.273z"/>
	<path fill="#C72C27" d="M43.355,180.686l-4.997-1.549l-3.195,1.898l-3.574-2.53v-2.152c0-2.993,0.455-5.628,1.36-7.906
		c0.823-2.087,2.235-4.375,4.238-6.863l-0.886,15.055l0.475,0.442c1.56-1.981,2.34-4.322,2.34-7.021c0-1.434-0.516-3.184-1.549-5.25
		h5.788V180.686z"/>
	<path fill="#C72C27" d="M56.258,168.637c0,3.015-0.454,5.661-1.36,7.938c-0.8,2.046-2.214,4.354-4.238,6.927l0.886-15.118
		l-0.442-0.443c-1.581,2.024-2.373,4.365-2.373,7.021c0,1.433,0.517,3.184,1.55,5.25h-5.787v-15.877l5.029,1.581l3.195-1.959
		l3.542,2.593V168.637z"/>
	<path fill="#C72C27" d="M69.192,162.09c0,3.395-0.236,6.325-0.711,8.792c-0.474,2.467-1.355,5.292-2.641,8.476l-4.049,1.833
		c-1.433-0.928-2.587-2.133-3.463-3.62c-0.875-1.488-1.311-3.053-1.311-4.698c0-1.285,0.126-2.856,0.378-4.712
		c0.211-1.56,0.432-3.12,0.666-4.681l5.628,2.814v-4.871l5.503-3.668V162.09z M64.037,171.989c0-0.801-0.083-1.697-0.252-2.688
		l-2.784,0.284c0.083,2.678,0.896,5.04,2.435,7.085C63.836,175.067,64.037,173.508,64.037,171.989z"/>
	<path fill="#C72C27" d="M92.091,163.006c0,4.112-0.581,7.539-1.74,10.279c-1.287,3.058-3.448,5.778-6.484,8.16
		c-0.653-0.4-1.307-0.79-1.961-1.169c-0.802-0.465-1.413-0.896-1.834-1.297c-0.57-0.526-1.086-1.771-1.551-3.732
		c-0.4-1.687-0.599-3.068-0.599-4.143c0-5.397,1.749-9.73,5.249-12.999L92.091,163.006z M86.176,169.648
		c0-1.959-0.653-3.679-1.961-5.155c-1.16,1.919-1.74,4.165-1.74,6.737c0,2.13,0.412,3.954,1.234,5.472
		C85.354,175.015,86.176,172.663,86.176,169.648z"/>
	<path fill="#C72C27" d="M104.708,168.637c0,3.015-0.453,5.661-1.36,7.938c-0.8,2.046-2.213,4.354-4.237,6.927l0.885-15.118
		l-0.443-0.443c-1.581,2.024-2.372,4.365-2.372,7.021c0,1.433,0.516,3.184,1.549,5.25h-5.787v-15.877l5.029,1.581l3.194-1.959
		l3.542,2.593V168.637z"/>
	<path fill="#C72C27" d="M117.295,172.653l-6.008,2.467c0.547,1.16,1.507,1.74,2.877,1.74c0.674,0,1.307-0.201,1.896-0.601
		l0.601,0.728l-4.047,4.111l-7.527-3.827c1.011-1.539,1.517-3.163,1.517-4.871c0-1.369-0.474-2.825-1.423-4.364l7.781-4.112
		c1.56,1.119,2.672,2.362,3.336,3.732C116.964,169.027,117.295,170.692,117.295,172.653z M112.52,171.483
		c-0.063-1.265-0.601-2.203-1.612-2.815c-0.128,0.907-0.191,1.74-0.191,2.499c0,0.716,0.032,1.402,0.095,2.055L112.52,171.483z"/>
	<path fill="#C72C27" d="M126.625,158.832c0,5.419-1.393,10.333-4.175,14.739l2.561,5.565c-0.442,0.443-1.191,0.664-2.246,0.664
		c-1.454,0-2.952,0.475-4.49,1.423c0.695-3.078,1.917-5.503,3.668-7.273c-0.063-6.115-1.149-11.175-3.257-15.181
		c1.308-0.38,2.614-0.569,3.921-0.569C124.063,158.2,125.401,158.411,126.625,158.832z"/>
	<path fill="#C72C27" d="M17.643,200.674c0.021,1.855-0.158,3.299-0.538,4.333c-0.442,1.286-1.297,2.424-2.562,3.415
		c1.16,1.455,1.919,3.405,2.278,5.852c0.189,1.371,0.284,3.499,0.284,6.388l-8.57-11.133c0,0.127,0,0.264,0,0.412
		c0,1.708,0.189,3.32,0.569,4.838c0.317,1.223,0.875,2.741,1.677,4.555l-6.579-2.751v-17.711l6.229-2.782L17.643,200.674z
		 M12.139,204.311l-1.833-2.688c-0.908,1.961-1.466,4.06-1.677,6.294L12.139,204.311z"/>
	<path fill="#C72C27" d="M31.051,205.196c0,3.185-0.505,5.819-1.518,7.907c-1.055,2.172-2.846,4.164-5.376,5.977
		c-0.782-0.358-1.866-0.98-3.259-1.866c-0.485-0.421-0.916-1.349-1.296-2.782c-0.337-1.245-0.506-2.298-0.506-3.163
		c0-4.006,1.486-7.243,4.459-9.71L31.051,205.196z M25.991,210.225c0-1.308-0.516-2.53-1.549-3.669
		c-0.949,1.645-1.423,3.248-1.423,4.808c0,1.56,0.337,2.877,1.012,3.953C25.337,214.135,25.991,212.438,25.991,210.225z"/>
	<path fill="#C72C27" d="M43.355,218.637l-4.997-1.55l-3.195,1.898l-3.574-2.53v-2.151c0-2.994,0.455-5.629,1.36-7.907
		c0.823-2.087,2.235-4.374,4.238-6.862l-0.886,15.055l0.475,0.442c1.56-1.981,2.34-4.322,2.34-7.021c0-1.433-0.516-3.184-1.549-5.25
		h5.788V218.637z"/>
	<path fill="#C72C27" d="M56.258,206.588c0,3.015-0.454,5.662-1.36,7.938c-0.8,2.046-2.214,4.354-4.238,6.928l0.886-15.119
		l-0.442-0.442c-1.581,2.024-2.373,4.365-2.373,7.021c0,1.434,0.517,3.184,1.55,5.25h-5.787v-15.877l5.029,1.581l3.195-1.959
		l3.542,2.593V206.588z"/>
	<path fill="#C72C27" d="M69.192,200.042c0,3.395-0.236,6.325-0.711,8.792c-0.474,2.467-1.355,5.292-2.641,8.475l-4.049,1.833
		c-1.433-0.928-2.587-2.133-3.463-3.62c-0.875-1.487-1.311-3.052-1.311-4.697c0-1.286,0.126-2.857,0.378-4.713
		c0.211-1.56,0.432-3.119,0.666-4.681l5.628,2.815v-4.871l5.503-3.667V200.042z M64.037,209.94c0-0.802-0.083-1.697-0.252-2.688
		l-2.784,0.285c0.083,2.678,0.896,5.04,2.435,7.084C63.836,213.019,64.037,211.459,64.037,209.94z"/>
	<path fill="#C72C27" d="M94.747,196.72l-4.144,7.243c-1.075-0.569-2.488-0.948-4.238-1.139c-0.126,0.992-0.189,2.32-0.189,3.985
		c0,3.626,0.748,7.126,2.246,10.5c-1.477,0-2.784,0.168-3.923,0.506c-0.653,0.19-1.887,0.664-3.699,1.423
		c0-4.975,0.653-10.458,1.96-16.445c-1.707,0.042-3.522,0.358-5.439,0.949l0.568-6.42L94.747,196.72z"/>
	<path fill="#C72C27" d="M111.541,209.023c0,1.581-0.475,4.111-1.423,7.59l-4.111,2.466l-2.625-1.866l-3.131,1.866
		c-0.758-0.316-1.854-0.834-3.288-1.552c-0.97-0.55-1.782-1.827-2.436-3.835c-0.548-1.689-0.822-3.241-0.822-4.657
		c0-2.071,0.696-4.152,2.087-6.243h6.325c-2.339,2.678-3.511,5.482-3.511,8.413c0,1.223,0.307,2.52,0.917,3.89l0.601-0.507
		l3.1-14.99c1.666,3.401,2.498,6.401,2.498,9c0,1.733-0.307,3.782-0.917,6.148l0.412,0.443l0.728-0.6l3.1-14.991
		C110.708,203.057,111.541,206.198,111.541,209.023z"/>
	<path fill="#C72C27" d="M123.906,205.196c0,3.185-0.506,5.819-1.517,7.907c-1.056,2.172-2.847,4.164-5.377,5.977
		c-0.781-0.358-1.866-0.98-3.259-1.866c-0.485-0.421-0.916-1.349-1.295-2.782c-0.337-1.245-0.505-2.298-0.505-3.163
		c0-4.006,1.486-7.243,4.458-9.71L123.906,205.196z M118.846,210.225c0-1.308-0.516-2.53-1.549-3.669
		c-0.949,1.645-1.423,3.248-1.423,4.808c0,1.56,0.337,2.877,1.011,3.953C118.192,214.135,118.846,212.438,118.846,210.225z"/>
	<path fill="#C72C27" d="M132.857,196.783c0,5.419-1.392,10.333-4.174,14.739l2.561,5.565c-0.442,0.443-1.191,0.665-2.246,0.665
		c-1.454,0-2.952,0.475-4.49,1.423c0.695-3.079,1.917-5.503,3.668-7.273c-0.063-6.115-1.149-11.175-3.258-15.182
		c1.308-0.379,2.614-0.569,3.921-0.569C130.295,196.151,131.634,196.362,132.857,196.783z"/>
	<path fill="#C72C27" d="M16.22,246.816c-0.844,3.774-1.845,6.875-3.004,9.299H3.632v-19.673l7.433-2.53
		c-0.57,6.684-1.624,12.494-3.163,17.427C11.465,250.665,14.238,249.157,16.22,246.816z"/>
	<path fill="#C72C27" d="M28.301,243.749c-0.991,1.581-1.486,3.226-1.486,4.934c0,1.328,0.475,2.763,1.423,4.302l-7.781,4.142
		c-2.889-2.108-4.333-5.018-4.333-8.729l6.009-2.467c-0.548-1.159-1.518-1.74-2.909-1.74c-0.676,0-1.287,0.19-1.835,0.57
		l-0.601-0.727l4.018-4.081L28.301,243.749z M22.704,249.853c0-0.696-0.031-1.371-0.096-2.024l-1.708,1.708
		c0.043,1.265,0.571,2.203,1.582,2.814C22.63,251.445,22.704,250.611,22.704,249.853z"/>
	<path fill="#C72C27" d="M38.991,249.947l-1.582,4.903l-7.021,1.897l-2.435-9.519c0.906,1.307,1.676,2.266,2.309,2.877
		c1.032,0.948,2.118,1.476,3.257,1.582c-0.907-2.361-2.636-4.059-5.188-5.093l1.645-4.743l8.192-2.15l0.695,8.666
		c-1.603-2.404-3.205-3.701-4.807-3.89c0.126,1.244,0.695,2.372,1.708,3.383C36.65,248.788,37.727,249.483,38.991,249.947z"/>
	<path fill="#C72C27" d="M50.693,243.084c-1.307,1.118-2.257,2.246-2.847,3.385c-0.654,1.244-0.98,2.678-0.98,4.301
		c0,1.75,0.538,3.532,1.613,5.346h-5.851v-10.658l-3.163-1.36l7.654-7.748l0.284,5.186L50.693,243.084z"/>
	<path fill="#C72C27" d="M71.946,238.625c0.021,1.856-0.158,3.3-0.538,4.333c-0.442,1.287-1.297,2.425-2.562,3.416
		c1.16,1.456,1.918,3.405,2.277,5.851c0.189,1.371,0.285,3.499,0.285,6.388l-8.57-11.132c0,0.127,0,0.263,0,0.411
		c0,1.708,0.189,3.32,0.569,4.839c0.316,1.223,0.875,2.741,1.677,4.555l-6.579-2.752v-17.711l6.229-2.782L71.946,238.625z
		 M66.442,242.262l-1.834-2.688c-0.907,1.961-1.466,4.06-1.677,6.294L66.442,242.262z"/>
	<path fill="#C72C27" d="M85.355,243.147c0,3.185-0.506,5.82-1.517,7.907c-1.055,2.172-2.847,4.165-5.376,5.978
		c-0.781-0.358-1.866-0.981-3.259-1.866c-0.485-0.421-0.917-1.349-1.296-2.782c-0.337-1.245-0.506-2.299-0.506-3.163
		c0-4.006,1.487-7.243,4.459-9.71L85.355,243.147z M80.295,248.176c0-1.307-0.516-2.53-1.549-3.669
		c-0.948,1.645-1.423,3.248-1.423,4.808c0,1.56,0.337,2.878,1.011,3.954C79.642,252.087,80.295,250.39,80.295,248.176z"/>
	<path fill="#C72C27" d="M97.659,256.588l-4.998-1.549l-3.195,1.897l-3.574-2.529v-2.152c0-2.993,0.454-5.629,1.36-7.907
		c0.822-2.087,2.236-4.374,4.238-6.863l-0.885,15.055l0.475,0.443c1.56-1.982,2.339-4.323,2.339-7.022
		c0-1.433-0.516-3.184-1.549-5.25h5.789V256.588z"/>
	<path fill="#C72C27" d="M110.561,244.539c0,3.016-0.453,5.662-1.36,7.938c-0.8,2.046-2.213,4.354-4.238,6.927l0.885-15.119
		l-0.442-0.442c-1.58,2.024-2.372,4.365-2.372,7.021c0,1.434,0.516,3.184,1.549,5.251h-5.787v-15.878l5.029,1.582l3.194-1.96
		l3.541,2.593V244.539z"/>
	<path fill="#C72C27" d="M123.496,237.993c0,3.395-0.237,6.325-0.712,8.792c-0.474,2.467-1.355,5.292-2.641,8.476l-4.049,1.834
		c-1.434-0.928-2.588-2.134-3.463-3.62c-0.875-1.488-1.311-3.053-1.311-4.697c0-1.286,0.126-2.857,0.378-4.712
		c0.211-1.56,0.432-3.12,0.665-4.681l5.629,2.815v-4.871l5.503-3.667V237.993z M118.34,247.892c0-0.802-0.083-1.697-0.252-2.688
		l-2.784,0.285c0.084,2.678,0.896,5.039,2.435,7.084C118.14,250.97,118.34,249.41,118.34,247.892z"/>
	<path fill="#C72C27" d="M132.89,234.734c0,5.419-1.393,10.333-4.174,14.739l2.561,5.566c-0.443,0.442-1.192,0.664-2.246,0.664
		c-1.455,0-2.952,0.475-4.49,1.423c0.695-3.078,1.917-5.502,3.667-7.273c-0.062-6.115-1.149-11.175-3.257-15.181
		c1.308-0.38,2.614-0.569,3.921-0.569C130.328,234.103,131.667,234.314,132.89,234.734z"/>
</g>
</svg>
