<?xml version="1.0" encoding="utf-8"?>
<!-- Generator: Adobe Illustrator 16.0.4, SVG Export Plug-In . SVG Version: 6.00 Build 0)  -->
<!DOCTYPE svg PUBLIC "-//W3C//DTD SVG 1.1//EN" "http://www.w3.org/Graphics/SVG/1.1/DTD/svg11.dtd">
<svg version="1.1" id="Layer_1" xmlns="http://www.w3.org/2000/svg" xmlns:xlink="http://www.w3.org/1999/xlink" x="0px" y="0px"
	 width="608.575px" height="857.207px" viewBox="0 0 608.575 857.207" enable-background="new 0 0 608.575 857.207"
	 xml:space="preserve">
<g>
	<path fill="#7081BE" d="M473.725,687.091c-9.387,9.631-21.514,15.359-32.461,22.777c-10.303-12.9-21.371-20.674-36.199-5.763
		c-0.361,0.364-2.893-1.421-4.412-2.204c4.945-7.613,9.895-15.229,16.365-25.191c-14.68,3.336-17.723,11.332-16.734,22.182
		c-15.67,2.072-26.908,17.6-44.258,14.587c-3.377-9.416-11.506-7.802-18.215-6.722c-8.795,1.412-17.311,4.588-25.945,7.01
		l-0.135-0.148c-10.443-10.525-23.534-7.594-35.933-6.479c-6.311,0.568-12.005,2.089-15.626-4.812
		c3.23-5.633,4.049-11.756,3.699-18.123c3.445-1.217,2.548-9.598,9.116-5.605c16.575,10.078,13.116-5.842,15.119-12.469
		c2.312-7.643-7.76-14.559-9.929-15.293c-17.301-5.85-5.983-14.147-3.117-21.748c2.472-0.072,4.944-0.146,7.415-0.217l-0.24-0.139
		c2.534,1.125,5.064,2.238,7.595,3.363c21.268,6.072,42.344,8.457,62.676-3.301l-0.051,0.037c6.111,0.014,12.227,0.029,18.34,0.043
		c1.207,2.479,2.414,4.963,3.623,7.441c1.096,2.577,2.191,5.148,3.297,7.729c1.369,2.355,2.73,4.729,4.092,7.088
		c1.154,0.664,1.881,3.303,3.719,0.811c-1.053-0.496-2.1-0.986-3.15-1.473c-1.264-2.385-2.533-4.77-3.797-7.15
		c-1.293-2.412-2.584-4.826-3.875-7.24c-1.242-2.449-2.488-4.898-3.734-7.348c-1.229-3.676-2.461-7.35-3.689-11.027l-0.1,0.07
		c2.496-1.254,4.992-2.5,7.486-3.754l-0.08,0.088c7.594-4.357,11.939-10.562,11.16-19.674l-0.084-1.508
		c1.246-2.822,2.496-5.639,3.746-8.463l-0.141,0.225c1.279-2.553,2.561-5.102,3.842-7.648l-0.119,0.223
		c2.398-4.271,17.951-1.289,7.793-12.193c-20.26-21.748-21.871-45.195-9.57-71.096c1.748-3.682,1.367-8.377,1.969-12.6
		c1.188-1.26,2.371-2.521,3.561-3.771c3.816-0.896,6.52-3.148,8.146-6.707c8.355-0.418,16.707-0.846,25.062-1.273
		c15.332,3.961,30.664,7.916,46,11.879c29.395,7.592,29.395,7.592,27.771,36.688c-10.24,19.061-6.93,41.457-15.756,61.174
		c-11.977,26.74-26.094,31.867-49.803,15.424c-3.504-8.666-10.367-12.729-19.24-14.041l-1.027-0.949l0.883,1.095
		c4.467,6.89,10.027,12.478,17.982,15.241c5.395,7.701,9.088,15.957,8.113,25.652c-1.338,13.35-2.734,26.697-4.107,40.039
		c-1.371,1.621-2.744,3.24-4.119,4.854c0.449,0.312,0.9,0.619,1.35,0.932c1.074-1.795,2.148-3.588,3.221-5.391
		c12.414-11.541,5.305-27.893,9.91-41.508c1.799-5.309,0.131-10.049,8.535-10.215c17.279-0.348,27.547-10.266,32.373-26.596
		c9.219-31.156,8.062-30.02,44.453-28.629c0.312,4.85,0.627,9.695,0.938,14.545c-0.223,3.473-0.439,6.949-0.668,10.432
		c-0.939,1.318-1.889,2.637-2.834,3.939c-1.537,4.887-3.066,9.77-4.604,14.658c-8.193,15.755-28.002,26.188-22.158,48.371
		c-2.445,4.67-4.887,9.33-7.328,14.006c-1.174,1.479-2.342,2.959-3.514,4.438l-0.014,0.021
		C487.909,671.906,479.979,678.621,473.725,687.091z M448.375,680.349l0.641,0.648l-0.748-0.533
		c-1.217-1.24-2.434-2.479-3.654-3.717l-0.732-0.922l0.785,0.871C445.905,677.914,447.141,679.13,448.375,680.349z M396.477,669.644
		l1.27,0.742l-0.768-1.254c-0.598-2.945-1.244-5.92-4.484-7.08c-0.391-0.137-1.963,1.318-1.918,1.959
		C390.823,667.541,393.391,668.923,396.477,669.644z"/>
	<path fill="#7081BE" d="M244.468,129.039c7.714,0.483,15.429,0.965,23.141,1.449c2.465-0.095,4.929-0.196,7.393-0.296
		c14.908,1.693,29.634,0.432,44.254-2.666c3.52,2.226,7.078,4.315,11.514,3.609c3.441-0.476,6.885-0.943,10.32-1.412
		c5.082,0.108,10.166,0.224,15.244,0.332c7.678,1.044,15.375,2.254,22.547-2.133c3.869-0.079,7.76-0.23,10.709,2.982
		c-2.215,15.941-2.84,32.113-12.012,46.478c-6.531,10.222,3.52,7.572,8.117,8.861l-0.127-0.129c1.273,1.289,2.559,2.562,3.842,3.846
		l-0.178-0.144c5.213,6.756,4.064,14.581,3.732,22.266l0.088-0.159c-1.264,2.522-2.529,5.042-3.799,7.571l0.113-0.223
		c-12.547,16.374-14.283,36.263-18.016,55.503c-10.381,0.879-20.963,1.859-30.82-1.994c-15.561-6.073-30.564-6.484-46.221-0.051
		c-5.983,2.464-13.166,2.003-19.803,2.875c-3.267-5.151-6.79-2.047-10.271-0.318c-1.523-3.839-3.047-7.68-4.571-11.519
		c-1.014-18.996-6.937-36.307-17.921-51.859l0.092,0.181c-1.257-2.514-2.519-5.021-3.776-7.536l0.077,0.13
		c0.003-3.725,0.007-7.456,0.014-11.188l-0.144,0.115c2.523-1.261,5.042-2.529,7.562-3.79l-0.178,0.13
		c1.284-1.283,2.568-2.564,3.851-3.854l-0.148,0.159c9.66-4.495,10.38-5.136,8.439-7.305
		C244.609,164.468,246.044,146.386,244.468,129.039z M328.229,139.42c-8.445,11.216-0.723,22.959-10.186,25.703
		c-8.373,2.428-3.578-9.992-11.703-16.554c4.588,10.92-5.438,23.44,4.01,24.226c15.951,1.311,31.791,6.109,49.576,3.148
		C341.762,171.67,318.79,172.895,328.229,139.42z"/>
	<path fill="#7081BE" d="M263.867,684.21c0.349,6.369-0.468,12.49-3.696,18.125c-7.964,8.672-2.258,11.432,5.705,13.479
		c15.535,4.004,30.407-4.975,45.855-2.197c0,0,0.135,0.148,0.135,0.143c-1.295,12.109-2.586,24.219-3.875,36.328
		c-0.23,0.908-0.328,1.838-0.305,2.781c-5.989,4.041-11.976,8.076-17.965,12.109c-3.614-0.021-7.229-0.045-10.847-0.061
		c-2.323-1.305-4.642-2.594-6.968-3.896c-1.386-0.846-2.773-1.691-4.164-2.535c-1.534-0.123-3.065-0.252-4.599-0.383
		c0.228-2.57,0.461-5.145,0.693-7.717c6.38-5.99,7.605-13.752,7.549-21.963c0.214-0.412,0.429-0.83,0.639-1.239
		c-0.254,0.375-0.509,0.741-0.768,1.116c-6.37,6.107-7.03,14.091-7.277,22.209c-1.213,2.398-2.426,4.812-3.64,7.221
		c-5.768-0.316-11.54-0.631-17.313-0.938c-2.781-3.365-5.562-6.736-8.342-10.1c-2.538-1.178-5.075-2.355-7.616-3.531
		c-6.975-3.111-12.19-8.02-15.365-15.012c-0.94-0.889-1.89-1.771-2.833-2.676c-3.492-0.688-6.985-1.389-10.483-2.08
		c-1.592-1.812-3.798-3.395-4.661-5.512c-6.483-15.914-12.363-10.783-18.213,0.346c-1.121,2.135-2.191,4.297-3.287,6.441
		c-3.927,7.174-7.855,14.35-11.783,21.529c-1.438,2.623-2.874,5.236-4.307,7.854c-1.277,2.299-2.558,4.6-3.829,6.896
		c-5.787,8.125-11.191,16.467-14.245,26.084l0.34,0.07c-1.178,1.307-2.354,2.621-3.53,3.936c-1.295,2.326-2.593,4.645-3.888,6.973
		c-3.625,6.289-7.25,12.578-10.879,18.867c-3.937,7.312-7.875,14.631-11.81,21.941c-1.461,2.354-2.921,4.705-4.386,7.053
		c-8.259,5.525-15.006,1.664-20.647-4.15c-9.08-9.354,3.393-15.998,3.733-24.262c1.05-1.361,2.099-2.715,3.15-4.076
		c1.46-3.25,2.925-6.506,4.392-9.768c1.292-1.715,2.574-3.416,3.858-5.115c4.241-4.762,7.494-9.971,7.557-16.633
		c9.597-8.285,14.063-19.771,19.225-30.818c4.045-6.609,10.289-12.148,10.161-20.811c11.607-10.938,16.062-26.705,26.138-38.67
		c1.103-0.053,2.201-0.146,3.294-0.27c17.489,13.422,19.223,12.682,33.142-14.047c15.007-4.617,20.99,11.479,32.767,14.277
		l-0.016-0.018c2.863,5.055,5.788,9.062,9.483,0.584c7.944,0.396,13.174-5.965,20.116-8.064
		C261.469,684.087,262.667,684.146,263.867,684.21z"/>
	<path fill="#7081BE" d="M138.377,167.745c6.856-8.263,13.067-17.663,26.209-14.731c0.135,2.961,0.693,5.728,3.496,7.442
		l-0.092-0.181c1.266,2.529,2.53,5.05,3.794,7.572l-0.12-0.202c-0.085,6.281,2.09,11.432,7.5,14.961l-0.162-0.202
		c1.295,1.29,2.59,2.579,3.885,3.875l-0.166-0.216c1.279,2.542,2.56,5.086,3.839,7.629l-0.167-0.26
		c0.509,11.851,8.276,11.439,16.594,9.639c11.895-2.571,23.706-4.632,35.168,1.614l-0.078-0.13c0.137,3.076,0.866,5.85,3.777,7.536
		l-0.092-0.181c1.263,18.398,11.323,34.21,15.232,51.824c-0.257,2.405-0.518,4.812-0.778,7.21
		c-11.061,0.763-20.163-3.811-28.647-10.301c-5.59-4.287-14.225-5.828-13.878,2.406c0.737,17.44-17.269,22.669-20.602,36.968
		c-0.918,3.934-5.929,7.953-12.877,3.35c8.915-13.932,9.689-26.372-11.965-32.149c13.341-6.396,20.821,8.673,33.899,2.297
		c-10.172-7.081-18.5-13.47-27.448-18.83c-4.065-2.429-11.094-3.674-11.773,3.191c-1.334,13.499-11.043,8.082-17.874,9.4
		c0.026-8.889,10.979-18.952-2.832-26.35c-1.657-4.51-5.257-4.215-8.911-3.509c-17.814,3.407-22.569-5.662-20.463-21.337
		C118.061,198.231,128.904,183.348,138.377,167.745z"/>
	<path fill="#7081BE" d="M164.784,691.306c-1.095,0.123-2.194,0.219-3.302,0.27c-3.062-7.111-8.394-12.01-15.12-15.562
		c-5.914-7.268-11.821-14.543-17.741-21.811c-1.347-3.73-2.686-7.455-4.025-11.195c-0.176-3.262-0.356-6.523-0.535-9.803
		c7.547-2.939,3.705-5.469-0.286-7.99c-3.638-3.737-7.274-7.469-10.91-11.207c-1.255-1.305-2.509-2.605-3.758-3.912
		c0,0,0.254-0.068,0.25-0.062c-3.709-8.561-7.418-17.123-11.124-25.683c-0.288-2.483-0.574-4.964-0.859-7.435
		c0.133-1.061,0.045-2.09-0.258-3.111c-0.281-5.396-0.562-10.784-0.83-16.159c1.615-0.243,3.216-0.495,4.824-0.731
		c23.229-4.82,37.038,3.91,40.559,27.885c0.214,1.447,2.399,2.607,3.67,3.896c1.309,7.795,2.664,15.459,12.064,17.907
		c6.961,1.813,5.648,6.403,3.309,11.146l-0.76,0.758l0.657-0.855c20.82-10.07,21.731-9.523,22.254,13.202
		c0.155,6.687,0.376,13.362,0.565,20.041C178.766,665.076,165.031,675.083,164.784,691.306z"/>
	<path fill="#7081BE" d="M400.653,701.91c1.52,0.775,4.051,2.562,4.41,2.203c14.83-14.918,25.898-7.146,36.201,5.756
		c-1.133,4.625-2.729,8.934-7.432,11.18c-1.281,0.773-2.557,1.543-3.836,2.32l-0.137,1.229c-2.482-0.504-4.971-1.008-7.447-1.512
		c-0.373-6.16-1.623-11.549-10.471-12.146c2.871,7.734,7.652,13.588,6.895,21.104c-3.023,6.391-8.676,9.387-14.967,11.535
		c-1.654,0.971-3.305,1.941-4.963,2.932c-3.35,3.355-6.697,6.713-10.041,10.07c-17.086,0.604-33.771,2.846-48.83,11.812
		c-11.523-0.914-19.689-6.906-25.324-16.73c2.5-37.408,2.688-37.574,41.305-38.184c17.354,3.008,28.592-12.52,44.264-14.586
		C400.473,699.886,400.592,700.894,400.653,701.91z"/>
	<path fill="#7081BE" d="M536.731,86.25c-5.857,10.049-11.709,20.098-17.568,30.146c-0.678,0.995-1.217,2.061-1.617,3.186
		c-5.703,9.429-11.309,18.909-17.137,28.26c-3.902,6.259-5.443,15.891-17.273,8.86c-9.035-5.367-15.758-9.653-7.707-20.746
		c1.727-2.377,2.223-5.648,3.271-8.507c8.268-6.657,11.076-16.375,14.494-25.754c4.832-2.089,6.58-6.461,8.148-10.97
		c2.047-3.638,4.086-7.292,6.127-10.936c1.047-1.354,2.098-2.702,3.146-4.056c1.457-3.35,2.914-6.7,4.371-10.056
		c1.123-1.635,2.242-3.271,3.367-4.898c10.084-11.684,14.141-26.718,22.053-39.642c5.299-8.659,10.281-14.89,21.633-8.816
		c11.203,5.993,7.533,13.269,3.188,21.221C555.651,51.082,546.217,68.673,536.731,86.25z"/>
	<path fill="#7081BE" d="M83.248,451.742c-0.029-2.475-0.063-4.938-0.092-7.398c1.419-17.209,1.187-34.383-0.848-51.534
		c0.376-1.247,0.749-2.492,1.12-3.731c13.906-4.092,14.913-6.188,7.108-14.804c-6.964-7.622-5.565-18.535-10.604-26.92
		c0.151-8.089,0.299-16.194,0.443-24.297c3.843-5.562,2.968-12.218,4.29-18.37c0.87-1.283,1.74-2.564,2.612-3.846
		c3.584-0.088,7.169-0.181,10.759-0.267l-0.171-0.094c4.028,3.228,8.889,4.092,13.7,3.667c16.689-1.447,21.494,7.175,19.396,22.058
		c-7.099,4.544-6.726,11.871-7.675,19.053c-1.383,10.496-1.356,21.683-10.021,29.815c-9.132-5.611-7.679,3.595-9.767,7.269
		c-1.46,2.564-1.819,6.354,1.67,7.622c4.429,1.613,5.953-2.688,8.037-5.439c5.621,8.263,2.579,17.746,3.699,26.632
		c-17.92,8.551-32.711,18.69-22.959,42.385c1.077,2.623,0.232,6.037,0.277,9.078c-2.372-1.174-4.74-2.355-7.112-3.531
		C85.823,456.64,84.535,454.191,83.248,451.742z M100.858,404.492c-1.88-1.218-3.297-2.846-4.594-2.759
		c-1.207,0.087-3.228,2.01-3.228,3.127c0.007,2.629,2.021,4.398,4.709,3.666C98.919,408.21,99.62,406.186,100.858,404.492z"/>
	<path fill="#7081BE" d="M220.312,127.937c5.86-0.115,11.72-0.23,17.585-0.345c-0.686,20.4,8.891,38.834,11.216,58.659
		c0,0,0.147-0.158,0.147-0.151c-1.284,1.282-2.568,2.564-3.852,3.854l0.178-0.137c-2.522,1.268-5.042,2.536-7.562,3.796l0.145-0.115
		c-17.257-1.888-34.529,9.991-51.776-0.065l0.167,0.252c-1.28-2.535-2.561-5.085-3.839-7.622l0.166,0.209
		c-1.295-1.289-2.589-2.586-3.885-3.875l0.162,0.201c-0.202-6.137-1.891-11.533-7.5-14.961l0.12,0.209
		c-1.264-2.528-2.533-5.05-3.794-7.572l0.092,0.173c-0.335-2.55-0.67-5.1-1.003-7.657c0.362-4.712,0.724-9.43,1.084-14.148
		c10.152-0.878,20.732,1.679,30.319-3.76c4.684-1.319,9.364-2.636,14.045-3.954C215.117,129.933,217.714,128.932,220.312,127.937z"
		/>
	<path fill="#7081BE" d="M437.012,134.933c35.539,9.559,35.527,9.552,15.383,44.042c-4.273,7.312-7.814,15.135-14.57,20.688
		c-15.562-6.447-32.656-5.28-48.59-9.854l0.178,0.145c-1.281-1.283-2.562-2.564-3.844-3.847l0.129,0.129
		c-0.854-18.795,10.172-35.953,7.611-54.985c11.088-8.881,21.945-0.079,32.912,0.417c3.023,2.997,6.955,2.991,10.812,3.235
		L437.012,134.933z"/>
	<path fill="#7081BE" d="M83.716,521.496c-0.285-3.639-0.563-7.283-0.845-10.916c0.333-14.543,0.665-29.104,0.989-43.646
		c13.289,3.555,26.582,7.104,39.874,10.662c-6.107,22.986,7.679,44.035,6.503,66.547c-9.231-0.973-18.645-2.549-24.834,7.111
		c-1.317,0.236-2.636,0.467-3.953,0.705c-1.239-0.346-2.478-0.691-3.721-1.029c-1.162-1.107-2.329-2.213-3.49-3.318
		c-0.264-0.787-0.306-1.596-0.124-2.406c-1.255-1.65-2.505-3.285-3.759-4.92l0.063,0.223c0.029-1.391,0.061-2.777,0.088-4.172
		C88.245,531.376,85.981,526.435,83.716,521.496z"/>
	<path fill="#7081BE" d="M112.846,216.082c-2.105,15.675,2.649,24.744,20.463,21.337c3.654-0.706,7.254-1.001,8.911,3.509
		c-0.668,6.664-0.468,13.55-2.143,19.939c-10.399,39.684-10.534,39.649-42.217,39.612l0.171,0.094
		c-2.442-3.61-4.884-7.219-7.326-10.828c0.092-3.783,0.186-7.57,0.274-11.353c0.911-3.674,1.82-7.354,2.732-11.028
		c0.266-5.799,0.531-11.598,0.794-17.411c0.992-1.52,1.979-3.026,2.968-4.532c0.509-2.312,1.019-4.625,1.523-6.944
		c1.992-2.694,3.991-5.388,5.99-8.075c1.347-1.16,2.692-2.326,4.04-3.479c-0.004-1.289-0.007-2.578-0.011-3.86
		c0.058-1.253,0.114-2.507,0.169-3.761c0.362-0.828,0.55-1.7,0.557-2.607C110.762,216.448,111.799,216.247,112.846,216.082z"/>
	<path fill="#7081BE" d="M82.399,385.353c0.866-5.043,2.037-9.876,8.136-11.079c7.805,8.615,6.793,10.711-7.108,14.804
		C83.085,387.838,82.744,386.599,82.399,385.353z"/>
	<path fill="#7081BE" d="M418.84,732.042c0.76-7.521-4.021-13.371-6.896-21.107c8.844,0.602,10.098,5.986,10.467,12.16
		c-0.334,2.867-0.676,5.723-1.01,8.572C420.538,731.732,419.684,731.854,418.84,732.042z"/>
	<path fill="#7081BE" d="M104.983,230.409c0.067-1.232,0.133-2.464,0.2-3.703c1.279,0.08,2.559,0.145,3.839,0.224
		C107.675,228.082,106.332,229.242,104.983,230.409z"/>
	<path fill="#7081BE" d="M429.997,723.363c1.275-0.771,2.555-1.541,3.836-2.32C432.551,721.822,431.276,722.591,429.997,723.363z"/>
	<path fill="#7081BE" d="M87.271,536.693c1.083-0.096,2.163-0.225,3.24-0.367c-0.031,1.391-0.063,2.781-0.094,4.172
		C89.371,539.229,88.319,537.962,87.271,536.693z"/>
	<path fill="#7081BE" d="M90.359,540.273c1.25,1.637,2.503,3.271,3.759,4.922C92.863,543.558,91.609,541.917,90.359,540.273z"/>
	<path fill="#7081BE" d="M97.729,550.929l-1.667,0.105c0,0-1.672-0.041-1.672-0.049c-0.077-1.135-0.133-2.255-0.154-3.38
		C95.4,548.708,96.567,549.818,97.729,550.929z"/>
	<path fill="#7081BE" d="M396.614,352.208c10.986-3.09,13.053-18.311,25.816-18.981c12.879,1.527,23.859-6.786,36.4-7.023
		c2.594-0.995,5.188-1.981,7.781-2.975c11.008-1.305,22.018-2.616,33.02-3.92c7.475,35.176,15.357,70.322,7.664,106.583
		c-12.986-2.231-16.664,11.648-28.334,15.267c12.389,2.021,22.418,3.768,8.926,16.438c-6.611,6.209,0.701,13.42,0.867,20.213
		c-20.26-0.309-38.607-11.4-59.09-10.449c-11.383,0.113-23.75-1.693-29.273-11.533c-10.545-18.795-20.441-38.092-14.471-61.843
		c3.523-13.99,10.992-27.036,10.832-41.948L396.614,352.208z"/>
	<path fill="#7081BE" d="M379.323,303.995c-5.895,10.509-2.482,18.599,4.674,27.641c6.77,8.543,11.547-0.765,17.434,0.158
		c2.771,7.989-4.93,13.334-4.811,20.415l0.137-0.166c-7.803,7.838-9.359,18.038-11.414,28.325
		c-3.979,19.89-8.551,22.225-27.623,16.403c-13.982-4.271-28.059-8.25-42.098-12.35c-8.137-11.123-13.253-22.245-14.252-37.271
		c-1.756-26.359-22.942-41.918-41.419-58.047c20.42-7.16,41.961-14.43,62.882-11.721c17.061,2.212,34.291,6.801,51.705,9.005
		c1.258,2.283,2.52,4.56,3.777,6.844l-0.102-0.181C378.583,296.705,378.95,300.349,379.323,303.995z"/>
	<path fill="#7081BE" d="M466.614,323.235c-2.592,0.995-5.189,1.981-7.775,2.975c-12.635-6.922-24.164,0.209-36.045,2.86
		c-19.561-0.9-22.223-4.797-12.828-21.582c24.779-44.26,50.252-88.129,74.939-132.447c5.961-10.697,9.447-8.421,14.373,0.26
		c2.992,5.28,6.957,10.013,10.492,14.99c1.467,12.053,12.67,20.207,13.059,32.684c-0.268,1.29-0.535,2.564-0.801,3.854l0.182-0.173
		c-1.285,1.283-2.568,2.562-3.85,3.847l0.123-0.123c-1.275,1.275-2.551,2.55-3.824,3.826l0.166-0.115
		c-6.377,0.49-13.23-1.361-18.662,3.783l0.246-0.123c-2.527,1.268-5.049,2.536-7.57,3.796l0.125-0.094
		c-1.254,0.036-2.512,0.072-3.77,0.1l-0.812-0.835l0.896,0.75c-0.346,4.25,0.137,8.234,3.688,11.209l-0.1-0.224
		c-0.018,19.198,8.834,36.631,11.051,55.382C488.813,312.97,477.715,318.099,466.614,323.235z M477.53,230.834
		c0.529,0.101,1.062,0.202,1.594,0.296c-0.311-0.317-0.623-0.641-0.938-0.958c-0.641-0.13-1.279-0.267-1.922-0.404
		C476.684,230.128,477.104,230.489,477.53,230.834z"/>
	<path fill="#7081BE" d="M532.143,234.185c4.152,20.746,11.336,41.104,8.029,62.794c-1.463,1.462-2.934,2.931-4.4,4.394
		c-2.131-0.187-4.264-0.368-6.396-0.541c2.221-11.85,3.225-26.048-11.729-27.021c-14.133-0.914-9.018,13.939-10.365,22.742
		c-13.123-11.785-7.709-31.307-18.42-44.094l0.1,0.224c0-3.746,0-7.484-0.004-11.23l-0.123,0.094c2.521-1.26,5.047-2.529,7.57-3.789
		l-0.248,0.122c6.326-0.734,13.256,1.499,18.66-3.789l-0.166,0.115c1.271-1.275,2.549-2.543,3.822-3.826l-0.123,0.13
		c1.281-1.29,2.566-2.571,3.85-3.854l-0.182,0.173c2.328,0.101,4.654,0.194,6.982,0.295
		C530.055,229.48,531.1,231.828,532.143,234.185z"/>
	<path fill="#7081BE" d="M437.258,204.36c-9.877,17.268-19.756,34.535-29.631,51.81c-5.488-3.913-10.979-7.816-16.449-11.713
		c-4.4-8.119-2.312-16.712-1.801-25.192l-0.113,0.224c1.266-2.521,2.535-5.042,3.799-7.571l-0.09,0.166
		C405.118,194.506,421.661,202.149,437.258,204.36z"/>
	<path fill="#7081BE" d="M391.159,244.449c5.49,3.905,10.979,7.809,16.469,11.721c-7.625,14.443-13.27,30.118-25.748,41.55
		c-1.225-1.556-2.445-3.112-3.666-4.66c0,0,0.104,0.18,0.104,0.173c0.088-4.157-0.402-8.148-3.268-11.461
		c-0.162-2.378-0.328-4.755-0.496-7.132c5.42-9.069,4.877-19.645,7.396-29.435c2.938-0.115,5.879-0.23,8.816-0.346L391.159,244.449z
		"/>
	<path fill="#7081BE" d="M385.649,592.925c0,0,0.084,1.516,0.084,1.527c-6.549,4.957-11.525,10.791-11.16,19.658l0.082-0.086
		c-2.498,1.242-4.994,2.5-7.488,3.744l0.096-0.062c-5.604,2.824-11.637,5.086-14.818,11.137l0.053-0.037
		c-20.98,0.221-41.902,7.738-62.941,0.507c-2.445-0.188-4.888-0.384-7.332-0.562l0.24,0.131c-3.283-5.93-9.619-7.781-14.854-11.106
		c-2.482-1.212-4.967-2.423-7.45-3.634c-1.229-1.254-2.46-2.506-3.688-3.752c-0.155-1.83,0.322-4.068-0.564-5.416
		c-7.38-11.174-6.487-21.303,2.003-31.762c7.658-9.43,10.04-22.498,20.087-30.436c3.201-2.535,7.299-2.805,10.453-1.023
		c23.718,13.348,45.982,4.746,68.509-3.674c6.924-2.586,15.203-4.156,20.262,3.111c7.559,10.861,17.109,21.189,15.75,36.074
		l0.117-0.223c-1.277,2.549-2.559,5.092-3.836,7.643l0.139-0.225C388.147,587.285,386.899,590.101,385.649,592.925z"/>
	<path fill="#7081BE" d="M263.867,684.21c-1.2-0.062-2.394-0.123-3.593-0.166c-1.037-9.848-8.376-15.531-14.535-22
		c2.382-3.719,4.769-7.44,7.155-11.158l-0.048,0.052c7.893-5.304,10.705-13.142,11.103-22.188l-0.192,0.143
		c3.766,0.072,7.531,0.135,11.297,0.195c-2.865,7.607-14.188,15.906,3.117,21.756c2.169,0.734,12.241,7.65,9.929,15.293
		c-2.003,6.619,1.457,22.539-15.119,12.473C266.415,674.607,267.308,682.992,263.867,684.21z"/>
	<path fill="#7081BE" d="M503.622,518.109c8.936-12.35,7.162-26.643,7.391-40.572c12.275-3.803,24.557-7.613,36.82-11.424
		c0,0,0.344,0.475,0.34,0.475c-0.01,1.174,0.125,2.348,0.404,3.486c-0.277,7.549-0.939,15.146,2.672,22.229
		c-0.104,7.109-0.215,14.213-0.32,21.322c-5.205,12.418-2.938,27.67-14.311,37.754C503.903,551.447,503.903,551.447,503.622,518.109
		z"/>
	<path fill="#7081BE" d="M547.575,374.439c9.084,21.38-2.93,43.071,0.916,64.639c1.139,6.389-0.539,13.283-0.924,19.938
		c-1.002,1.344-2.008,2.684-3.014,4.018c-29.604,2.148-29.811,1.951-29.822-28.406c-0.006-5.502-0.076-10.999-0.082-16.502
		c-0.041-30.681-0.037-30.681,25.939-40.189l-0.088,0.101C542.856,376.846,545.213,375.649,547.575,374.439z"/>
	<path fill="#7081BE" d="M245.738,662.044c6.159,6.469,13.498,12.152,14.535,22c-6.94,2.096-12.17,8.465-20.102,8.062
		c-3.153-0.203-6.325-0.393-9.496-0.576l0.014,0.014c0.014-6.188,0.033-12.377,0.048-18.57l-0.101,0.072
		C238.926,673.851,242.459,668.125,245.738,662.044z"/>
	<path fill="#7081BE" d="M256.212,270.944c2.111,6.116,1.379,12.296,0.358,18.478c-3.703,7.398-7.407,14.795-11.113,22.194
		c-10.903,0.332-13.444,12.491-22.274,15.74c-0.911,0.107-1.743,0.433-2.492,0.973c-3.942-0.31-7.886-0.627-11.832-0.958
		c-16.882-2.167-32.983-7.845-50.19-9.3c-18.139-1.527-23.73-11.906-20.451-30.139c1.304-7.24,2.721-14.364,6.829-20.639
		c6.835-1.317,16.54,4.092,17.875-9.408c0.683-6.858,7.711-5.619,11.772-3.191c8.949,5.36,17.276,11.757,27.447,18.83
		c-13.082,6.375-20.561-8.687-33.898-2.298c21.654,5.771,20.879,18.219,11.965,32.15c6.948,4.604,11.961,0.583,12.876-3.342
		c3.333-14.306,21.339-19.537,20.603-36.977c-0.348-8.234,8.288-6.692,13.878-2.406
		C236.049,267.134,245.151,271.708,256.212,270.944z"/>
	<path fill="#7081BE" d="M94.217,462.626c-0.045-3.041,0.8-6.455-0.277-9.078c-9.752-23.689,5.039-33.834,22.957-42.385
		c5.532,12.455,1.95,25.12,1.479,37.87C117.667,468.201,109.153,470.341,94.217,462.626z"/>
	<path fill="#7081BE" d="M113.26,375.08c-0.027,3.147-0.048,6.31-0.067,9.451c-2.076,2.744-3.604,7.045-8.03,5.432
		c-3.488-1.268-3.13-5.05-1.669-7.614C105.581,378.675,104.127,369.461,113.26,375.08z"/>
	<path fill="#7081BE" d="M100.858,404.492c-1.235,1.69-1.939,3.718-3.108,4.034c-2.688,0.732-4.702-1.037-4.709-3.666
		c-0.004-1.117,2.017-3.04,3.227-3.127C97.561,401.641,98.979,403.274,100.858,404.492z"/>
	<path fill="#7081BE" d="M130.237,544.142c-5.784,11.08-16.085,6.387-24.834,7.111C111.592,541.585,121.006,543.164,130.237,544.142
		z"/>
	<path fill="#7081BE" d="M507.299,425.901c1.029,17.247,5.791,34.217,3.787,51.69c-7.41,3.311-14.828,5.908-22.324,0.229
		c-0.17-6.805-7.484-14.006-0.871-20.215c13.492-12.674,3.465-14.414-8.926-16.438C490.635,437.55,494.313,423.661,507.299,425.901z
		"/>
	<path fill="#7081BE" d="M245.458,311.609c3.703-7.398,7.407-14.789,11.113-22.195c1.124-0.101,2.249-0.201,3.375-0.309
		c18.478,16.128,39.664,31.688,41.419,58.047c0.999,15.026,6.118,26.149,14.254,37.271c-13.416,4.221-26.792,8.58-40.25,12.664
		c-17.714,5.374-22.443,2.298-26.441-16.337c-1.405-6.563-1.725-14.062-5.241-19.327
		C232.051,343.997,229.269,327.68,245.458,311.609z M283.21,363.158c-0.768-0.749-1.475-2.017-2.316-2.11
		c-0.95-0.108-2.725,0.647-2.917,1.354c-0.592,2.233,0.96,3.314,2.984,3.012C281.794,365.29,282.448,363.972,283.21,363.158z"/>
	<path fill="#7081BE" d="M499.959,307.884c11.104-6.822,24.457-1.238,35.828-6.519c1.451-1.463,2.922-2.924,4.385-4.387
		c2.684,2.47,5.361,4.934,8.041,7.398c-0.188,4.084,0.475,7.931,3.307,11.128c6.939,18.954-4.34,36.653-3.785,55.158
		c-4.027,0.872-6.775,3.005-7.244,7.377l0.088-0.101c-24.781-0.338-28.164-3.408-29.494-27.72
		c-0.635-11.576-1.383-22.972-10.889-31.408C500.125,315.168,500.043,311.53,499.959,307.884z"/>
	<path fill="#7081BE" d="M529.375,300.832c-7.701,0.303-15.301,0.115-22.094-4.278c1.348-8.803-3.771-23.656,10.359-22.742
		C532.6,274.784,531.596,288.982,529.375,300.832z"/>
	<path fill="#7081BE" d="M381.95,245.199c2.781-3.962,5.75-3.141,8.807-0.346C387.829,244.968,384.889,245.083,381.95,245.199z"/>
	<path fill="#7081BE" d="M396.747,477.595c-1.246,1.209-2.492,2.43-3.744,3.646c-5.547,5.258-7.578,12.389-10.168,19.211
		c-3.33,8.76-0.738,21.129-11.59,25.344c-19.684,7.635-38.736,20.812-60.807,16.66c-15.031-2.822-31.709-5.812-41.229-21.006
		c-4.322-6.9-10.577-4.119-16.446-3.219c0.841-10.713-0.524-21.791-6.627-30.057c-10.171-13.766-11.075-26.078-0.538-39.461
		c1.46-1.852,2.67-4.438,2.777-6.744c1.361-28.782,22.259-36.384,44.974-44.313c21.241-7.419,39.394-7.449,55.429,9.79l0.873,1.037
		l-0.926-0.979c11.758-5.353,22.76-1.254,29.59,11.014c-0.283,0.465-0.881,1.005-0.783,1.362c0.258,0.979,0.814,1.872,1.252,2.802
		c7.377,16.311,9.795,35.241,25.062,47.372C399.805,470.99,397.01,473.101,396.747,477.595z M361.196,469.685
		c6.059-0.006,9.262-3.256,9.312-9.047c0.088-9.66-8.699-17.898-2.1-29.412c2.666-4.651-7.49-3.308-8.812-0.855
		c-5.568,10.322-8.854,21.77-8.688,33.52C350.967,468.238,356.643,469.65,361.196,469.685z"/>
	<path fill="#7081BE" d="M190.147,602.968c-18.92,7.541-31.463-3.537-43.868-15.02c-5.435-26.158-10.245-52.465-16.563-78.406
		c-3.504-14.385,0.184-22.316,14.849-25.227c19.006-3.773,37.941-7.928,56.899-11.932c26.794-3.711,31.361-0.965,41.525,24.111
		c2.977,7.332,6.609,14.396,9.939,21.588c-3.953,24.646-17.995,44.115-32.445,63.385c-0.01-0.014-1.051-0.727-1.051-0.727
		c-5.769-4.906-8.173-0.166-10.854,3.781l0.031-0.021c-1.228,1.225-2.46,2.457-3.688,3.68l-0.034,0.037
		c-1.214,1.211-2.422,2.42-3.633,3.631l-0.084,0.072c-7.521-0.172-11.083,3.609-11.009,11.021L190.147,602.968z"/>
	<path fill="#7081BE" d="M256.585,610.3c1.229,1.232,2.456,2.457,3.685,3.689c2.485,1.217,4.969,2.428,7.454,3.637
		c-1.319,3.762-2.64,7.514-3.966,11.266l0.189-0.143c-7.963,5.266-10.716,13.139-11.103,22.188l0.048-0.053
		c-5.876,2.729-11.75,5.461-17.624,8.191c-3.429-9.799-1.296-21.061-7.888-30.025c2.647-5.33,5.583-10.539,7.885-16.014
		C240.896,599.646,248.132,600.712,256.585,610.3z"/>
	<path fill="#7081BE" d="M227.378,629.052c6.595,8.967,4.459,20.223,7.877,30.02c-1.545,4.65-3.083,9.307-4.618,13.977l0.101-0.08
		c-8.625,6.037-17.321-1.646-25.965,0.146C206.909,655.656,219.875,643.753,227.378,629.052z"/>
	<path fill="#7081BE" d="M190.063,636.507c-1.128-11.18-3.006-22.367,0.084-33.539l0.021-0.021
		c4.797-2.551,8.597-6.098,11.009-11.021l0.084-0.072c1.21-1.211,2.42-2.42,3.632-3.631l0.034-0.037
		c1.229-1.223,2.46-2.451,3.688-3.68l-0.031,0.021c3.618-1.264,7.238-2.527,10.856-3.781c0,0,1.04,0.713,1.05,0.727
		C214.251,601.974,203.124,619.773,190.063,636.507z"/>
	<path fill="#7081BE" d="M123.8,477.537c1.63-40.645-4.484-81.531,4.058-121.943c7.803-5.755,15.788,8.047,21.996,1.182
		c21.134-23.368,21.267-1.779,25.874,11.253c0.468,1.332,2.449,2.138,3.812,3.255c6.362-11.489,19.479-21.834-1.25-36.076
		c9.748,0.691,15.535,2.989,19.747-1.996c3.579-0.072,7.151-0.137,10.73-0.208c19.72,2.226,24.548,19.183,30.401,33.259
		c8.474,20.379,13.162,41.724,6.718,64.333c-8.189,28.73-14.827,34.824-44.415,36.689c-18.888,3.869-37.842,7.449-56.629,11.732
		C137.444,480.714,130.579,481.392,123.8,477.537z"/>
	<path fill="#7081BE" d="M378.788,422.682c-0.438-0.93-0.996-1.819-1.252-2.802c-0.098-0.36,0.5-0.907,0.783-1.369
		C378.475,419.908,378.629,421.291,378.788,422.682z"/>
	<path fill="#7081BE" d="M198.038,333.212c-4.212,4.993-9.999,2.695-19.747,1.996c20.728,14.249,7.612,24.593,1.25,36.076
		c-1.363-1.117-3.341-1.916-3.812-3.249c-4.607-13.031-4.74-34.627-25.874-11.259c-6.208,6.865-14.197-6.937-21.996-1.174
		c1.15-9.725,2.292-19.443,3.436-29.161c6.725-7.622,14.854-5.993,23.178-3.631C168.845,326.888,184.424,325.922,198.038,333.212z"
		/>
	<path fill="#7081BE" d="M283.199,363.18c-0.751,0.799-1.405,2.11-2.239,2.233c-2.024,0.302-3.573-0.778-2.984-3.012
		c0.189-0.706,1.963-1.461,2.917-1.354C281.735,361.141,282.442,362.409,283.199,363.18z"/>
	<path fill="#7081BE" d="M361.196,469.685c-4.553-0.033-10.23-1.445-10.289-5.799c-0.164-11.748,3.123-23.193,8.688-33.518
		c1.32-2.451,11.48-3.791,8.812,0.854c-6.602,11.514,2.188,19.752,2.102,29.412C370.461,466.429,367.254,469.679,361.196,469.685z"
		/>
</g>
</svg>
