<?xml version="1.0" encoding="utf-8"?>
<!-- Generator: Adobe Illustrator 16.0.4, SVG Export Plug-In . SVG Version: 6.00 Build 0)  -->
<!DOCTYPE svg PUBLIC "-//W3C//DTD SVG 1.1//EN" "http://www.w3.org/Graphics/SVG/1.1/DTD/svg11.dtd">
<svg version="1.1" id="Layer_1" xmlns="http://www.w3.org/2000/svg" xmlns:xlink="http://www.w3.org/1999/xlink" x="0px" y="0px"
	 width="608.575px" height="857.207px" viewBox="0 0 608.575 857.207" enable-background="new 0 0 608.575 857.207"
	 xml:space="preserve">
<g>
	<path fill="#1588C8" d="M530.586,555.203c-4.029,20.264-11.119,38.996-28.904,52.42c-0.957,0.723-2.414,1.949-2.275,2.713
		c6.076,33.057-22.938,45.822-41.316,64.719c-2.621,2.775-5.229,5.555-7.854,8.324c-1.312,0.809-2.625,1.607-3.934,2.416
		c-2.512,0.814-5.018,1.629-7.531,2.449c-5.152,6.514-10.303,13.025-15.459,19.541c-1.152-0.078-2.303-0.199-3.447-0.35
		c-0.979-18.43-11.711-33.801-17.797-50.613c-16.307-45.07-38.475-88.062-52.975-133.791c16.127-6.732,17.355,8.547,24.562,14.996
		c2.453,8.127,8.871,15.094,7.867,24.24c0.008,0.008-0.523,1.402-0.523,1.402l1.453-0.531c8.619-3.385,16.914-6.689,4.854-15.951
		c-4.27-3.283-7.84-7.393-11.725-11.121c-6.816-20.029-2.682-38.801,5.799-57.703c5.434-12.094,12.893-17.197,27.066-18.004
		c26.129-1.486,49.842,7.814,74.697,11.863c13.275,2.168,19.48,7.59,13.822,20.865c-9.484,22.24-6.693,46.559-13.307,70.08
		c6.17-16.107,14.949-25.98,34.818-22.688C528.862,542.205,530.67,547.246,530.586,555.203z M430.903,585.236
		c1.168,1.262,2.33,2.52,3.498,3.779c4.43,19.209-2.941,37.871-2.934,56.883c-1.445,1.068-2.889,2.131-4.322,3.207
		c-1.584,2.514-0.895,2.865,1.594,1.516c1.035-1.459,2.064-2.916,3.098-4.375c11.355-10.508,6.266-24.811,8.984-37.234
		c1.746-7.959,0.186-13.885,12.969-13.799c6.807,0.043,19.646-1.311,20.732-13.672c1.352-2.223,1.031-2.816-1.439-1.33
		c-10.76,9.564-23.516,9.699-36.871,7.072c-1.18-1.246-2.359-2.492-3.539-3.732c-1.252-1.229-2.506-2.477-3.758-3.709
		c-1.781-2.01-3.562-4.023-5.34-6.047c-0.662,0.695-1.9,1.402-1.887,2.082c0.084,3.221,2.541,4.701,5.377,5.758
		C428.338,582.837,429.616,584.046,430.903,585.236z M435.491,660.554c1.295,1.197,2.588,2.391,3.885,3.584l0.654,0.67
		c0,0-0.783-0.545-0.783-0.553C437.987,663.033,436.731,661.8,435.491,660.554z"/>
	<path fill="#1588C8" d="M142.859,120.101c-4.037-9.891-8.065-19.785-12.101-29.672c-2.541-5.714-5.078-11.427-7.616-17.145
		c-2.625-7.242-4.674-14.737-8.023-21.667c-5.09-10.529-7.237-20.872,3.018-29.134c10.539-8.482,18.176,0.548,26.11,5.787
		c0.009-0.014,0.41,1.554,0.41,1.554c1.384,8.443,3.098,16.759,9.838,23.138c-0.012,0.875,0.447,1.321,1.382,1.317
		c-0.775,4.298,1.304,7.413,4.57,10.046c-0.839,0.277-1.136,0.825-0.886,1.635c7.402,21.067,11.504,43.507,27.959,60.818
		c9.389,0.084,18.53-5.781,27.798-2.429c11.759,4.248,4.119,16.341,9.148,23.542c1.355,1.94,3.099,3.642,4.665,5.451
		c0.539,2.153,1.065,4.312,1.597,6.475c0.5-0.279,1.46-0.715,1.421-0.818c-0.761-2.042-1.64-4.057-2.486-6.071
		c-0.146-5.925-0.374-11.848-0.409-17.774c-0.05-6.974,2.675-12.284,11.023-10.223c15.902,3.915,32.215-5.123,48.048,2.088
		c3.934,1.791,6.8-1.579,7.201-5.813c3.321,0.036,6.644,0.079,9.969,0.106c1.43,0.779,2.861,1.558,4.287,2.344
		c11.363-0.047,22.723-0.085,34.082-0.127c1.393-0.042,2.787-0.082,4.188-0.129c4.689,0.482,9.438,1.191,13.125-2.704
		c5.465,2.039,12.186-0.616,16.941,4.071c-2.975,15.29-3.152,31.358-12.996,44.785c-5.355,7.31,0.83,7.593,5.555,8.959l-0.162-0.12
		c2.613,1.242,5.223,2.485,7.834,3.725l-0.186-0.107c2.545,4.836,5.09,9.671,7.635,14.507l0.135-0.042
		c-1.34,1.268-2.68,2.535-4.018,3.802l0.178-0.248c-2.998,3.338-7.061,6.354-3.926,11.569
		c-12.338,14.812-18.283,31.771-18.797,50.543c0.088,1.144-0.02,2.272-0.316,3.377c-13.855,0.616-27.299-0.424-40.566-5.282
		c-12.062-4.411-25.03-4.262-36.5,1.841c-11.628,6.189-23.649,7.002-36.301,5.863c-0.607-5.771-2.854-10.652-8.314-13.792
		c7.897-8.263,12.69-16.554,0.32-25.05c-1.252-4.651-1.477-10.003-8.242-10.881l0.081,0.156c0.557-8.291,0.024-16.234-7.694-21.906
		l0.084,0.109c-0.448-5.207,1.3-9.88,3.914-14.326c2.477-1.271,4.959-2.534,7.444-3.802c3.499-0.481,7.865,0.057,8.268-4.744
		c0.078-0.935-2.559-2.969-3.923-2.955c-5.796,0.052-3.896,4.563-4.376,7.667c-2.564,1.166-5.133,2.34-7.7,3.512
		c-6.233,1.169-12.468,2.334-18.694,3.501c-1.47-3.908-2.8-7.872-4.43-11.717c-9.629-22.752-14.208-50.913-51.868-43.974
		c-1.393,0.254-3.228-1.615-4.856-2.496C144.756,124.865,143.809,122.48,142.859,120.101z M291.144,164.301
		c18.378-1.494,36.038,5.925,54.421,4.442C327.522,166.033,310.075,155.982,291.144,164.301z"/>
	<path fill="#1588C8" d="M494.93,35.083c-5.59,14.624-16.314,27.739-14.506,44.544c0.004,0.003,0.699,0.711,0.699,0.711
		c-1.9,1.219-3.801,2.429-5.699,3.64c-3.209,3.084-5.441,6.554-4.9,11.123c-3.986,8.652-8.031,17.275-11.953,25.955
		c-6.082,13.459-2.281,21.813,13.762,23.705c1.631,1.657,3.258,3.328,4.885,5.004c8.713,11.301,17.424,22.607,26.146,33.899
		c1.521,3.073,3.041,6.153,4.559,9.232c1.195,1.728,2.396,3.448,3.59,5.173c1.24,3.232,2.484,6.46,3.732,9.688
		c-2.445,5.961-4.891,11.923-7.338,17.884l0.174-0.117c-7.854,0.436-16.225-2.07-23.121,3.707l0.213-0.142
		c-1.332,1.267-2.654,2.528-3.982,3.795l0.141-0.11c-2.586-2.371-5.17-4.747-7.754-7.119c-1.109-1.349-2.227-2.701-3.332-4.053
		c-1.23-1.292-2.461-2.595-3.689-3.884c-1.389-1.09-2.771-2.18-4.158-3.271c-1.322-1.136-2.641-2.28-3.961-3.422
		c-3.143-3.717-5.139-8.925-12.896-8.5c3.051,5.579,7.018,8.224,12.771,8.624c1.154,1.289,2.305,2.584,3.455,3.88
		c1.1,1.374,2.199,2.747,3.299,4.121c1.395,1.14,2.797,2.28,4.201,3.413c1.506,0.97,2.992,1.947,4.484,2.923
		c0.473,13.091,4.93,25.056,11.389,36.462l-0.121-0.255c0.371,3.576,0.436,7.208,1.164,10.72
		c5.656,27.169,2.215,32.03-26.359,36.724c-8.074,1.332-16.115,2.917-24.238,3.866c-12.754,1.487-25.639,7.717-38.301-0.397
		c1.912-4.007,18.436-6.215,2.498-12.333c-12.803-4.911-11.182-11.357-7.07-21.092c17.918-42.423,35.211-85.087,52.584-127.716
		c2.205-5.409,8.062-11.314,3.68-16.759c-5.123-6.365-14.062-3.49-21.418-3.845c-8.096-0.389-10.252,5.877-12.729,11.427
		c-5.939,13.275-11.797,26.589-17.686,39.889c-6.363,4.164-12.648,0.174-18.979-0.159l0.184,0.103
		c-1.734-2.896-4.564-3.724-7.834-3.72l0.166,0.116c5.135-19.264,10.266-38.537,15.4-57.801
		c36.768,0.963,36.768,0.963,49.785-36.247l-0.188,0.004c2.877-1.788,3.771-4.447,3.646-7.541
		c3.178-7.603,6.354-15.201,9.527-22.801c2.541-5.449,5.174-10.862,7.607-16.355c3.389-7.629,5.303-16.527,16.152-17.913
		c11.6-1.483,16.395,6.829,21.795,14.153C494.422,34.011,494.93,35.083,494.93,35.083z"/>
	<path fill="#1588C8" d="M93.724,198.738c12.079-18.729,21.525-39.223,40.017-53.631c2.774-0.549,5.541-1.108,8.311-1.657
		c1.3-1.713,2.603-3.416,3.895-5.125c0.358-0.624,0.393-1.264,0.095-1.912c7.608,0.22,8.646,6.521,10.58,11.204
		c13.189,31.868,28.148,63.101,38.563,95.974c0.237,1.734,0.466,3.462,0.703,5.197c1.034,1.912,2.068,3.824,3.102,5.731
		c-3.509,8.748-5.311,18.363-16.972,21.817c-5.014,1.48-8.584,2.018-10.765-2.942c-2.09-4.748,0.676-5.596,5.319-6.344
		c10.747-1.738,6.872-8.082,1.313-10.068c-15.594-5.579-29.683-19.707-48.755-9.668c0.36-4.842,0.713-9.685,1.065-14.528
		c1.388-2.322,2.781-4.63,4.165-6.948c3.841-2.149,7.594-4.344,8.108-10.058c-6.505,1.752-8.072,5.332-8.778,9.53
		c-1.106,2.534-2.22,5.069-3.331,7.606c-2.572-0.066-5.144-0.127-7.71-0.194l0.081,0.085c-6.433-10.833-17.47-6.369-26.878-7.321
		l0.171,0.135c-0.462-4.51-3.277-6.783-7.818-7.413l0.21,0.148c0.237-3.285,0.47-6.571,0.707-9.856
		C90.652,205.245,92.188,201.991,93.724,198.738z"/>
	<path fill="#1588C8" d="M420.594,786.507c-1.127-1.891-2.252-3.778-3.381-5.678c-0.449-3.639-0.877-7.271-4.262-9.742
		c0.719-0.488,0.844-1.09,0.371-1.799c-2.896-7.738-4.898-15.902-8.816-23.137c-12.977-23.969-6.305-25.078-29.857-8.592
		c-7.836,3.756-13.449-0.961-19.35-4.594l0.107,0.199c0.27-9.332-0.062-18.5-7.77-25.652l0.236,0.307
		c-1.365-1.295-2.738-2.6-4.107-3.896l0.225,0.306c-0.164-8.735,8.799-6.259,13.828-9.765c-12.637-2.633-24.504-5.281-36.857-4.723
		c-1.047-16.641,18.449-13.996,22.18-13.396c16.543,2.648,21.502-4.744,24.191-17.246c5.604,11.848,11.168,23.712,16.82,35.541
		c3.854,8.072,5.682,18.771,12.248,23.527c11.498,8.332,12.797-12.086,23.463-10.734c1.145,0.148,2.299,0.271,3.453,0.352
		c4.086,8.41,8.176,16.819,12.262,25.227c0.51,1.316,1.012,2.627,1.516,3.938c4.896,9.775,3.736,21.955,13.162,29.936
		c0.459,2.037,0.916,4.084,1.373,6.131c2.098,4.007,4.188,8.015,6.277,12.021c0.951,2.91,1.895,5.812,2.846,8.723
		c-2.619,10.062,0.043,21.263-8.076,30.183c-6.475,7.114-11.676,7.854-16.482-1.188c-2.127-4.688-4.252-9.381-6.383-14.074
		C426.741,801.283,423.668,793.892,420.594,786.507z"/>
	<path fill="#1588C8" d="M61.916,442.789c-1.943-16.576-3.144-33.986-1.984-49.795c2.327-31.584-6.544-63.31,2.25-94.529
		c4.262-6.835,10.983-8.217,18.614-7.586c0,0-0.278-0.127-0.273-0.127c4.07,3.271,8.996,3.979,14.02,3.784
		c13.3-0.513,17.871,5.965,16.182,17.718c-1.172,2.478-2.34,4.942-3.51,7.42c-7.007,6.563-6.99,15.052-7.429,23.534
		c-0.695,13.197-2.72,25.644-23.492,26.146c19.592-1.338,20.157,9.396,19.855,21.375c-0.394,15.646,0.21,31.321-0.26,46.963
		c-0.469,15.844-6.52,19.451-21.347,13.041C70.007,448.763,66.107,445.47,61.916,442.789z"/>
	<path fill="#1588C8" d="M62.008,510.917c0.197-0.885,0.132-1.754-0.196-2.605c-7.042-17.971-0.372-35.814,0.535-53.715
		c9.152,2.314,18.325,4.564,27.438,6.986c2.392,0.645,4.926,1.451,6.88,2.84c6.262,4.479,10.343,46.479,4.747,52.328
		c-1.76,1.834-3.748,2.357-2.638,5.459c5.613,15.676,5.094,16.186-13.5,15.031c-5.052-0.312-10.096-0.631-15.147-0.949
		c-1.565-3.285-3.132-6.562-4.697-9.842C65.579,521.015,65.983,515.527,62.008,510.917z"/>
	<path fill="#1588C8" d="M534.557,533.771c-1.219,0.312-2.434,0.658-3.66,0.936c-32.59,7.258-39.064,1.033-31.68-30.48
		c0.826-3.518,2.771-7.086,2.449-10.488c-2.672-28.285,15.768-36.814,40.469-39.74c0.059,19.312,0.113,38.629,0.172,57.939
		c-0.324,2.209-0.646,4.436-0.967,6.648C539.083,523.648,536.815,528.708,534.557,533.771z"/>
	<path fill="#1588C8" d="M69.543,283.387c0.285-22.783,2.861-45.099,14.843-65.489c1.347,0.156,2.688,0.304,4.03,0.46l-0.21-0.148
		c2.61,2.47,5.212,4.938,7.819,7.413l-0.171-0.135c7.362,7.735,17.333,6.812,26.878,7.321l-0.081-0.085
		c0.587,11.002-5.005,20.972-6.185,31.506c-2.392,21.428-15.192,28.419-35.942,26.529l0.277,0.121
		C77.047,288.379,73.297,285.886,69.543,283.387z"/>
	<path fill="#1588C8" d="M544.293,371.894c-0.338,14.062-0.674,28.116-1.008,42.168c-0.307,9.69-0.615,19.384-0.926,29.068
		c-3.754,2.23-7.377,4.709-11.293,6.635c-14.484,7.139-21.934,1.316-22.611-12.658c-0.826-16.834,0.27-33.759-0.332-50.623
		c-0.559-15.683,14.047-14.302,22.783-19.598l-0.133,0.106c3.93-0.311,7.857-0.616,11.793-0.927
		C543.143,368.007,543.713,369.955,544.293,371.894z"/>
	<path fill="#1588C8" d="M526.624,226.655c-0.121,0.906,0.068,1.749,0.57,2.527c2.18,7.753,4.361,15.498,6.527,23.261
		c0.535,6.769,1.068,13.526,1.605,20.282c0.014,7.128-6.729,16.276,6.471,19.441c-0.184,0.8-0.059,1.551,0.377,2.252
		c-0.092,8.428-0.188,16.856-0.279,25.289c-9.965-6.612-10.812-20.582-22.818-25.545c3.781-0.523,5.682-2.024,3.301-5.742
		c1.928-4.708,6.779-10.195,0.236-13.997c-6.121-3.551-13.93-7.64-20.322-6.811c-8.674,1.126-4.59,10.556-6.078,16.391
		c-6.023-6.4-3.043-16.879-11.201-22.316c0,0,0.121,0.254,0.121,0.251c-1.27-9.724-2.537-19.441-3.809-29.166l-0.141,0.106
		c1.332-1.264,2.654-2.523,3.986-3.788l-0.213,0.142c7.793-0.729,16.246,2.22,23.121-3.71l-0.174,0.12
		c3.916-2.719,7.834-5.444,11.748-8.163C521.977,220.545,524.303,223.596,526.624,226.655z"/>
	<path fill="#1588C8" d="M81.288,587.878c-0.037-9.188-3.822-17.254-8.373-25.086c-3.502-21.332,14.661-18.414,26.917-20.936
		c14.33-2.959,13.718,8.354,16.278,16.898c4.853,16.191,14.175,38.09,28.711,38.068c33.223-0.041,14.795,21.723,20.281,32.771
		c2.644,5.324,2.484,11.85,7.219,16.42l-0.054-0.043c-0.022,4.234-0.039,8.471-0.061,12.701
		c-4.945,19.158-16.127,19.789-31.007,9.424c0,0,0.088,0.271,0.095,0.271c0.844-10.592-6.439-11.66-14.828-11.449
		c-1.23-0.035-2.465-0.084-3.698-0.17l0.019,0.07c-2.487-2.654-4.982-5.312-7.471-7.957c-1.835-6.082-6.279-10.203-11.44-13.785
		c-0.1-2.406-0.199-4.807-0.294-7.207c4.056-13.686,20.759-11.561,32.011-21.893c-14.255,0.186-25.258,6.055-35.892,0.357
		c-5.001-5.061-10-10.115-15.005-15.18C83.563,590.066,82.427,588.968,81.288,587.878z"/>
	<path fill="#1588C8" d="M237.371,254.153c-11.336-16.603-16.966-35.457-23.635-53.9c-0.425-2.191-1.931-5.742-1.088-6.343
		c3.808-2.741,5.777,2.732,9.279,2.668l-0.084-0.106c-0.042,8.128,2.582,15.407,7.694,21.906l-0.078-0.163
		c1.654,4.375,0.216,10.867,8.239,10.881C250.064,237.597,245.271,245.891,237.371,254.153z"/>
	<path fill="#1588C8" d="M390.227,200.183c-9.111,21.183-12.027,45.146-30.859,61.965c0.518-18.781,6.459-35.733,18.801-50.552
		c3.498-3.187,3.951-7.3,3.926-11.566c0,0-0.178,0.251-0.178,0.245c1.338-1.268,2.678-2.532,4.018-3.802l-0.135,0.046
		C387.272,197.74,388.749,198.961,390.227,200.183z"/>
	<path fill="#1588C8" d="M193.316,677.277c-7.806,14.781-13.254,28.893,4.838,41.453c7.61,5.287,5.786,13.211,2.464,21.189
		c-8.532,20.496-16.177,41.326-24.172,62.021c-0.501,0.928-0.718,1.902-0.665,2.945c-1.82,3.795-3.645,7.582-5.464,11.369
		c-1.021,2.357-2.041,4.725-3.063,7.08c-7.295,9.396-13.056,9.502-19.283-1.508c-6.477-11.455-7.321-22.648-2.254-34.408
		c9.298-21.574,18.771-43.082,28.123-64.635c7.958-18.336,3.837-28.838-14.933-37.666c-8.02-3.771-16.043-7.363-17.707-17.021
		c14.879,10.365,26.062,9.742,31.007-9.438c4.619-4.736,10.255-1.059,15.365-1.688l-0.166-0.084
		C194.212,662.423,196.372,669.164,193.316,677.277z"/>
	<path fill="#1588C8" d="M354.827,743.447c-7.766,6.627-18.318,1.891-26.719,5.92c-4.707-0.043-9.416-0.08-14.117-0.092
		c-4.232-4.104-8.474-8.217-12.705-12.328c-0.019-5.389-0.186-10.789-0.033-16.178c0.237-8.326-0.786-17.168,10.322-20.846
		c11.674-3.852,23.137-7.604,32.416,4.307c0,0-0.221-0.299-0.217-0.299c1.365,1.297,2.738,2.6,4.104,3.896l-0.236-0.305
		c0.656,9.074,1.986,17.969,7.77,25.648l-0.107-0.205C355.145,736.458,354.983,739.949,354.827,743.447z"/>
	<path fill="#1588C8" d="M260.182,746.554c-1.144-1.061-2.289-2.123-3.437-3.178c-13.378-10.52,3.021-21.479-0.534-32.145
		l-0.095,0.154c3.127-1.621,3.727-4.453,3.94-7.463l-0.139,0.248c9.793-9.82,22.33-7.899,34.562-7.276l-0.219-0.171
		c8.749,13.318-1.969,26.605-0.065,39.919C283.193,740.99,273.474,749.318,260.182,746.554z"/>
	<path fill="#1588C8" d="M198.997,254.514c7.91,8.805,9.6,20.327,14.635,30.398c3.899,7.799-0.529,11.908-8.027,14.681
		c-4.612,1.706-13.449,3.122-3.048,9.55c2.526,6.096-1.015,7.498-6.352,7.201c-22.003-1.24-43.88-3.958-64.692-10.776
		c-8.271-2.712-18.843-7.377-15.363-19.244c3.845-13.126,4.23-27.357,12.979-39.018c19.072-10.04,33.162,4.089,48.755,9.668
		c5.557,1.993,9.438,8.336-1.313,10.063c-4.643,0.751-7.405,1.602-5.319,6.345c2.18,4.956,5.75,4.425,10.765,2.941
		C193.685,272.873,195.487,263.259,198.997,254.514z"/>
	<path fill="#1588C8" d="M195.192,243.59c1.868,1.521,2.148,3.246,0.703,5.186C195.658,247.052,195.425,245.321,195.192,243.59z"/>
	<path fill="#1588C8" d="M351.02,613.882c4.254,15.463,14.727,28.9,16.309,45.229c-2.686,12.486-7.645,19.889-24.188,17.229
		c-3.734-0.594-23.229-3.23-22.18,13.396c-2.266,0.189-4.531,0.375-6.803,0.564c-8.914-8.992-18.982-16.893-24.79-28.561
		c-2.75-5.52-10.984-9.768-15.404-4.426c-13.366,16.129-24.795,7.088-36.943-0.459c2.548-15.184,11.177-28.279,16.19-42.615
		c7.193-1.281,13.443,2.27,20.134,3.385c21.229,3.525,42.918,9.295,62.986-4.227l-0.104,0.061
		C341.161,613.599,346.088,613.742,351.02,613.882z M276.75,638.931c-2.152-1.363-3.429-2.797-4.78-2.854
		c-1.556-0.078-4.265,0.771-4.566,1.742c-0.976,3.164,1.805,3.887,4.273,3.703C273.124,641.41,274.47,640.142,276.75,638.931z"/>
	<path fill="#1588C8" d="M107.577,319.935c1.408-2.309,2.816-4.617,4.233-6.918c19.71-6.287,37.708,4.128,56.68,5.389
		c22.694,1.521,41.144,11.328,53.284,30.352l0.11,0.128c11.384,31.371,12.338,62.742,0,94.108l-0.106,0.121
		c-32.094,15.391-68.595,13.721-102.222,23.66c-13.583,4.016-19.375-6.867-17.933-18.604c3.018-24.56,1.405-48.873,0.022-73.46
		C100.637,356.658,110.132,338.724,107.577,319.935z"/>
	<path fill="#1588C8" d="M229.682,573.697c0.986,14.449-2.906,27.566-11.887,39.307c-11.626-5.875-20.11-5.287-25.57,8.305
		c-2.883,7.189-4.849,24.328-19.21,7.25c-5.089-16.02-4.219-31.564,4.114-46.525c5.285-2.633,12.243-3.547,13.04-12.156
		c-7.606,0.646-10.616,6.244-14.806,10.174c-15.042,13.035-31.476,11.236-43.795-5.363c-9.348-12.598-12.763-27.686-15.2-42.354
		c-2.172-13.035-3.309-26.182-7.23-38.949c-3.193-10.42,0.4-18.576,11.854-20.686c25.337-4.666,49.94-13.223,76.422-12.098
		c13.068,0.557,19.378,5.869,25.608,16.992c13.922,24.879,15.703,46.938-4.724,69.516
		C205.811,560.91,224.491,565.285,229.682,573.697z"/>
	<path fill="#1588C8" d="M259.541,396.312c7.5,17.153,15.071,34.281,22.465,51.478c2.52,5.863,1.77,11.762-0.749,17.547
		c-7.252,16.637-14.46,33.297-21.693,49.941c-13.376,0.631-19.083-6.789-21.676-18.066c-2.981-12.951-6.53-26.34-15.896-36.109
		c-7.021-7.324,3.048-12.195-0.213-17.986l0.106-0.121c12.018-6.104,13.193-17.743,15.322-28.461
		C239.634,402.324,245.15,394.721,259.541,396.312z"/>
	<path fill="#1588C8" d="M173.011,628.558c14.365,17.07,16.327-0.061,19.21-7.25c5.464-13.592,13.944-14.188,25.57-8.305
		c-3.836,10.926-7.667,21.85-11.496,32.787c-1.431,3.498-2.861,6.996-4.292,10.494c0,0-0.095-0.086-0.087-0.078
		c-4.834,0.227-9.672,0.461-14.51,0.688l0.164,0.084c-3.627-5.52-7.526-10.693-15.306-11.002l0.054,0.043
		C172.551,640.199,172.782,634.378,173.011,628.558z"/>
	<path fill="#1588C8" d="M252.434,533.679c-9.358,12.479-4.506,32.293-22.923,40.109c-7.932-16.887-0.148-31.004,8.897-44.816
		c2.571-3.93,5.231-9.229,11.191-7.521C256.891,523.535,251.75,529.488,252.434,533.679z"/>
	<path fill="#1588C8" d="M385.637,313.492c13.992,13.359-3.178,23.052-4.506,34.621c-3.84,5.381-7.893,10.719-4.91,18.705
		c6.428-5.246,5.656-11.512,7.275-16.957c22.615-37.517,65.057-29.828,99.91-39.202c6.301-1.692,7.803,7.116,13.004,9.225
		c10.586,40.47,0.248,82.03,7.232,122.804c3.572,20.821-6.551,27.456-27.562,22.038c-16.453-4.23-33.15-8.486-50.021-10.215
		c-33.922-3.477-48.107-15.59-51.557-48.107c-0.924-8.771-0.139-17.708-0.139-28.171c-8.617,7.582-15.711,16.808-25.408,4.248
		c8.58-21.551,17.395-43.025,25.58-64.718C376.915,311.481,380.102,310.603,385.637,313.492z"/>
	<path fill="#1588C8" d="M344.426,515.117c-7.18-16.582-14.463-33.127-21.49-49.773c-2.949-6.984-2.256-14.096,0.686-21.014
		c6.84-16.085,13.713-32.165,20.574-48.243c14.496-1.636,23.482,3.135,23.68,18.28c0.016,1.161,0.656,2.313,0.996,3.477
		c11.441,39.089,10.688,38.898,0.08,76.802C365.188,508.085,357.838,513.941,344.426,515.117z"/>
	<path fill="#1588C8" d="M496.676,319.715c-3.842-24.73-3.842-24.73,22.4-25.552c12.002,4.963,12.85,18.933,22.812,25.545
		c0.02,10.805,0.037,21.622,0.055,32.427c-3.727,4.949-7.445,9.898-11.18,14.854l0.139-0.099
		c-19.844,2.833-25.736-8.354-26.721-24.206C503.672,334.392,505.522,325.506,496.676,319.715z"/>
	<path fill="#1588C8" d="M522.377,288.421c-7.707,3.512-15.09,2.691-22.229-1.48c-1.262-1.104-2.52-2.202-3.771-3.306
		c0,0-0.162,0.364-0.162,0.369c1.484-5.834-2.602-15.264,6.074-16.391c6.395-0.829,14.209,3.26,20.324,6.818
		C529.155,278.229,524.303,283.712,522.377,288.421z"/>
	<path fill="#1588C8" d="M132.906,665.296c-2.144-2.795-4.288-5.586-6.436-8.375c8.385-0.219,15.669,0.857,14.829,11.441
		C138.495,667.343,135.702,666.324,132.906,665.296z"/>
	<path fill="#1588C8" d="M252.425,281.125c12.191-13.986,32.021-12.085,46.317-12.925c16.456-0.97,37.321,0.637,52.682,12.821
		c-4.352-1.253-8.879-2.096-12.957,0.157c-2.557,1.402-5.67,3.607-6.334,6.004c-1.039,3.759,3.418,4.803,6.141,5.409
		c11.225,2.499,11.637,7.831,7.408,17.105c-8.064,17.679-14.566,36.001-22.016,53.943c-2.5,6.025-4.436,13.048-13.445,13.387
		c-2.346-1.868-6.611-3.929-7.479-1.408c-1.306,3.795,3.788,2.195,6.026,3.13c11.686,12.615-2.09,19.724-6.146,31.117
		c-13.564-15.208-12.648-33.695-22.029-48.421c-9.367-14.698-13.616-32.277-20.834-48.307c-4.468-9.912-7.242-18.153,7.858-21.275
		c2.907-0.598,6.565-2.7,3.686-6.354C266.458,279.379,259.664,278.92,252.425,281.125z"/>
	<path fill="#1588C8" d="M259.832,598.886c13.452-32.709,26.908-65.428,42.137-102.443c15.264,37.072,28.708,69.734,42.157,102.396
		c1.094,6.689-3.893,10.422-7.893,14.627l0.104-0.061c-14.963,0.834-29.764,5.77-44.8,2.994
		C279.102,614.109,264.535,614.244,259.832,598.886z"/>
	<path fill="#1588C8" d="M314.157,690.304c-5.73,4.666-12.34,6.867-19.901,6.422l0.219,0.172
		c-6.522-9.354-16.666-6.773-25.781-6.695c-9.302,0.078-18.633,3.086-27.854-0.562c0-0.006-0.84-1.021-0.84-1.021l0.976,0.891
		c0.633,5.636,3.411,8.949,9.89,8.162c5.284-0.646,8.584,1.142,9.046,6.508l0.14-0.248c-1.316,2.486-2.623,4.973-3.94,7.464
		l0.095-0.155c-5.603,2.883-6.707,8.143-7.817,13.389c-2.096,9.871-7.826,15.812-18.989,15.902
		c-19.8-12.871-20.24-28.652-9.24-47.402c6.745-11.49,11.312-24.135,16.855-36.256c12.148,7.549,23.577,16.588,36.943,0.453
		c4.421-5.338,12.654-1.09,15.404,4.434C295.179,673.412,305.245,681.32,314.157,690.304z"/>
	<path fill="#1588C8" d="M221.778,348.757c2.479-11.767-13.464-22.126-2.942-34.508c4.814-3.845,7.623-2.365,9.655,2.896
		c7.849,20.278,15.865,40.491,23.823,60.726c-0.691,4.539-0.229,10.457-7.7,9.303c-6.076-0.935-8.777-5.671-10.633-11.017
		c-3.252-9.387,0.727-21.722-12.094-27.271L221.778,348.757z"/>
	<path fill="#1588C8" d="M496.375,283.635c1.256,1.104,2.514,2.202,3.771,3.306C498.885,285.837,497.631,284.739,496.375,283.635z"
		/>
	<path fill="#1588C8" d="M276.75,638.931c-2.28,1.211-3.627,2.48-5.073,2.596c-2.468,0.184-5.25-0.539-4.273-3.703
		c0.302-0.979,3.011-1.82,4.566-1.742C273.316,636.128,274.596,637.564,276.75,638.931z"/>
</g>
</svg>
