<?xml version="1.0" encoding="utf-8"?>
<!-- Generator: Adobe Illustrator 16.0.4, SVG Export Plug-In . SVG Version: 6.00 Build 0)  -->
<!DOCTYPE svg PUBLIC "-//W3C//DTD SVG 1.1//EN" "http://www.w3.org/Graphics/SVG/1.1/DTD/svg11.dtd">
<svg version="1.1" id="Layer_1" xmlns="http://www.w3.org/2000/svg" xmlns:xlink="http://www.w3.org/1999/xlink" x="0px" y="0px"
	 width="608.575px" height="857.207px" viewBox="0 0 608.575 857.207" enable-background="new 0 0 608.575 857.207"
	 xml:space="preserve">
<g>
	<path fill="#F79B20" d="M153.247,47.251c7.543-1.614,15.088-3.224,22.625-4.833c7.607-0.272,15.215-0.536,22.826-0.812
		c0,0,0.908-0.116,0.898-0.099c6.909,25.519,9.014,27.913,16.58,21.064c20.419-18.487,44.52-15.864,68.596-15.393
		c1.795-1.44,3.59-2.881,5.378-4.325l-0.036-0.107c1.657-1.453,3.316-2.916,4.973-4.369c4.771,0.214,9.707-0.045,13.003,4.468
		c0,7.553,0.279,15.125-0.076,22.661c-0.273,5.729,1.635,13.608-6.005,15.339c-8.496,1.917-4.9-10.162-13.406-14.371
		c4.676,11.254-6.949,27.847,3.791,27.667c21.882-0.364,42.366,10.229,64.198,6.814c-0.422-4.932-3.453-5.967-6.262-6.716
		c-38.162-10.229-38.17-10.202-37.23-48.612c25.551-6.537,51.6-1.029,77.32-3.22c-0.602,20.654-2.82,40.992-15.703,58.19
		c-5.869,7.83,0.508,9.047,5.125,11.059c3.807,1.649,7.771,1.779,7.496-4.285c-1.059-23.977,10.996-45.559,12.525-69.053
		c17.83-3.985,32.957,7.371,49.834,8.789c10.459,9.034,28.113-1.155,36.422,13.623c1.59,1.601,3.176,3.205,4.758,4.807
		c12.797,0.842,20.266,9.965,28.314,18.179c2.631,3.112,5.26,6.225,7.895,9.347l-0.141-0.09c0.461,6.422,4.564,10.426,9.275,14.033
		c0.059,1.432,0.406,2.8,1.053,4.079c0.738,5.833,4.145,10.149,8.096,14.149c-0.018,1.44,0.283,2.812,0.908,4.115
		c2.609,3.585,5.232,7.18,7.85,10.769c0.488,2.493,0.975,4.981,1.457,7.478c0.109,2.872,0.219,5.753,0.328,8.629
		c-0.443,1.712-0.885,3.42-1.334,5.123l0.275-0.25c-10.76,4.642-21.518,9.275-32.271,13.912l0.33-0.169
		c-3.139,1.578-6.27,3.143-9.406,4.718l0.146-0.169c-8.467,10.879-2.119,19.298,4.605,27.649l-0.131-0.271
		c0.188,7.514,0.375,15.026,0.553,22.544c-5.938,1.682-15.648-2.157-15.959,8.165c-0.328,11.009-4.928,15.674-15.336,13.996
		c-10.68-1.721-16.121-8.467-14.16-19.396c4.008-22.305-19.332-25.97-27.428-40.132c-2.461-4.29-8.092,0.74-9.045,5.707
		c-1.32,6.85-0.453,13.592,2.834,19.893c4.586,8.797,18.633,18.438,9.072,26.812c-8.564,7.509-20.633-3.872-30.199-9.597
		c-3.689-2.202-8.771-3.067-9.721-9.381c5.084-7.634,30.895-10.952,8.992-25.676c-10.971-7.375-18.98-17.033-28.979-24.854
		c0.506-6.082,0.998-12.164,1.494-18.251c13.031-24.226,31.574-34.071,58.98-24.114c6.73,2.448,13.91,0.28,11.881-11.285
		c-18.678,6.206-36.527-1.428-54.82-2.605c-3.457-0.222-8.873-6.88-8.461,3.193c0.504,12.262-9.689,22.309-7.387,34.977
		c-18.242,17.591-15.693,42.521-22.654,64.094c-17.551,1.08-34.678-0.045-51.369-6.715c-11.659-4.665-23.918-4.325-35.331,1.502
		c-14.805,7.567-30.109,8.731-46.035,4.941c-6.918-26.651-7.076-55.68-27.387-77.609c-1.461-10.042,0.881-19.664,7.041-31.722
		c-8.113,3.434-12.323,6.903-16.227,6.582c-21.353-1.735-45.474,20.721-63.908-6.948l0.137,0.215
		c-1.578-3.139-3.159-6.288-4.74-9.431l0.248,0.339c-2.68-8.879-5.425-17.726-13.916-23.103l0.153,0.254
		c-0.272-4.713-0.546-9.422-0.821-14.14c0.279-2.835,0.562-5.662,0.842-8.494C128.728,53.44,140.987,50.346,153.247,47.251z"/>
	<path fill="#F79B20" d="M454.456,617.632c4.82,21.232,6.916,42.699,2.99,64.236c-1.553,8.521-2.205,18.219-11.863,22.838
		c-9.027-0.143-17.039,2.283-23.326,9.133c-4.594,3.023-9.164,2.393-13.721-0.09c-11.508-15.75-21.512-32.693-36.459-45.695
		c-5.725-10.971-5.453-20.682,4.592-29.555c10.189-8.998,14.318-20.896,13.598-34.449c8.803-5.139,16.51-12.314,28.305-12.344
		c-6.393-6.68-11.277-11.406-15.734-16.508c-24.027-27.521-25.125-53.195-4.281-93.496c13.172-25.471,35.152-17.443,55.834-14.992
		c5.984,0.713,12.104,0.295,18.162,0.402c20.482,13.912,51.121,4.326,68.414,31.146c0-10.336,0-18.477,0-26.607
		c14.861-5.859,31.582-5.604,45.715-13.857c11.16,33.861,3.41,66.688-5.41,99.471c-22.338,8.48-1.732,25.883-7.832,37.742
		c-0.25,2.773-0.506,5.564-0.758,8.35c-1.809,3.256-3.613,6.51-5.42,9.771c-4.275,8.972-8.541,17.941-12.816,26.914
		c-10.111,3.959-17.137,18.781-29.486,12.717c-13.66-6.693-6.18-21.635-7.438-32.939c-0.902-8.146,0.523-16.557,0.906-24.838
		c4.9-5.234,4.334-11.789,4.41-18.191c17.348-11.951,7.184-27.691,6.047-42.184c-2.074,14.01-4.143,28.038-6.215,42.049
		c-7.488-10.193-4.402-22.021-4.639-33.148c-0.877-41.254-4.881-43.93-43.295-31.311c-9.521,3.139-11.449,8.375-11.422,16.588
		c0.039,12.904-0.016,25.809-0.027,38.713c-3.883,16.658,7.555,36.082-9.066,50.459c-0.908-0.857-1.812-1.729-2.719-2.586
		c-0.264,0.668-0.531,1.346-0.797,2.022C451.944,617.47,453.198,617.55,454.456,617.632z"/>
	<path fill="#F79B20" d="M422.25,713.847c6.287-6.848,14.301-9.271,23.328-9.141c7.154,7.438,10.68,15.928,9.662,26.604
		c-0.617,6.438-2.355,14.83,5.805,17.848c6.738,2.486,19.426-8.86,24.742-13.132c-1.5-4.92,1.088-85.297,3.5-87.422
		c2.027-1.785,0.145,87.283,2.139,85.456c3.992-3.655,9.943-9.187,13.977-12.8c4.922-4.406,9.881-8.479,13.066,1.598
		c0.021,3.061,0.037,6.115,0.057,9.168c0.305,22.783,0.611,45.562,0.918,68.355c-3.537,11.049-18.074,12.521-28.682,10.299
		c-2.025-0.424,2.668-76.482,0.664-76.62c-0.996-0.067-4.646,1.979-5.639,1.966c-1.486-0.021-3.305,75.379-5.523,75.578
		c-4.234,0.385-11.771,2.222-16.029,2.271c-3.32-2.979-6.635-5.957-9.947-8.938c-0.021-1.517-0.189-3.015-0.504-4.491
		c0.061-4.539,0.123-9.091,0.186-13.639c0.025-3.051,0.047-6.1,0.07-9.148c-2.84-10.506-6.418-4.002-9.877-0.428
		c-15.146-1.76-16.121,15.375-26.543,19.902c-4.902,2.488-9.809,4.979-14.709,7.465c-4.262,3.959-8.521,7.919-12.787,11.896
		c-7.516,0.615-15.02,1.221-22.533,1.828c0,0,0.32-0.152,0.32-0.145c-1.654-2.282-2.928-1.784-3.951,0.543
		c-0.531,1.408-0.895,2.854-1.09,4.346c-11.537,1.213-24.492-2.898-33.213,8.861c-14.342,1.195-23.836-6.055-30.821-17.684
		c-1.581-22.135-1.581-43.609,23.125-54.613c0-0.01,0.078-0.207,0.078-0.207c2.592-0.793,5.188-1.596,7.781-2.389
		c-2.627-0.854-5.254-1.721-7.877-2.578c0.881-8.258-1.812-22.678,12.52-6.805c3.408,3.781,8.984,5.584,10.229,11.359
		c1.387,3.303,2.773,6.594,4.168,9.885c1.09,0.854-0.691,4.645,2.963,2.896c-0.762-1.158-1.525-2.309-2.291-3.469
		c7.529-3.031,15.061-6.074,22.592-9.105c0.051-1.441,0.068-2.891,0.051-4.322c0-0.012,0.896-1.07,0.896-1.07l-1.07,0.893
		c-4.951-8.979-16.822-7.02-27.141-15.943c21.469,1.316,39.002,1.891,40.365-22.341c0.066-1.237,3.678-2.272,5.637-3.396
		c0,0,0.004,0.158,0,0.158c0.895,8.518,2.975,16.59,8.604,23.348c2.502,2.693,5.102,11.595,7.898,6.324
		c6.406-12.074,20.266-16.125,29.363-29.021C429.68,713.847,425.963,713.847,422.25,713.847z"/>
	<path fill="#F79B20" d="M207.788,814.97c-11.587-12.014-29.236-15.625-39.915-29.135c-3.493-4.424-8.104-10.104-15.183-6.725
		c-5.757,2.754-3.982,9.199-4.999,14.125c-0.758,3.666-0.667,7.502-0.95,11.264c-1.072,1.41-2.156,2.818-3.232,4.229
		c-4.56,2.299-18.517,1.635-23.221,2.376c-2.341,0.369-1.389-71.303-3.753-71.178c-3.564,0.188-5.637-8.812-6.247-5.271
		c-0.583,3.385,2.352,76.527,0,76.448c-5.101-0.173-15.742,2.249-20.787,2.688c-1.821-2.604-3.643-5.207-5.465-7.803
		c0,0-0.604-0.99-0.595-0.99c0.457-18.148-0.044-36.387,1.698-54.408c1.068-11.051-2.688-25.112,12.238-31.133
		c3.208,3.462,9.751,11.667,12.911,15.196c2.141,2.393,0.706-130.768,3-128.552c1.527,1.476,1.6,132.488,3.247,133.822
		c3.3,2.674,8.528,6.353,12.562,8.167c4.266,1.918,13.604,5.859,13.219-0.398c-1.099-17.882,10.116-34.023,5.722-51.877
		c-0.08-1.885-0.163-3.771-0.241-5.662l1.033-0.688l1.211,0.258c10.54-6.275,20.381-13.025,21.275-27.002
		c0.352-5.459,1.219-11.471,8.979-9.641c5.094,1.203,12.248,3.924,10.675,9.783c-4.169,15.498,7.46,25.041,11.812,37.258
		c-2.928,4.531-5.854,9.061-8.784,13.602c-1.786,1.453-3.571,2.916-5.357,4.369c-8.04,0.455-14.287,3.268-14.679,12.434
		c-0.061,1.393,2.479,4.139,3.816,4.139c7.242,0,8.648-6.564,11.615-11.31c1.539-3.212,3.08-6.411,4.613-9.62
		c4.365-0.117,8.735-0.242,13.099-0.352c3.244-1.396,6.489-2.78,9.731-4.174c5.129,0.945,8.2,3.969,9.189,9.098
		c-4.762,4.404-18.326,3.8-12.646,13.652c4.256,7.383,10.599-5.146,17.187-4.609c3.028,0.035,6.06,0.07,9.087,0.105
		c4.062,3.041,3.805,19.184,13.708,4.521c9.785-2.271,12.19-9.963,13.533-18.434c25.292,4.949,23.962,36.545,45.407,45.34
		c-5.918,1.721-11.828,3.436-17.746,5.152l-0.266-0.168c-11.52-12.574-26.808-8.232-40.929-9.115
		c-5.366-4.379-9.864-12.217-18.255-4.592c-4.559-0.072-9.115-0.136-13.672-0.205c0,0.008-1.154-0.82-1.154-0.82l0.831,1.15
		c4.937,12.592,13.122,20.227,27.671,18.174l0.053,0.162c-2.998,5.617-5.232,11.414-4.479,17.961l-0.241,0.365
		c-4.791,1.221-8.435,4.254-8.39,9.123c0.156,16.861-10.57,19.084-23.729,18.504C210.579,814.675,209.181,814.81,207.788,814.97z"/>
	<path fill="#F79B20" d="M44.263,156.737c3.939-14.481,9.783-28.153,17.381-41.085c4.521-3.612,8.277-7.687,8.53-13.912
		c5.054-4.606,9.538-9.556,10.14-16.841c4.77-1.865,7.99-5.213,9.667-10.047c2.718-1.752,5.429-3.505,8.146-5.253
		c7.516,0.491,12.505,5.824,18.322,9.574l-0.153-0.255c0.72,10.06,2.74,19.334,13.916,23.103c0,0-0.248-0.339-0.248-0.335
		c1.581,3.14,3.162,6.287,4.74,9.427l-0.135-0.214c7.92,16.899-5.138,25.96-13.694,36.697l0.191-0.195
		c-1.612,1.613-3.22,3.219-4.826,4.834l0.265-0.269c-1.621,1.618-3.242,3.246-4.862,4.86l-0.096,0.071
		c-6.544,0.856-14.198-0.161-19.421,2.925C75.01,169.949,59.635,166.593,44.263,156.737z"/>
	<path fill="#F79B20" d="M577.688,348.378c-30.482-0.098-35.959-4.673-34.693-34.78c0.512-12.146-5.137-21.761-8.014-32.338
		c-3.881-14.277-5.328-25.032,20.26-26.005c-10.861-4.449-14.904-6.104-18.936-7.749c2.162-8.485-5.232-22.147,8.047-24.248
		c9.406-1.489,17.059,5.931,17.678,18.215c0.408,8.093,8.957,5.614,14.385,6.697c13.889,8.396,13.318,23.13,15.973,36.443
		c-0.174,9.079-0.338,18.157-0.508,27.227c-3.037,8.927-6.59,17.756-5.33,27.513c-4.895,1.213-8.479,3.729-9.104,9.186
		L577.688,348.378z"/>
	<path fill="#F79B20" d="M15.874,457.875c13.734,9.641,30.68,8.721,45.77,13.902c0,0-0.127-0.16-0.127-0.152
		c0.069,20.227-0.796,40.418,6.789,59.967c4.927,12.697,2.43,25.121-6.393,35.902c-13.95,7.145-36.562,6.84-28.363,33.016
		c-2.754-5.062-5.503-10.131-8.256-15.188c3.158-15.021-3.27-27.771-9.538-40.568C13.468,515.796,10.911,486.83,15.874,457.875z"/>
	<path fill="#F79B20" d="M44.263,156.737c15.372,9.855,30.742,13.212,47.865,3.086c5.223-3.094,12.875-2.068,19.419-2.934
		c-0.787,8.044-5.329,12.405-13.237,13.443c-11.049,1.338-16.995,4.099-15.096,18.652c2.256,17.238-4.1,34.999-12.347,50.039
		c-10.88,19.843-30.364,10.247-46.934,8.98c-0.139-9.087-0.283-18.175-0.431-27.262C28.353,198.742,20.567,172.63,44.263,156.737z"
		/>
	<path fill="#F79B20" d="M586.081,453.021c-40.4,3.221-40.4,3.221-40.533-39.747c-0.004-1.498,0.092-3.022-0.061-4.516
		c-2.715-27.308-1.957-52.741,32.197-60.384l-0.248,0.16c3.289-0.535,6.57-1.061,9.859-1.596c5.379,2.318,9.721,6.725,7.934,12.181
		C585.19,389.811,595.965,422.425,586.081,453.021z"/>
	<path fill="#F79B20" d="M15.878,256.937c12.914,0.147,25.832,0.094,38.734,0.504c11.113,0.357,19.501,6.992,14.502,17.238
		c-7.346,15.072-7.768,30.82-9.516,46.365c-2.421,21.466-17.227,27.521-34.45,31.944c-3.088-1.489-6.173-2.987-9.261-4.477
		c2.739-15.152-1.67-28.797-8.827-41.862c0.033-8.605,0.061-17.211,0.094-25.825c5.848-6.913,8.824-14.778,8.026-23.914
		L15.878,256.937z"/>
	<path fill="#F79B20" d="M33.545,600.509c-8.191-26.176,14.418-25.871,28.359-33.016c12.237,0.143,11.99,12.653,18.392,18.576
		c0.143,6.312-1.521,13.039,4.138,18.104c-0.038,9.123-0.526,18.273-0.013,27.361c0.925,16.516-6.471,24.168-22.951,23.069
		c-1.242-0.25-2.497-0.421-3.766-0.5c-3.59-7.091-7.037-14.276-14.068-18.771c0.049-1.328-0.17-2.604-0.662-3.834
		c-0.092-6.422-3.859-10.693-8.452-14.492c0.073-1.311-0.14-2.561-0.649-3.771C33.769,608.99,33.659,604.746,33.545,600.509z"/>
	<path fill="#F79B20" d="M576.411,248.165c-5.43-1.087-13.977,1.4-14.385-6.697c-0.621-12.289-8.273-19.699-17.678-18.214
		c-13.279,2.1-5.887,15.758-8.047,24.243c-13.355-10.327-7.379-29.269-18.168-40.737l0.131,0.275
		c-1.533-9.221-3.068-18.433-4.605-27.654l-0.146,0.169c3.143-1.568,6.273-3.139,9.406-4.708l-0.33,0.169
		c12.367-0.909,26.549,2.398,32.271-13.912l-0.275,0.25c2.955,0.099,5.908,0.195,8.867,0.303c0.871,1.454,1.746,2.908,2.627,4.37
		c2.219,4.713,4.43,9.418,6.639,14.136c0.475,4.379,0.939,8.757,1.402,13.136c-0.379,14.313,2.172,28.061,7.904,41.197
		C580.149,239.048,578.276,243.608,576.411,248.165z"/>
	<path fill="#F79B20" d="M285.462,814.578c-2.827,6.027-9.172,7.58-14.041,11.031c-7.926,2.346-15.424,1.328-22.532-2.818
		c-12.22-10.523-3.297-23.883-4.796-35.842l0.244-0.365c7.231-4.557,11.752-9.791,4.479-17.961l-0.057-0.16
		c14.499-8.24,30.375-2.756,45.516-4.602l0.264,0.17C295.238,781.554,291.521,798.275,285.462,814.578z"/>
	<path fill="#F79B20" d="M284.772,47.189c-24.076-0.478-48.182-3.096-68.596,15.383c-7.566,6.849-9.671,4.459-16.58-21.06
		c7.219-1.094,14.426-2.172,21.631-3.26c19.305,9.248,39.728,1.596,59.485,3.959c1.155,0.625,2.356,1.143,3.612,1.535
		C284.543,44.879,284.69,46.029,284.772,47.189z"/>
	<path fill="#F79B20" d="M70.909,699.5c-0.352-6.029-3.262-10.443-8.447-13.432c-0.018-7.295-0.043-14.58-0.074-21.889
		c16.84-8.016,23.113-1.623,21.945,15.762c-0.544,8.1-0.174,16.25-0.209,24.383l0.346,0.393
		C79.95,702.976,75.425,701.238,70.909,699.5z"/>
	<path fill="#F79B20" d="M244.098,786.949c1.499,11.959-7.425,25.316,4.796,35.852c-1.555,0.188-3.11,0.375-4.662,0.562
		c-4.216-0.152-8.434-0.312-12.659-0.455c-6.537-2.783-13.062-5.564-19.591-8.338c13.154,0.588,23.885-1.635,23.729-18.496
		C235.666,791.203,239.309,788.171,244.098,786.949z"/>
	<path fill="#F79B20" d="M198.698,41.614c-7.611,0.271-15.219,0.535-22.826,0.812C183.274,36.237,190.903,36.772,198.698,41.614z"/>
	<path fill="#F79B20" d="M518.092,705.875c0-16.461-0.1-26.031,0.037-35.6c0.082-5.707,1.936-10.453,8.689-10.648
		c8.221-0.24,9.512,5.584,9.729,11.959C536.946,683.669,530.11,692.007,518.092,705.875z"/>
	<path fill="#F79B20" d="M518.522,263.01c-30.137,13.39-62.531,17.457-94.609,22.736c-11.514,1.891-15.146-12.244-25.006-12.396
		c15.539,36.064-16.465,63.229-21.291,96.199c-1.312,8.953-13.584,5.421-21.799,2.131c-18.262-7.321-36.434-15.321-56.716-15.205
		c-7.047-13.127-16.127-23.188-17.455-41.398c-1.471-20.226-4.799-47.136-31.497-58.243c-6.771-2.813-10.8-12.227-16.085-18.607
		l0.807,0.156c7.318,0.272,15.009,1.444,18.529-7.576c12.392-2.136,25.614,0.75,37.104-7.05c6.68-4.535,14.817-4.843,21.448-0.65
		c11.65,7.371,24.357,6.456,37.029,6.929c9.373,9.529,24.898,10.221,32.348,22.509l-0.139-0.143
		c1.029,3.781-0.754,10.769,5.27,9.596c4.061-0.793-0.266-6.108-0.744-9.417c18.553-15.299,12.592-27.307-5.062-37.749
		c0.072-13.854-1.818-28.106,8.094-39.967c10.014,7.812,18.02,17.475,28.982,24.841c21.902,14.728-3.902,18.046-8.988,25.676
		c0.949,6.321,6.027,7.179,9.721,9.39c9.568,5.716,21.637,17.097,30.201,9.592c9.557-8.374-4.488-18.01-9.074-26.812
		c-3.285-6.305-4.148-13.047-2.834-19.887c0.955-4.977,6.59-10.002,9.047-5.707c8.094,14.156,31.438,17.817,27.426,40.131
		c-1.963,10.924,3.477,17.676,14.16,19.387c10.41,1.678,15.016-2.982,15.338-13.991c0.307-10.327,10.018-6.483,15.957-8.165
		c0.006-0.005-0.309,0.254-0.309,0.245C518.42,240.71,518.475,251.857,518.522,263.01z"/>
	<path fill="#F79B20" d="M390.403,604.173c-14.871,20.021-26.547,42.979-50.293,54.855c0,0,0.127-0.115,0.123-0.115
		c-15.924,0.148-31.85,0.088-47.758,0.516c-31.931,0.857-54.701-13.127-69.975-41.041c-3.744-6.84-4.928-16.578-14.857-18.879
		l0.096,0.135c2.209-35.652,18.438-55.311,46.043-54.516c-28.354-12.477-29.993-40.176-39.121-63.666
		c-0.896-2.311-4.608-3.523-7.01-5.234l0.088,0.105c-4.584-9.969-5.43-19.094,0.994-29.43c5.886-9.48,7.891-21.313,13.402-31.099
		c5.379-9.561-1.735-26.354,12.634-29.261c26.899-5.439,50.505-26.317,80.134-18.112c17.393,4.815,32.789,15.526,51.076,17.988
		c0.717,0.098,1.424,0.517,2.062,0.9c11.521,6.911,30.201,71.479,24.844,83.875c-5.045,11.674-11.605,22.553-12.936,36.025
		c-1.229,12.422-8.898,20.664-21.646,26.424c-37.09,16.76-58.49,20.266-93.454,10.01c11.232,19.645,28.451,17.896,43.927,16.316
		c11.785-1.203,23.049-7.035,34.68-10.354c28.418-8.09,44.725,3.684,47.107,34.062C391.094,590.476,390.485,597.343,390.403,604.173
		z"/>
	<path fill="#F79B20" d="M189.78,311.787c26.246,36.519,35.037,87.264,14.59,124.906c-7.777,14.312-21.832,23.25-39.861,21.377
		c-23.225-2.398-43.242,9.721-65.254,14.785c36.399-0.645,73.18-17.621,108.475,3.479l-0.086-0.105
		c-0.061,8.996-1.184,18.191,3.246,26.551c18.962,35.717-4.014,61.031-21.575,87.727l0.226-0.133
		c-3.102,1.561-6.207,3.121-9.307,4.672l0.1-0.08c-6.117,2.926-12.752,5.109-18.259,8.926
		c-15.593,10.793-19.606,4.111-18.585-11.447c1.057-16.068-4.65-31.98-3.652-47.486c1.42-22.002-6.096-32.41-27.273-38.09
		c-17.874-4.799-24.531-0.49-23.889,17.271c0.191,5.314,0.16,10.646,0.229,15.963c0.363,12.061-5.357,24.055-0.39,36.162
		c-3.821-1.088-7.884-3.021-7.656-7.205c1.187-21.535-6.575-41.479-10.229-62.141c-1.879-10.648-2.231-21.314,10.198-28.066
		c-8.077-3.021-13.698-5.127-19.321-7.229l0.13,0.16c-0.096-37.932,0.753-75.901-0.763-113.777
		c-0.611-15.303,7.045-27.468,9.455-41.389c25.593,12.013,40.771,1.338,46.158-32.452c2.992,0.08,5.986,0.16,8.979,0.24
		c3.839,14.109,22.938,8.883,27.336,20.315C161.878,328.321,174.165,326.698,189.78,311.787z M132.308,339.808
		c1.251-3.416,2.096-7.055,3.873-10.176c1.809-3.174,5.045-5.564,6.753-8.784c5.542-10.434-5.046-20.413-14.195-13.252
		C115.564,317.896,125.751,328.749,132.308,339.808z"/>
	<path fill="#F79B20" d="M499.317,467.746c-8.941-0.178-17.883-0.365-26.816-0.553c-9.52-9.973-22.008-8.775-34.09-8.998
		c-19.229-0.365-31.387-8.535-39.961-27.104c-21.236-45.954-9.826-86.504,15.951-125.807c3.863-5.894,8.982-9.881,16.334-11.236
		c27.926-5.146,55.793-10.604,83.668-16.017c12.748-2.479,13.857,8.071,15.154,15.33c4.736,26.539,14.416,52.215,8.348,80.503
		c-3.59,16.722-0.945,34.771-1.105,52.233c-10.119,2.961-16.525,10.891-21.271,19.084
		C510.788,453.353,511.088,464.677,499.317,467.746z"/>
	<path fill="#F79B20" d="M225.546,215.874c0.575,1.711,1.15,3.424,1.741,5.146c0.026,5.876,0.044,11.749,0.071,17.622
		c-9.215,10.942-18.408,21.902-27.675,32.809c-9.032,10.631-20.456,15.385-34.312,13.003c-20.664-3.55-41.195-7.768-61.902-11.156
		c-20.974-3.434-27.919-18.585-22.626-39.368c3.142-12.339,8.026-24.235,12.134-36.328c5.199-0.812,10.632-0.919,15.551-2.56
		c20.132-6.716,29.752,11.709,43.509,18.996c13.036,6.897-12.379,11.668-4.04,21.589c14.793,1.035,24.469-3.438,23.283-21.055
		c-0.462-6.849,0.153-13.725,8.322-16.757c8.129-3.006,9.895,4.61,14.338,7.981C203.218,212.832,213.638,216.827,225.546,215.874z"
		/>
	<path fill="#F79B20" d="M225.546,215.874c-11.912,0.953-22.333-3.042-31.609-10.078c-4.443-3.371-6.21-10.987-14.338-7.981
		c-8.17,3.032-8.78,9.908-8.323,16.757c1.186,17.617-8.49,22.09-23.282,21.055c-8.339-9.925,17.075-14.695,4.039-21.589
		c-13.756-7.287-23.376-25.712-43.508-18.996c-4.919,1.641-10.353,1.748-15.552,2.56c1.771-9.088,3.547-18.175,5.329-27.263
		c7.907-1.043,12.453-5.404,13.24-13.448c0,0.009,0.096-0.062,0.096-0.062c1.621-1.614,3.238-3.242,4.858-4.86l-0.266,0.269
		c1.612-1.615,3.22-3.221,4.827-4.834l-0.191,0.195c14.474-1.293,23.628-14.019,38.572-16.355
		c18.708-2.93,34.872-3.55,48.287,11.696c-2.483,17.6,10.174,30.754,13.771,46.614C223.487,198.265,226.783,206.688,225.546,215.874
		z"/>
	<path fill="#F79B20" d="M229.663,238.392c1.469-0.25,2.941-0.299,4.408-0.16c5.277,6.376,9.307,15.789,16.077,18.603
		c26.696,11.107,30.025,38.018,31.497,58.243c1.328,18.211,10.408,28.271,17.455,41.398c-16.642,4.887-33.405,9.391-49.889,14.75
		c-18.83,6.136-28.502,0.839-32.084-18.585c-0.275-1.489,0.309-3.38-0.408-4.485C190.571,307.943,210.2,273.181,229.663,238.392z"/>
	<path fill="#F79B20" d="M15.495,416.217c0.021-4.289,0.047-8.579,0.068-12.868c16.334,1.668,26.804-8.398,37.223-18.564
		c4.396,21.395,2.976,43.401-1.656,63.815c-4.065,17.908-17.014,6.396-26.237,0.99c-0.361-2.604-0.723-5.209-1.088-7.805
		l-0.005,0.518C39.444,427.739,20.95,424.057,15.495,416.217z"/>
	<path fill="#F79B20" d="M116.491,284.15c-5.389,33.799-20.566,44.465-46.157,32.461c0.04-5.939-0.548-11.958,0.259-17.791
		c2.118-15.321,7.625-25.845,26.346-18.112C102.912,283.169,109.944,283.08,116.491,284.15z"/>
	<path fill="#F79B20" d="M499.317,467.746c11.771-3.068,11.471-14.396,16.193-22.553c4.75-8.197,11.162-16.125,21.279-19.097
		c6.936,14.707,3.816,30.357,4.301,45.681C526.272,479.759,512.813,473.542,499.317,467.746z"/>
	<path fill="#F79B20" d="M189.78,311.787c-15.615,14.911-27.902,16.534-36.98-7.072c-4.393-11.433-23.497-6.216-27.336-20.324
		c16.003,3.434,32.098,6.502,47.979,10.435C181.985,296.947,187.231,303.342,189.78,311.787z"/>
	<path fill="#F79B20" d="M52.786,384.772c-10.419,10.175-20.891,20.244-37.223,18.566c-0.014-7.419-0.021-14.848-0.033-22.277
		c-0.25-11.468,2.426-19.048,16.722-15.143c6.987,1.918,13.415-0.276,15.549-8.641C55.308,365.385,51.854,375.479,52.786,384.772z
		 M33.462,382.15c-2.187-1.863-3.62-4.04-5.254-4.2c-1.434-0.143-4.199,1.766-4.443,3.111c-0.594,3.256,1.676,5.593,4.932,5.298
		C30.189,386.227,31.503,383.97,33.462,382.15z"/>
	<path fill="#F79B20" d="M47.801,357.287c-2.134,8.355-8.562,10.55-15.549,8.642c-14.296-3.906-16.972,3.674-16.722,15.133
		c-5.696-10.906-7.094-21.776,0.357-32.55c3.088,1.498,6.173,2.987,9.258,4.485C32.294,356.556,39.937,357.501,47.801,357.287z"/>
	<path fill="#F79B20" d="M15.495,416.217c5.455,7.84,23.949,11.517,8.31,26.078c0-0.01,0-0.518,0-0.518
		c0.365,2.604,0.727,5.209,1.088,7.811c-2.892-0.25-5.776-0.498-8.661-0.766c-0.253-5.816-0.51-11.643-0.764-17.463
		c0.049-4.878,0.096-9.767,0.145-14.646L15.495,416.217z"/>
	<path fill="#F79B20" d="M518.522,263.01c-0.051-11.152-0.102-22.304-0.148-33.456C522.151,240.692,532.104,251.796,518.522,263.01z
		"/>
	<path fill="#F79B20" d="M372.071,668.062c-0.91,9.604,2.969,17.076,10.07,23.268c6.562,5.717,9.133,13.146,8.709,21.717
		c-1.955,1.113-5.562,2.148-5.629,3.379c-1.367,24.23-18.9,23.668-40.371,22.34c10.32,8.938,22.193,6.977,27.143,15.945l0.184,0.18
		c0.021,1.443,0,2.891-0.051,4.334c-9.145-0.068-18.291-0.135-27.432-0.207c-1.242-5.783-6.818-7.588-10.227-11.357
		c-14.334-15.883-11.643-1.453-12.521,6.805c0.029,1.658,0.062,3.316,0.096,4.967c0,0-0.078,0.195-0.078,0.205
		c-3.219-0.25-6.438-0.5-9.668-0.748c-21.447-8.795-20.121-40.396-45.405-45.34c-2.221-19.869-18.739-26.969-32.566-36.467
		c-0.018-2.906-0.035-5.807-0.059-8.703c6.433-0.312,12.396-1.428,14.648-8.758c4.209,1.428,8.322,3.514,12.652,4.156
		c26.538,3.959,53.438,12.562,78.672-4.861l-0.133,0.117C352.231,656.835,362.235,662.15,372.071,668.062z"/>
	<path fill="#F79B20" d="M408.69,713.634c1.025,9.283-1.035,17.328-9.223,22.91c-5.633-6.76-7.709-14.83-8.607-23.348
		C396.805,713.339,402.745,713.482,408.69,713.634z"/>
	<path fill="#F79B20" d="M344.694,759.017c9.141,0.072,18.285,0.139,27.432,0.207c-7.529,3.031-15.061,6.062-22.592,9.104
		l-0.678,0.572C347.469,765.609,346.081,762.31,344.694,759.017z"/>
	<path fill="#F79B20" d="M322.045,759.427c-0.033-1.646-0.068-3.309-0.096-4.967c2.625,0.857,5.25,1.713,7.875,2.568
		C327.227,757.841,324.639,758.634,322.045,759.427z"/>
	<path fill="#F79B20" d="M349.534,768.328c0.762,1.15,1.523,2.311,2.291,3.461c-3.654,1.758-1.873-2.033-2.963-2.898
		C348.858,768.9,349.534,768.328,349.534,768.328z"/>
	<polygon fill="#F79B20" points="371.999,754.71 373.071,753.82 372.176,754.89 	"/>
	<path fill="#F79B20" d="M150.032,689.724c-9.094-20.188-7.194-41.379-5.696-62.521c12.062-10.674,29.546-15.303,36.007-32.238
		l-0.101,0.08c3.105-1.562,6.204-3.121,9.306-4.672l-0.225,0.133c7.545,0.205,12.484,5.672,18.416,9.142
		c0,0-0.096-0.134-0.092-0.134c0.064,9.418,2.775,19.141,8.713,25.211c11.141,11.391,12.414,32.135,32.555,34.906
		c-2.252,7.32-8.215,8.438-14.639,8.748c-2.465,0.178-4.939,0.355-7.415,0.535c-12.552-6.537-8.47,4.137-9.677,9.346
		c-4.802,7.295-9.606,14.58-14.408,21.865c-4.348-12.217-15.977-21.758-11.808-37.258c1.573-5.854-5.581-8.58-10.677-9.783
		c-7.758-1.82-8.629,4.184-8.977,9.641C170.417,676.697,160.571,683.447,150.032,689.724z"/>
	<path fill="#F79B20" d="M234.321,677.08c13.827,9.498,30.346,16.596,32.566,36.465c-1.342,8.463-3.75,16.16-13.533,18.426
		c-2.352-8.229-6.74-10.281-13.709-4.521c-3.025-0.035-6.059-0.07-9.086-0.099c-1.516-3.017-3.027-6.026-4.539-9.044
		c-0.99-5.129-4.064-8.148-9.189-9.104c-1.617-1.598-3.238-3.193-4.854-4.789c1.333-8.604,6.697-14.082,13.99-18.068
		c0.789,5.689-1.722,12.844,5.721,15.75c3.164,1.238,6.191-1.186,6.227-4.549c0.083-7.693-5.651-9.908-11.939-11.209
		C228.761,683.251,231.541,680.166,234.321,677.08z"/>
	<path fill="#F79B20" d="M189.388,723.345c-2.967,4.754-4.375,11.311-11.615,11.311c-1.338,0-3.877-2.746-3.817-4.129
		c0.393-9.178,6.64-11.984,14.684-12.434C188.896,719.841,189.14,721.597,189.388,723.345z"/>
	<path fill="#F79B20" d="M226.021,718.298c1.516,3.014,3.028,6.027,4.539,9.043c-6.588-0.535-12.935,11.994-17.187,4.609
		C207.694,722.097,221.259,722.705,226.021,718.298z"/>
	<path fill="#F79B20" d="M239.646,727.449c6.969-5.771,11.357-3.711,13.709,4.52C243.454,746.64,243.71,730.498,239.646,727.449z"/>
	<path fill="#F79B20" d="M253.349,754.755c-7.922,5.779-14.483,6.146-18.254-4.594C243.487,742.537,247.983,750.367,253.349,754.755
		z"/>
	<path fill="#F79B20" d="M248.819,768.623c7.273,8.178,2.754,13.412-4.479,17.961C243.591,780.039,245.819,774.232,248.819,768.623z
		"/>
	<path fill="#F79B20" d="M207.099,713.376c1.625-2.988,3.251-5.984,4.877-8.965c1.617,1.598,3.232,3.186,4.855,4.789
		C213.589,710.593,210.341,711.984,207.099,713.376z"/>
	<polygon fill="#F79B20" points="221.099,750.287 220.269,749.136 221.429,749.957 	"/>
	<path fill="#F79B20" d="M148.032,695.824c-2.305-1.803-2.793-3.674-0.236-5.662C147.874,692.042,147.952,693.933,148.032,695.824z"
		/>
	<path fill="#F79B20" d="M15.612,416.716c-0.044,4.88-0.096,9.769-0.145,14.646C11.943,426.446,11.478,421.56,15.612,416.716z"/>
	<path fill="#F79B20" d="M381.327,252.54c2.623-12.614-8.893-24.983-0.676-37.705c17.654,10.43,23.615,22.441,5.062,37.745
		c-1.508-0.187-3.014-0.245-4.525-0.179L381.327,252.54z"/>
	<path fill="#F79B20" d="M234.865,238.383c5.188-4.95,11.206-7.866,18.53-7.581C249.874,239.822,242.185,238.65,234.865,238.383z"/>
	<path fill="#F79B20" d="M132.308,339.808c-6.553-11.059-16.743-21.912-3.576-32.212c9.152-7.152,19.74,2.818,14.197,13.252
		c-1.707,3.22-4.944,5.61-6.753,8.784C134.403,332.753,133.554,336.392,132.308,339.808z"/>
	<path fill="#F79B20" d="M33.462,382.15c-1.955,1.811-3.268,4.076-4.771,4.209c-3.255,0.285-5.521-2.042-4.933-5.298
		c0.246-1.346,3.011-3.254,4.444-3.111C29.842,378.11,31.275,380.287,33.462,382.15z"/>
	<path fill="#F79B20" d="M226.861,668.91c-3.229,3.104-6.456,6.217-9.681,9.328C218.388,673.048,214.305,662.365,226.861,668.91z"/>
	<path fill="#F79B20" d="M225.976,686.335c6.283,1.303,12.018,3.514,11.939,11.211c-0.035,3.361-3.059,5.779-6.227,4.539
		c-7.445-2.908-4.932-10.051-5.721-15.74L225.976,686.335z"/>
</g>
</svg>
