<?xml version="1.0" encoding="utf-8"?>
<!-- Generator: Adobe Illustrator 16.0.4, SVG Export Plug-In . SVG Version: 6.00 Build 0)  -->
<!DOCTYPE svg PUBLIC "-//W3C//DTD SVG 1.1//EN" "http://www.w3.org/Graphics/SVG/1.1/DTD/svg11.dtd">
<svg version="1.1" id="Layer_1" xmlns="http://www.w3.org/2000/svg" xmlns:xlink="http://www.w3.org/1999/xlink" x="0px" y="0px"
	 width="252.002px" height="35.666px" viewBox="-118.5 423 252.002 35.666" enable-background="new -118.5 423 252.002 35.666"
	 xml:space="preserve">
<g>
	<path fill="#FFFFFF" d="M-116.5,433.391h22.175v3.695h3.695v14.783h-7.391v-14.782h-11.086v14.784h-7.391L-116.5,433.391
		L-116.5,433.391z"/>
	<path fill="#FFFFFF" d="M-86.933,437.087h3.696v-3.695h18.479v3.695h3.695v7.392h-18.479v3.695h14.784v3.697h-18.479v-3.697h-3.696
		V437.087z M-79.542,437.087v3.695h11.087v-3.695H-79.542z"/>
	<path fill="#FFFFFF" d="M-57.368,433.391h7.391v11.087h3.697v-3.695h3.695v3.695h3.696v-11.087h7.391v14.783h-3.695v3.695h-7.392
		v-3.695h-3.695v3.695h-7.392v-3.695h-3.696V433.391z"/>
	<path fill="#FFFFFF" d="M-12.803,437.087h3.696v-3.695h22.174v18.479H9.372v3.695H-9.107v-3.695H5.676v-3.697H-9.107v-3.695h-3.696
		V437.087L-12.803,437.087z M-5.412,437.087v7.392H5.676v-7.392H-5.412z"/>
	<path fill="#FFFFFF" d="M16.764,437.087h3.694v-3.695h22.175v18.479H20.458v-3.697h-3.694V437.087z M24.155,437.087v11.086h11.087
		v-11.086H24.155z"/>
	<path fill="#FFFFFF" d="M46.329,433.391h11.087v3.695h3.695v-3.695h7.391v3.695h3.695v14.783h-7.391v-11.086h-3.696v3.695h-3.695
		v-3.695h-3.695v11.086h-7.392V433.391z"/>
	<path fill="#FFFFFF" d="M75.896,437.087h3.696v-3.695H98.07v3.695h3.695v7.392H83.286v3.695H98.07v3.697H79.592v-3.697h-3.696
		V437.087z M83.286,437.087v3.695h11.089v-3.695H83.286z"/>
	<path fill="#FFFFFF" d="M105.461,429.695h3.696V426h18.479v3.695h3.695v7.391h-3.695v3.697h-3.694v3.695h-11.088v-3.695h3.696
		v-3.697h7.392v-7.391h-11.088v3.696h-7.393V429.695z M112.854,448.174h11.088v3.697h-11.088V448.174z"/>
</g>
</svg>
