<?xml version="1.0" encoding="utf-8"?>
<!-- Generator: Adobe Illustrator 16.0.4, SVG Export Plug-In . SVG Version: 6.00 Build 0)  -->
<!DOCTYPE svg PUBLIC "-//W3C//DTD SVG 1.1//EN" "http://www.w3.org/Graphics/SVG/1.1/DTD/svg11.dtd">
<svg version="1.1" id="Layer_1" xmlns="http://www.w3.org/2000/svg" xmlns:xlink="http://www.w3.org/1999/xlink" x="0px" y="0px"
	 width="252.333px" height="36.333px" viewBox="0 0 252.333 36.333" enable-background="new 0 0 252.333 36.333"
	 xml:space="preserve">
<g>
	<path fill="#BF2026" d="M1.675,11.42h22.283v3.714h3.714v14.855h-7.427V15.134H9.103v14.855H1.675V11.42z"/>
	<path fill="#BF2026" d="M31.386,15.134h3.714V11.42h18.569v3.714h3.714v7.428H38.814v3.714h14.855v3.713H35.101v-3.713h-3.714
		V15.134z M38.814,15.134v3.714h11.142v-3.714H38.814z"/>
	<path fill="#BF2026" d="M61.097,11.42h7.427v11.142h3.715v-3.714h3.713v3.714h3.714V11.42h7.428v14.855H83.38v3.713h-7.428v-3.713
		h-3.713v3.713h-7.428v-3.713h-3.714V11.42z"/>
	<path fill="#BF2026" d="M105.494,15.134h3.714V11.42h22.283v18.569h-3.714v3.714h-18.569v-3.714h14.855v-3.713h-14.855v-3.714
		h-3.714V15.134z M112.921,15.134v7.428h11.142v-7.428H112.921z"/>
	<path fill="#BF2026" d="M135.204,15.134h3.714V11.42h22.283v18.569h-22.283v-3.713h-3.714V15.134z M142.632,15.134v11.142h11.142
		V15.134H142.632z"/>
	<path fill="#BF2026" d="M164.915,11.42h11.142v3.714h3.713V11.42h7.428v3.714h3.714v14.855h-7.427V18.848h-3.715v3.714h-3.713
		v-3.714h-3.714v11.141h-7.428V11.42z"/>
	<path fill="#BF2026" d="M194.626,15.134h3.714V11.42h18.569v3.714h3.714v7.428h-18.57v3.714h14.856v3.713H198.34v-3.713h-3.714
		V15.134z M202.053,15.134v3.714h11.142v-3.714H202.053z"/>
	<path fill="#BF2026" d="M224.336,7.706h3.714V3.993h18.569v3.713h3.714v7.428h-3.714v3.714h-3.714v3.714h-11.142v-3.714h3.715
		v-3.714h7.427V7.706h-11.142v3.714h-7.428V7.706z M231.764,26.275h11.142v3.713h-11.142V26.275z"/>
</g>
<g id="iwGsCY.tif">
	
		<image overflow="visible" width="1022" height="372" id="Layer_0" xlink:href="711C4F03CA8A2640.png"  transform="matrix(1 0 0 1 -313.2046 84)">
	</image>
</g>
</svg>
