<?xml version="1.0" encoding="utf-8"?>
<!-- Generator: Adobe Illustrator 16.0.4, SVG Export Plug-In . SVG Version: 6.00 Build 0)  -->
<!DOCTYPE svg PUBLIC "-//W3C//DTD SVG 1.1//EN" "http://www.w3.org/Graphics/SVG/1.1/DTD/svg11.dtd">
<svg version="1.1" id="Layer_1" xmlns="http://www.w3.org/2000/svg" xmlns:xlink="http://www.w3.org/1999/xlink" x="0px" y="0px"
	 width="215.652px" height="35.153px" viewBox="0 0 215.652 35.153" enable-background="new 0 0 215.652 35.153"
	 xml:space="preserve">
<g>
	<path fill="#BD2227" d="M2.105,9.253h24.969v4.161h4.161v12.484h-4.161v4.162H10.428v4.162H2.105V9.253z M10.428,13.415v12.484
		h12.485V13.415H10.428z"/>
	<path fill="#BD2227" d="M56.204,0.93v24.969h8.323v4.162H39.558v-4.162h8.324V9.253h-4.162V5.092h4.162V0.93H56.204z"/>
	<path fill="#BD2227" d="M84.542,9.253h8.323V5.092h8.323v4.162h8.322v4.161h-8.322v12.484h4.162v-4.161h8.322v4.161h-4.162v4.162
		H97.026v-4.162h-4.162V13.415h-8.323V9.253z"/>
	<path fill="#BD2227" d="M117.833,9.253h8.322v16.646h12.484V9.253h8.324v20.807h-24.969v-4.162h-4.161V9.253z"/>
	<path fill="#BD2227" d="M151.125,9.253h24.969v4.161h4.161v4.162h-8.323v-4.162h-12.484v16.646h-8.323V9.253z"/>
	<path fill="#BD2227" d="M184.416,9.253h24.97v4.161h4.161v16.646h-8.323V13.415h-12.485v16.646h-8.323V9.253z"/>
</g>
</svg>
