<?xml version="1.0" encoding="utf-8"?>
<!-- Generator: Adobe Illustrator 16.0.4, SVG Export Plug-In . SVG Version: 6.00 Build 0)  -->
<!DOCTYPE svg PUBLIC "-//W3C//DTD SVG 1.1//EN" "http://www.w3.org/Graphics/SVG/1.1/DTD/svg11.dtd">
<svg version="1.1" id="Layer_1" xmlns="http://www.w3.org/2000/svg" xmlns:xlink="http://www.w3.org/1999/xlink" x="0px" y="0px"
	 width="292.13px" height="36.239px" viewBox="0 0 292.13 36.239" enable-background="new 0 0 292.13 36.239" xml:space="preserve">
<g>
	<path fill="#D61F20" d="M4,10.132h23.963v3.994h3.994v11.981h-3.994v3.995H11.988v3.994H4V10.132z M11.988,14.126v11.981h11.981
		V14.126H11.988z"/>
	<path fill="#D61F20" d="M55.92,2.144v23.963h7.988v3.995H39.945v-3.995h7.987V10.132h-3.994V6.137h3.994V2.144H55.92z"/>
	<path fill="#D61F20" d="M99.853,10.132h7.988v11.981h3.994v-3.994h3.994v3.994h3.994V10.132h7.988v15.975h-3.995v3.995h-7.987
		v-3.995h-3.994v3.995h-7.988v-3.995h-3.994V10.132z"/>
	<path fill="#D61F20" d="M139.792,10.132h11.981v15.975h3.994v3.995h-15.976v-3.995h3.994V14.126h-3.994L139.792,10.132
		L139.792,10.132z M151.773,2.144v3.994h-7.988V2.144H151.773z"/>
	<path fill="#D61F20" d="M163.755,10.132h23.963v3.994h3.994v15.976h-7.987V14.126h-11.981v15.976h-7.988V10.132L163.755,10.132z"/>
	<path fill="#D61F20" d="M195.707,26.107h15.976v-3.994h-11.981v-3.994h-3.994v-3.994h3.994v-3.994h19.969v3.994h-11.982v3.994
		h11.982v3.994h3.994v3.994h-3.994v3.995h-23.963V26.107L195.707,26.107z"/>
	<path fill="#D61F20" d="M247.626,2.144v3.994h3.994V18.12h-3.994v3.994h-7.987V18.12h-3.995V6.137h3.995V2.144H247.626z
		 M239.639,26.107h7.987v3.995h-7.987V26.107z"/>
	<path fill="#D61F20" d="M279.578,2.144v3.994h3.994V18.12h-3.994v3.994h-7.988V18.12h-3.993V6.137h3.993V2.144H279.578z
		 M271.589,26.107h7.988v3.995h-7.988V26.107z"/>
</g>
</svg>
