<?xml version="1.0" encoding="utf-8"?>
<!-- Generator: Adobe Illustrator 16.0.4, SVG Export Plug-In . SVG Version: 6.00 Build 0)  -->
<!DOCTYPE svg PUBLIC "-//W3C//DTD SVG 1.1//EN" "http://www.w3.org/Graphics/SVG/1.1/DTD/svg11.dtd">
<svg version="1.1" id="Layer_1" xmlns="http://www.w3.org/2000/svg" xmlns:xlink="http://www.w3.org/1999/xlink" x="0px" y="0px"
	 width="217.195px" height="35.473px" viewBox="0 0 217.195 35.473" enable-background="new 0 0 217.195 35.473"
	 xml:space="preserve">
<g>
	<path fill="#C72128" d="M7.47,21.989V9.505h12.484h12.484v2.081v2.081h2.081h2.081v4.162v4.161H34.52h-2.081v2.081v2.081h-8.323
		h-8.323v4.161v4.162h-4.161H7.47V21.989z M28.277,17.828v-4.162h-6.242h-6.242v4.162v4.161h6.242h6.242V17.828z"/>
	<path fill="#C72128" d="M44.923,3.263V1.182h10.403H65.73v2.081v2.081h2.081h2.081v4.161v4.161h-2.081H65.73v2.081v2.081h-2.081
		h-2.081v2.081v2.08h-4.162h-4.161v2.081v2.081h8.322h8.323v2.081v2.081H55.326H40.762V26.15v-4.162h2.081h2.081v-2.08v-2.081h2.081
		h2.081v-2.081v-2.081h4.162h4.161v-2.081V9.505h2.081h2.081V7.424V5.344h-6.242h-6.242v2.081v2.081h-4.162h-4.161V7.424V5.344
		h2.081h2.081V3.263z"/>
	<path fill="#C72128" d="M94.958,5.344V1.182h4.162h4.162v4.162v4.161h4.161h4.161v2.081v2.081h-4.161h-4.161v8.323v8.323H99.12
		h-4.162v-8.323v-8.323h-4.161h-4.162v-2.081V9.505h4.162h4.161V5.344z"/>
	<path fill="#C72128" d="M115.766,17.828V9.505h4.162h4.161v8.323v8.323h6.243h6.242v-8.323V9.505h4.162h4.162v10.404v10.403
		h-12.484h-12.484v-2.081V26.15h-2.081h-2.081V17.828z"/>
	<path fill="#C72128" d="M153.218,19.909V9.505h4.162h4.162v2.081v2.081h2.081h2.08v-2.081V9.505h6.243h6.242v2.081v2.081h-6.242
		h-6.243v2.081v2.081h-2.08h-2.081v6.242v6.242h-4.162h-4.162V19.909z"/>
	<path fill="#C72128" d="M182.348,19.909V9.505h12.484h12.485v2.081v2.081h2.08h2.081v8.323v8.323h-4.161h-4.163v-8.323v-8.323
		h-6.242h-6.242v8.323v8.323h-4.162h-4.161V19.909z"/>
</g>
</svg>
