<?xml version="1.0" encoding="utf-8"?>
<!-- Generator: Adobe Illustrator 16.0.4, SVG Export Plug-In . SVG Version: 6.00 Build 0)  -->
<!DOCTYPE svg PUBLIC "-//W3C//DTD SVG 1.1//EN" "http://www.w3.org/Graphics/SVG/1.1/DTD/svg11.dtd">
<svg version="1.1" id="Layer_1" xmlns="http://www.w3.org/2000/svg" xmlns:xlink="http://www.w3.org/1999/xlink" x="0px" y="0px"
	 width="608.575px" height="794.359px" viewBox="0 0 608.575 794.359" enable-background="new 0 0 608.575 794.359"
	 xml:space="preserve">
<g>
	<path fill="#E1393F" d="M393.995,23.291c5.553-0.296,11.111-0.6,16.674-0.896c15.537,6.728,31.35,11.403,48.389,13.989
		c17.865,2.713,30.695,17.882,46.615,26.06c2.744,3.262,5.482,6.53,8.227,9.797c1.76,3.698,3.516,7.4,5.268,11.098
		c3.768,5.942,7.531,11.88,11.291,17.818c3.721,11.833,9.684,22.438,17.584,31.968c2.809,6.64,5.627,13.271,8.436,19.915
		c0.807,2.705,1.602,5.41,2.404,8.115c2.902,13.076,1.502,26.96,7.412,39.466c1.025,10.088-5.363,21.28,4.465,30.059
		c-0.07,4.627,0.568,9.048,3.877,12.645c0.672,1.53,1.348,3.064,2.01,4.595c-0.42,4.319-0.836,8.643-1.256,12.962
		c-17.508-3.583-28.248-30.354-21.859-54.144c-5.375,11.407-38.564-31.364-26.062,14.868c-17.125-4.906-7.895-24.978-19.453-33.807
		c-3.311,9.248,4.07,16.952,2.58,25.468c-8.307-5.989-18.131-19.09-19.623,4.657c-0.377,6.027-3.266,11.479-10.605,10.819
		c-6.352-0.57-12.9-6.395-11.559-10.73c7.215-23.105-19.953-29.416-22.053-47.737c-0.572-5.008-5.395-8.635-11.24-7.747
		c-5.215,0.795-6.33,4.683-5.979,9.573c0.949,13.33-5.527,8.863-13.123,6.162c-14.074-5.008-20.574-18.977-32.873-25.811
		c0.426-4.336,0.848-8.668,1.27-13.005l-0.193,0.317c11.904-30.421,34.389-35.649,62.994-26.554
		c1.967,0.625,4.242,0.241,6.385,0.325c2.893,1.454,5.785,2.908,8.678,4.362c0.898,1.682,1.801,3.36,2.699,5.038
		c0.744-0.693,1.49-1.386,2.229-2.079c-1.672-0.956-3.34-1.902-5.016-2.853c-2.926-1.411-5.852-2.827-8.771-4.239
		c-0.473-4.023,0.41-8.918-5.969-9.086c-23.215-0.618-45.729-4.945-67.584-12.756l0.197,0.156
		C382.704,68.703,396.184,47.542,393.995,23.291z M499.323,155.686c-0.609,9.382-1.453,14.234,4.801,17.493
		C506.286,168.208,505.971,163.868,499.323,155.686z"/>
	<path fill="#E1393F" d="M545.579,584.992c-4.535,6.018-9.07,12.033-13.604,18.051c-13.531-6.09-13.656-23.594-26.088-30.615
		c-2.889-5.705-0.723-10.84,1.004-16.467c7.307-23.807,23.404-42.445,36.186-63.021c5.488-8.828,16.537-18.689,4.021-27.677
		c-14.678-10.545-19.307,5.771-25.24,14.228c-11.08,15.781-21.961,31.836-31.221,48.719c-7.221,13.158-15.117,18.734-30.768,14.713
		c-10.299-2.643-22.59-7.582-32.281,3.265c-4.209,1.526-8.418,3.057-12.629,4.586c-1.334-1.562-2.656-3.119-3.986-4.681
		c-3.336-3.76-6.686-7.498-10.002-11.271c-25.816-29.385-27.428-64.164-4.234-95.687c5.318-7.225,11.908-11.137,21.891-11.137
		c38.312,0,74.387,9.896,110.463,23.396c-0.545-6.382-1.021-12.007-1.512-17.64l-0.207,0.265c12.9-5.291,27.885-5.05,39.141-14.703
		c1.883,0.305,3.758,0.605,5.641,0.912c0.904,1.75,1.816,3.5,2.729,5.25c0.416,15.754,0.824,31.508,1.238,47.264
		c-0.473,5.479-0.941,10.955-1.404,16.436c-10.885,22.066-14.58,45.92-17.584,69.955c-2.697,7.146-5.393,14.291-8.09,21.438
		C547.891,582.039,546.735,583.518,545.579,584.992z"/>
	<path fill="#E1393F" d="M527.459,221.609c-12.504-46.232,20.686-3.461,26.062-14.868c-6.396,23.79,4.352,50.56,21.854,54.144
		c0.449,7.117,0.9,14.23,1.35,21.352c-1.887,8.719-3.768,17.434-5.658,26.153c1.596,4.328,3.197,8.651,4.795,12.975
		c1.061,8.584,2.119,17.176,3.176,25.764c-7.664,20.832-2.568,42.568-4.447,63.814c-2.572,2.24-5.143,4.472-7.715,6.712
		c-29.756,2.444-35.748-3.2-33.266-30.439c1.168-12.798,1.963-25.675,2.01-38.515c0.055-14.839,1.105-28.283,20.633-30.011
		c-8.176-2.033-16.342-4.062-24.518-6.086l0.164,0.266c-1.236-17.696,2.902-36.295-8.781-52.233l0.143,0.271
		c-6.516-17.649-2.852-30.27,17.191-34.804c-3.131-1.374-6.254-2.751-9.383-4.129C529.842,222.04,528.643,221.921,527.459,221.609z"
		/>
	<path fill="#E1393F" d="M402.944,699.844c-0.014-11.938,7.457-21.896,15.604-26.647c22.07-12.898,31.387-32.15,38.488-55.324
		c3.709-12.103,15.018-21.875,22.891-32.703c1.434-0.029,2.861-0.135,4.283-0.072c7.998,0.396,17.689-5.457,23.014,5.224
		c5.467,10.938-3.127,11.178-10.225,13.051c-3.688,0.977-1.053,2.865,0.727,3.682c14.641,6.656,2.98,13.646,0.164,20.332
		c-2.828,6.723-7.77,13.25-0.186,21.053c5.5-9.282,10.023-17.332,14.979-25.092c2.021-3.158,3.459-9.613,8.572-6.322
		c2.48,1.601,2.021,7.771,2.889,11.871c-0.508,3.771-1.01,7.539-1.518,11.326c-4.564,3.656-8.006,7.99-8.566,14.078
		c0,0,0.111-0.033,0.117-0.033c-8.242,5.479-16.002,11.392-19.391,21.287c-17.805-1.199-21.148,20.725-36.777,23
		c-1.416,1.191-2.836,2.391-4.256,3.588c0,0,0.045-0.088,0.049-0.088c-1.977,4.309-3.955,8.604-5.932,12.912
		c-6.42,8.854-15.689,9.111-25.283,8.381C416.042,715.516,409.497,707.686,402.944,699.844z"/>
	<path fill="#E1393F" d="M61.289,593.637C37.032,538.6,22.187,481.859,29.991,421.005c14.385,4.315,28.771,8.63,43.164,12.945
		l-0.142-0.157c-0.563,10.436,2.957,21.43-4.236,30.957c-19.16,2.957-21.233,7.908-10.729,24.176
		c16.73,25.906,39.669,48.883,39.79,82.787c-14.598,6.937-12.037,25.76-23.947,34.562c-2.999-2.666-6.001-5.337-9.004-8.003
		C63.685,596.732,62.487,595.188,61.289,593.637z"/>
	<path fill="#E1393F" d="M96.989,665.725c-3.22-5.312-6.441-10.625-9.666-15.938c-2.094-4.113-4.18-8.229-6.261-12.342
		c1.297-6.326-6.765-13.338,1.995-20.09c11.228,7.936,15.208,21.139,24.167,35.293c0.417-7.582,0.784-11.021,0.763-14.466
		c-0.053-9.387-12.546-20.735-6.492-25.52c18.34-14.478-8.081-9.197-6.165-16.74c1.507-5.895,1.524-11.76,8.54-12.43
		c5.543-0.521,11.279,0.934,16.931,1.514c24.894,25.676,43.572,55.674,60.562,86.857c-14.615-5.701-28.004-5.957-39.413,7.213
		c-3.787,4.369-9.668,5.985-15.697,5.729C115.944,679.289,108.747,669.018,96.989,665.725z"/>
	<path fill="#E1393F" d="M237.451,766.275c-5.171-0.113-10.342-0.23-15.519-0.334c-11.494-15.834-32.497-19.39-44.546-34.492
		c0.069-1.131-0.091-2.229-0.48-3.285c0.057-1.707,0.108-3.404,0.161-5.107c2.094-13.401,19.133-19.176,17.58-34.438
		c4.937,3.611,9.867,7.217,14.818,10.812c2.536,10.843,7.586,19.988,17.497,25.854c1.057,5.707,3.254,10.67,8.863,13.371
		c1.416,8.959,6.371,15.672,13.404,21.061C247.341,765.564,242.368,765.877,237.451,766.275z"/>
	<path fill="#E1393F" d="M194.65,688.623c1.545,15.262-15.49,21.035-17.584,34.439c-1.395,0.561-2.792,1.108-4.186,1.668
		c-3.717-0.543-7.438-1.099-11.167-1.644c-4.881-7.324-9.75-14.662-14.623-21.987c-3.911-1.271-7.827-2.546-11.754-3.816
		c-2.939-4.23-9.019-6.162-9.092-12.467c6.029,0.258,11.91-1.361,15.696-5.732c11.414-13.17,24.798-12.914,39.413-7.213
		C187.808,675.855,192.569,681.178,194.65,688.623z"/>
	<path fill="#E1393F" d="M402.944,699.844c6.553,7.842,13.098,15.668,19.645,23.5c0.189,3.01,0.383,6.027,0.578,9.043
		c-4.424,3.881-8.855,7.771-13.277,11.662c-2.705,1.572-5.414,3.146-8.125,4.713c-11.377,2.662-20.387,22.58-32.932,9.402
		c-12.648-13.275,6.119-22.006,11.754-31.732C386.239,716.666,389.92,703.91,402.944,699.844z"/>
	<path fill="#E1393F" d="M574.625,243.324c-3.311-3.597-3.943-8.017-3.877-12.645C574.354,234.183,574.831,238.65,574.625,243.324z"
		/>
	<path fill="#E1393F" d="M81.854,147.96c-2.99-0.241-5.986-0.478-8.977-0.71c-4.063-3.965-8.14-7.934-12.212-11.902
		c2.515-20.417,18.535-35.35,22.444-55.197c0.017,0.009-1.173-0.862-1.173-0.858c1.496-1.487,2.982-2.971,4.474-4.458L86.238,75
		c1.49-1.589,2.968-3.187,4.455-4.785c6.863-11.284,16.903-16.799,30.104-16.567c3.002,11.39,6.521,22.492,17.094,29.5l0.295,0.363
		c1.353,1.356,2.714,2.722,4.072,4.078l0.116,0.152c1.393,2.798,2.796,5.604,4.188,8.411l0.192,0.329
		c1.384,2.785,2.772,5.566,4.159,8.355l-0.008,0.004c-1.433,3.166-4.81,7.109-3.918,9.365c2.295,5.816,7.24,1.357,10.746,0.634
		c18.9-3.884,38.496-14.082,53.865,7.413c3.774,23.63,20.185,44.085,17.44,69.347c-10.65-1.374-21.941-1.991-28.705-11.83
		c-3.626-5.274-6.323-9.534-13.4-5.93c-6.466,3.297-9.898,8.039-8.334,15.565c1.429,6.864,5.088,15.047-4.753,18.077
		c-7.275,2.244-15.68,3.279-20.876-7.62c5.495-2.959,24.308-4.616,9.425-12.785c-16.113-8.846-33.817-25.899-56.261-12.895
		c2.064-10.008,4.125-20.021,6.181-30.033c1.446-1.403,2.899-2.802,4.349-4.201c1.342-1.563,2.684-3.127,4.025-4.691
		c7.591-0.921,12.597-4.548,15.955-14.032c-8.706,3.88-12.58,8.698-15.946,14.04c-1.523,1.378-3.047,2.76-4.562,4.142
		c-1.421,1.437-2.839,2.882-4.254,4.315c-2.726,1.805-5.45,3.61-8.18,5.41C96.755,142.475,89.441,142.69,81.854,147.96z"/>
	<path fill="#E1393F" d="M26.986,290.706c-0.583-2.768-1.173-5.524-1.756-8.288c-0.494-18.601,1.446-36.935,5.977-54.981
		c8.326,0.938,16.637,2.015,24.972,2.772c29.337,2.65,29.337,2.612,25.59,30.582c-11.802,6.91-7.899,19.023-9.37,29.183
		c-2.532,17.451-8.172,30.797-29.729,26.973l0.269,0.131c-2.944-1.479-5.881-2.963-8.825-4.434l0.091,0.038
		c-1.367-2.98-2.739-5.968-4.106-8.943C29.059,299.396,28.021,295.051,26.986,290.706z"/>
	<path fill="#E1393F" d="M60.662,135.349c4.072,3.968,8.148,7.937,12.212,11.902c0.091,1.373-0.346,3.216,0.372,4.061
		c6.199,7.245,21.544,1.729,23.026,12.802c2.231,16.597-5.484,32.624-11.05,47.796c-7.941,21.665-26.75,12.823-42.49,10.321
		c-1.416-0.224-2.861-0.279-4.294-0.414c-0.086-10.088-0.173-20.176-0.26-30.261c0.234-2.616,0.463-5.232,0.697-7.845
		c2.675-10.375,5.348-20.76,8.028-31.131c0.441-1.078,0.577-2.198,0.42-3.343c1.164-1.661,2.32-3.322,3.482-4.983
		c1.631-2.058,3.265-4.112,4.892-6.179C57.354,137.162,59.002,136.257,60.662,135.349z"/>
	<path fill="#E1393F" d="M295.073,23.65c3.816,0.097,7.633,0.203,11.451,0.296c25.877,5.667,51.695,4.742,77.484-0.588
		c2.432,20.933,1.855,41.004-16.064,56.109c-8.514-1.234-16.992-2.899-25.549-3.609c-18.244-1.504-36.518-2.54-33.699-31.773
		c3.945,19.467-8.629,25.037-20.197,32.069c27.927-2.21,52.666,10.309,79.078,11.297c3.695,3.195,7.982,4.725,12.855,4.615
		l-0.197-0.156c9.848,8.571,16.559,17.425,7.561,31.144c-2.873,4.382-2.229,11.069-3.199,16.703l0.197-0.321
		c-2.666,1.935-5.336,3.867-8.016,5.79c-7.617-7.578-15.361-14.868-22.082-23.448c-5.75-7.345-11.223-11.221-24.686-5.059
		c-14.018,6.411-34.029,0.351-51.307-1.377c-4.41-0.44-4.617-6.323-4.37-10.955c0.645-12.138-6.475-14.104-16.806-13.062
		c-8.548,0.857-17.242,0.211-25.872,0.232c-6.868-19.627-14.347-39.09-15.771-60.142l0.036-0.038
		c21.166-8.111,43.346-2.071,64.909-4.662c1.198,0.574,2.445,0.988,3.747,1.25c1.912,1.631,3.58,1.331,5.033-0.647
		c0,0,0.043-0.08,0.043-0.084C291.464,26.042,293.269,24.846,295.073,23.65z M275.389,77.045
		c-10.585-2.73-17.022-1.289-27.144,6.948C259.555,82.274,266.509,85.849,275.389,77.045z"/>
	<path fill="#E1393F" d="M527.586,433.748c-7.301,4.166-14.66,4.107-22.893,2.285c-27.33-6.047-53.902-15.45-82.537-15.865
		c-14.125-0.211-22.498-11.741-28.287-23.812c-10.381-21.684-16.584-44.139-10.029-70.504
		c-9.086,21.512-23.445,19.205-37.965,10.976c-31.553-17.878-62.625-11.259-93.237,1.39c-17.696,7.312-25.834,1.226-28.957-15.992
		c-1.031-5.664-2.2-11.301-3.519-16.906c-5.963-25.193-5.951-52.369,0.12-70.589l-0.091,0.144
		c7.734-3.436,8.791-10.215,8.787-17.527l-0.174,0.275c2.916-2.983,5.833-5.977,8.746-8.96c2.83-0.182,5.655-0.363,8.487-0.549
		c1.796-0.985,3.592-1.961,5.393-2.946c13.505-0.601,27.211,0.591,39.665-6.948c5.732-3.479,12.805-3.795,18.616-0.389
		c13.83,8.11,29.021,6.64,43.926,7.468c6.773,3.858,13.555,7.721,22.186,12.641c-4.895-22.121,1.896-41.541,0.111-61.151
		c2.535-1.45,5.066-2.895,7.596-4.345c12.299,6.834,18.799,20.802,32.873,25.811c7.598,2.7,14.072,7.167,13.123-6.162
		c-0.35-4.89,0.77-8.778,5.982-9.573c5.842-0.887,10.668,2.739,11.24,7.747c2.092,18.321,29.266,24.631,22.053,47.736
		c-1.348,4.345,5.205,10.165,11.555,10.731c7.346,0.66,10.23-4.792,10.607-10.82c1.494-23.748,11.318-10.646,19.619-4.657
		c12.533,18.136-6.355,23.973-13.473,34.416c-16.031-1.158-32.025,1.437-46.84,6.162c-26.229,8.373-47.359,4.759-63.869-18.266
		c-0.381-0.524-2.316,0.076-4.631,0.22c1.439,2.772,2.078,5.866,3.982,7.388c18.346,14.657,18.652,30.337,4.033,47.939
		c-4.695,5.655-8.322,12.717-1.312,21.056c1.76-3.284,3.189-5.676,4.355-8.182c9.967-21.364,21.461-37.89,48.994-42.057
		c18.229-2.755,39.123-1.424,55.477-14.023c12.367-3.102,18.074,7.129,25.969,12.979l-0.143-0.271
		c1.428,17.667-4.48,36.563,8.781,52.234l-0.162-0.266c-2.789,27.366-7.021,54.588-5.98,82.278
		c0.494,13.052,9.971,25.756,1.617,39.133L527.586,433.748z M423.352,191.458c-7.705,0.74-18.123,1.218-14.973,8.918
		c3.719,9.086,8.135,22.264,21.32,22.319c6.02,0.03,17.785,3.254,17.344-10.144C446.502,196.398,434.393,193.787,423.352,191.458z"
		/>
	<path fill="#E1393F" d="M30.417,411.588c-2.886-25.755,1.424-51.87-4.192-77.549c-1.536-7.053,0.169-14.37,4.378-20.684
		c1.209-0.156,2.416-0.38,3.601-0.672l-0.091-0.034c2.944,1.475,5.881,2.958,8.825,4.434l-0.269-0.131
		c8.573,6.923,25.719,3.229,25.629,20.908c-0.108,22.091,0.606,44.208-0.294,66.265c-0.541,13.355-8.102,19.407-21.791,14.049
		C40.899,416.098,35.682,413.791,30.417,411.588z"/>
	<path fill="#E1393F" d="M73.15,433.955c8.383-57.466-2.916-115.905,8.54-173.214c7.453-8.795,15.523-12.366,27.987-9.137
		c22.86,5.93,46.317,9.568,69.545,14.09c5.873,1.141,11.014,3.385,14.215,8.719c21.647,36.035,36.364,72.707,20.16,115.977
		c-8.115,21.655-22.081,30.197-43.663,30.658c-7.409,0.161-15.87-1.854-21.617,6.161c6.352,3.986,12.858,1.421,19.033,1.971
		c14.473,1.297,33.215-5.643,40.812,11.529c10.201,23.047,24.072,47,9.053,73.686c-2.111,3.746-3.725,8.072-6.703,10.979
		c-14.395,14.031-8.604,24.684,5.08,34.338c0.854,1.785,1.697,3.568,2.54,5.354c0.763-0.58,1.524-1.154,2.282-1.732
		c-1.374-1.41-2.745-2.826-4.112-4.238c-6.955-21.291,5.856-36.586,16.172-52.494c4.129-6.366,10.232-6.914,16.963-3.737
		c7.183,3.381,14.678,5.592,22.776,4.646l-0.087-0.08c14.469,12.269,30.774,13.119,48.06,7.711c5.441-1.703,10.73-3.936,16.234-5.36
		c12.561-3.261,26.309-13.353,37.385,0.812c11.02,14.084,20.631,29.76,10.348,48.938c-12.045,0-12.553,8.381-12.445,17.194
		c7.68,1.558,12.699,9.656,21.395,8.701c2.982,0.109,3.182,32.209-4.566,16.463c-16.102,4.322-17.459,21.658-26.506,32.976
		c-5.598-7.881-6.143-14.504-4.746-21.976c2.691-14.469-9.172-26.729-17.611-26.827c-11.197-0.128-23.82,9.655-23.678,25.733
		c-21.088,9.377-40.29,0.92-59.189-6.98c-8.366-3.495-14.883-7.315-15.147,6.378c-1.438,1.409-2.878,2.812-4.32,4.227
		c-6.669,3.805-8.62,10.076-8.962,17.185c-0.363,0.602-1.156,1.312-1.021,1.75c0.359,1.223,1.103,2.332,1.695,3.491
		c1.477,5.188,1.259,11.604,8.336,12.892c0.896,0.166,3.336-2.697,3.379-4.205c0.222-7.771-5.478-8.678-11.416-9.031
		c-0.04-1.354-0.017-2.691,0.055-4.039c6.069-4.315,8.493-10.361,8.362-17.613c1.403-1.442,2.812-2.891,4.229-4.334
		c6.17,0.07,12.495-0.57,17.736,3.826c-21.647,9.972-6.661,21.23,0.5,29.299c10.968,12.354,7.627,16.623-6.637,18.719
		c-9.82,1.439-19.441,4-28.353-3.639c-5.34-4.578-11.897-4.092-18.072-0.711c-0.975-14.344-10.661-27.148-7.185-42.369
		c1.144-5.004-2.679-7.577-6.999-9.006c-4.869-1.605-9.966-2.948-12.939,2.877c-2.54,4.982-4.41,10.312-6.578,15.486
		c-6.769-9.854-15.644-18.9-19.769-29.754c-4.956-13.008-22.989-18.869-18.961-36.146c5.722-5.409,11.954-9.438,20.316-9.432
		c14.545,0.008,18.522,4.873,8.313,16.896c-0.351,0.466-0.81,0.893-0.996,1.411c-0.065,0.18,0.649,0.908,0.843,0.848
		c0.532-0.159,0.974-0.61,1.445-0.946c18.731-9.092,25.012,20.311,41.951,15.112c-15.91-36.602-42.889-51.091-81.649-41.425
		c-1.351,0.341-2.853,0.082-4.283,0.093c-13.288-21.625-31.131-40.541-38.861-65.47c0.507-13.359-4.586-28.398,14.49-36.866
		c-9.875-2.761-16.584-4.627-23.292-6.505L73.15,433.955z M129.643,430.699c-7.874-0.019-14.516-3.582-16.597,5.635
		C119.169,438.68,123.973,437.463,129.643,430.699z"/>
	<path fill="#E1393F" d="M315.993,611.775c-0.145-16.076,12.48-25.865,23.678-25.734c8.439,0.098,20.305,12.363,17.611,26.828
		c-1.391,7.475-0.848,14.092,4.746,21.975c9.045-11.312,10.408-28.649,26.508-32.975c7.746,15.756,9.49,35.205,27.516,44.629
		c-10.602,17.172-21.211,34.342-31.824,51.504c-4.783,1.002-7.346,4.037-7.969,8.812l0.189,0.119
		c-1.564-0.134-3.139-0.265-4.699-0.392c-40.656-2.701-81.304-1.914-121.979-0.465c-5.423,0.195-10.953-2.662-16.432-4.104
		c-2.918-1.371-5.826-2.756-8.738-4.133c-2.618-4.854-6.595-7.812-12.092-8.649c-5.086-7.941-14.065-14.437-9.642-25.906
		c1.433-1.437,2.861-2.867,4.288-4.299c6.177-3.384,12.73-3.871,18.074,0.711c8.912,7.635,18.531,5.078,28.351,3.639
		c14.266-2.098,17.607-6.369,6.64-18.721c-7.162-8.068-22.151-19.326-0.507-29.293c27.139,6.274,54.3,7.541,81.494,0.28
		c2.854-2.256,6.938-6.069,4.662-8.459c-3.324-3.481-3.295,1.854-4.363,3.806C333.006,611.221,324.5,611.502,315.993,611.775z"/>
	<path fill="#E1393F" d="M345.733,771.559c-11.65-1.401-23.301-2.809-34.951-4.215c-5.4-3.258-9.972-7.315-12.655-13.186
		c0.797-41.508,19.317-53.883,51.909-34.699l0.068,0.125c1.391,2.797,2.787,5.59,4.176,8.387l0.234,0.377
		c0,5.779,0.004,11.562,0.004,17.347C351.299,754.217,343.522,761.189,345.733,771.559z"/>
	<path fill="#E1393F" d="M419.985,638.486c-2.072-2.929-6.561-6.84-5.834-8.615c5.602-13.654,0.912-23.094-9.768-31.805
		c-2.473-2.023-1.645-8.107-2.332-12.316c3.752-2.973,8.973-5.17,10.982-9.041c6.674-12.865,16.551-12.57,27.949-8.633l-0.076-0.074
		c1.449,1.451,2.895,2.91,4.348,4.357l0.035,0.033c1.455,1.452,2.91,2.903,4.361,4.356l-0.086-0.098
		c0.199,8.936,0.549,17.896-4.236,26.021C436.885,614.611,428.44,626.545,419.985,638.486z"/>
	<path fill="#E1393F" d="M440.989,568.076c-2.035-5.762-8.549-9.414-7.77-16.496c29.072-5.602,35.615,0.846,28.486,28.074
		c-4.047-0.99-8.09-1.998-12.135-3.006l0.084,0.1c-1.451-1.455-2.906-2.904-4.359-4.359l-0.037-0.037
		c-1.449-1.446-2.896-2.899-4.348-4.354L440.989,568.076z"/>
	<path fill="#E1393F" d="M371.752,706.543c1.562,0.127,3.135,0.258,4.701,0.391c-1.396,10.162-7.939,17.566-13.646,25.42
		c-2.768-1.34-5.525-2.67-8.297-4.006l-0.23-0.373c-1.393-2.797-2.785-5.594-4.18-8.391l-0.064-0.125
		C352.667,707.42,366.182,713.656,371.752,706.543z"/>
	<path fill="#E1393F" d="M354.514,728.348c2.768,1.336,5.531,2.666,8.299,4.006c-2.768,4.443-5.527,8.89-8.293,13.334
		C354.52,739.91,354.514,734.127,354.514,728.348z"/>
	<path fill="#E1393F" d="M376.262,706.812c0.623-4.773,3.178-7.812,7.971-8.812C382.983,702.215,380.721,705.508,376.262,706.812z"
		/>
	<path fill="#E1393F" d="M540.452,226.098c-3.127-1.374-6.246-2.751-9.375-4.129C534.198,223.346,537.325,224.719,540.452,226.098z"
		/>
	<path fill="#E1393F" d="M252.568,756.436c-2.679-6.416-7.426-12.264-5.547-19.944c4.683-4.604,7.174-10.238,7.838-16.734l0.302-0.1
		c9.317-11.035,21.599-11.269,33.033-6.179c12.543,5.595,4.039,17.716,4.983,26.812c0.476,4.604-2.233,9.549-3.501,14.338
		c-4.532,4.113-9.068,8.225-13.604,12.342c-8.577,1.188-13.524-6.235-20.574-8.666C254.496,757.729,253.521,757.104,252.568,756.436
		z"/>
	<path fill="#E1393F" d="M216.008,25.797c-0.027,1.86-0.053,3.715-0.078,5.579l-0.036,0.042
		c-8.854,13.402-3.306,26.707,1.593,39.153c7.206,18.3-2.684,26.584-17.415,29.623c-16.031,3.305-32.752,3.241-49.167,4.649
		l0.008-0.004c-1.386-2.79-2.775-5.571-4.159-8.352l-0.192-0.333c-1.393-2.803-2.793-5.608-4.188-8.411l-0.116-0.152
		c-1.354-1.356-2.717-2.722-4.072-4.078l-0.295-0.363c-0.207-14.86-11.638-27.493-8.542-43.008
		C157.141,28.78,185.969,23.625,216.008,25.797z"/>
	<path fill="#E1393F" d="M129.342,40.141c-3.098,15.515,8.336,28.147,8.543,43.008c-10.572-7.008-14.09-18.115-17.093-29.5
		C123.643,49.144,126.491,44.642,129.342,40.141z"/>
	<path fill="#E1393F" d="M272.213,507.498c-0.554-1.312-0.991-3.699-1.68-3.773c-45.446-5.059-39.777-51.813-61.935-75.805
		c-0.48-0.517-1.253-1.416-1.091-1.78c6.342-14.204,14.135-27.936,18.81-42.66c4.467-14.091,2.948-30.346,23.869-33.123
		c10.42-1.378,20.677-6.086,30.336-10.701c14.706-7.024,28.623-7.016,43.482-0.363c11.693,5.232,24.041,9.167,36.35,12.814
		c8.607,2.548,13.662,7.472,15.119,16.17c0.479,2.828-0.023,5.98,1.02,8.533c6.658,16.271,20.77,33.49,18.539,48.307
		c-2.367,15.727-17.883,30.074-19.559,48.731c-0.859,9.597-6.879,14.677-15.672,18.494c-28.086,12.218-56.795,19.648-87.679,15.07
		L272.213,507.498z"/>
	<path fill="#E1393F" d="M106.138,174.193c22.444-13.013,40.148,4.044,56.261,12.89c14.883,8.169-3.931,9.831-9.425,12.785
		c5.196,10.9,13.604,9.864,20.876,7.62c9.837-3.03,6.181-11.212,4.752-18.076c-1.564-7.522,1.869-12.269,8.334-15.561
		c7.077-3.605,9.773,0.651,13.4,5.925c6.76,9.839,18.055,10.457,28.706,11.83c-0.083,8.677-0.161,17.35-0.248,26.026l0.174-0.275
		c-6.2,4.205-8.846,10.186-8.785,17.527l0.091-0.145c-21.833,24.965-48.403,26.694-77.562,15.833
		c-1.991-0.744-4.129-1.149-6.231-1.521C85.135,240.091,77.007,220.053,106.138,174.193z"/>
	<path fill="#E1393F" d="M371.696,576.697c-0.098-8.812,0.412-17.189,12.457-17.189c11.328,1.174,13.006-17.647,26.182-12.645
		c1.553,1.289,3.121,2.567,4.68,3.848c-0.555,15.828-15.934,22.291-21.904,34.697c-8.703,0.959-13.723-7.146-21.395-8.695
		L371.696,576.697z"/>
	<path fill="#E1393F" d="M81.854,147.96c7.586-5.271,14.9-5.486,21.851,1.179C96.136,154.038,89.198,147.204,81.854,147.96z"/>
	<path fill="#E1393F" d="M142.374,87.743c1.393,2.803,2.796,5.608,4.188,8.411C145.17,93.347,143.767,90.545,142.374,87.743z"/>
	<path fill="#E1393F" d="M146.755,96.487c1.384,2.781,2.772,5.562,4.159,8.352C149.523,102.053,148.139,99.268,146.755,96.487z"/>
	<path fill="#E1393F" d="M138.182,83.508c1.353,1.356,2.718,2.722,4.072,4.078C140.895,86.23,139.541,84.869,138.182,83.508z"/>
	<path fill="#E1393F" d="M267.657,196.724c-20.563,1.34-31.88-6.53-35.381-28.558c-2.605-16.377-5.665-34.327-20.796-45.823
		c-2.326-16.212,4.229-26.592,20.194-30.78c8.613-0.021,17.311,0.63,25.859-0.232c10.332-1.04,17.451,0.925,16.806,13.064
		c-0.251,4.632-0.04,10.519,4.37,10.955c17.278,1.729,37.29,7.793,51.305,1.377c13.465-6.162,18.936-2.287,24.688,5.059
		c6.723,8.58,14.463,15.87,22.082,23.449c-0.092,0.993-0.271,1.969-0.551,2.924c-10.471,2.452-25.586-0.22-27.301,14.108
		c-1.16,9.712,10.494,11.546,19.236,12.375c-0.277,7.151-0.561,14.302-0.844,21.449c-1.545,0.342-3.094,0.681-4.637,1.019
		c-8.49-0.182-16.98-0.372-25.473-0.549C314.012,186.179,290.821,186.128,267.657,196.724z"/>
	<path fill="#E1393F" d="M423.352,191.458c11.041,2.33,23.154,4.945,23.691,21.094c0.445,13.397-11.32,10.173-17.344,10.144
		c-13.189-0.06-17.604-13.237-21.32-22.319C405.223,192.675,415.647,192.198,423.352,191.458z"/>
	<path fill="#E1393F" d="M376.129,156.954c-2.658,5.892-5.314,11.784-7.961,17.683c-8.742-0.824-20.393-2.658-19.23-12.37
		c1.713-14.328,16.83-11.653,27.299-14.108C376.192,151.087,376.165,154.021,376.129,156.954z"/>
	<path fill="#E1393F" d="M202.877,663.277c-18.385-5.658-20.809-23.912-29.416-37.293c2.172-5.193,4.042-10.523,6.583-15.502
		c2.978-5.828,8.07-4.486,12.939-2.882c4.32,1.431,8.143,4.005,6.999,9.009c-3.476,15.221,6.215,28.022,7.185,42.366
		C205.738,660.412,204.31,661.846,202.877,663.277z"/>
	<path fill="#E1393F" d="M229.355,637.471c5.932,0.355,11.633,1.267,11.412,9.033c-0.042,1.51-2.483,4.369-3.379,4.203
		c-7.077-1.287-6.86-7.703-8.336-12.889L229.355,637.471z"/>
	<path fill="#E1393F" d="M220.414,701.832c-2.303-1.781-4.606-3.564-6.891-5.355c-0.326-2.436-0.67-4.856-1.017-7.284
		c5.501,0.838,9.478,3.801,12.101,8.649l-0.065,0.094C223.166,699.23,221.79,700.529,220.414,701.832z"/>
	<path fill="#E1393F" d="M341.211,615.602c0.094-1.549,0.195-3.1,0.295-4.651c1.07-1.949,1.041-7.287,4.365-3.808
		C348.149,609.527,344.069,613.344,341.211,615.602z"/>
	<path fill="#E1393F" d="M224.607,697.842c2.912,1.377,5.822,2.76,8.738,4.133c0,0-0.424,0.56-0.42,0.556
		c-2.796-1.529-5.588-3.062-8.383-4.595L224.607,697.842z"/>
	<path fill="#E1393F" d="M350.104,719.59c1.391,2.799,2.787,5.592,4.176,8.385C352.893,725.178,351.495,722.389,350.104,719.59z"/>
	<path fill="#E1393F" d="M239.13,732.203c5.241-4.152,10.482-8.303,15.725-12.453c-0.659,6.496-3.157,12.131-7.837,16.734
		c-2.762-0.267-5.528-0.515-8.284-0.785C238.746,734.518,238.875,733.35,239.13,732.203z"/>
</g>
</svg>
