<?xml version="1.0" encoding="utf-8"?>
<!-- Generator: Adobe Illustrator 16.0.4, SVG Export Plug-In . SVG Version: 6.00 Build 0)  -->
<!DOCTYPE svg PUBLIC "-//W3C//DTD SVG 1.1//EN" "http://www.w3.org/Graphics/SVG/1.1/DTD/svg11.dtd">
<svg version="1.1" id="Layer_1" xmlns="http://www.w3.org/2000/svg" xmlns:xlink="http://www.w3.org/1999/xlink" x="0px" y="0px"
	 width="513px" height="114px" viewBox="0 0 513 114" enable-background="new 0 0 513 114" xml:space="preserve">
<g>
	<g id="XMLID_1_">
		<g>
			<path d="M485.528,96.176c-0.048,0.121-0.097,0.232-0.135,0.344c-8.932-3.481-17.872-6.963-26.805-10.444
				c0.048-0.111,0.096-0.222,0.133-0.343C467.654,89.213,476.597,92.693,485.528,96.176z"/>
			<path d="M464.991,63.212c10,3.89,20.011,7.789,30.364,11.832c2.405-6.16,4.622-11.854,6.839-17.541
				c0.161,0.058,0.312,0.124,0.474,0.181c-2.273,5.827-4.547,11.664-7.048,18.075c-10.374-4.042-20.646-8.047-30.919-12.051
				C464.798,63.545,464.895,63.374,464.991,63.212z"/>
			<path d="M454.962,37.438c-2.587,6.653-4.812,12.359-7.039,18.065c-0.454-0.191-0.908-0.392-1.372-0.583
				c2.464-6.301,4.918-12.611,7.543-19.345c7.884,3.072,15.505,6.05,23.146,9.017c-0.151,0.453-0.304,0.906-0.453,1.35
				C469.831,43.23,462.875,40.52,454.962,37.438z"/>
			<path d="M495.355,75.044c-10.354-4.043-20.364-7.942-30.364-11.832c-0.098,0.162-0.193,0.333-0.29,0.496
				c10.271,4.004,20.545,8.009,30.919,12.051c2.501-6.411,4.773-12.249,7.048-18.075c-0.161-0.057-0.312-0.123-0.474-0.181
				C499.979,63.188,497.762,68.884,495.355,75.044z M458.59,86.075c8.933,3.481,17.873,6.962,26.805,10.444
				c0.038-0.111,0.087-0.223,0.135-0.344c-8.933-3.48-17.874-6.962-26.807-10.443C458.686,85.854,458.638,85.964,458.59,86.075z
				 M429.791,80.482c6.252-15.43,12.291-30.943,18.129-46.523c1.557-4.162,3.202-5.406,7.659-3.595
				c15.723,6.405,31.567,12.508,47.442,18.521c3.688,1.386,4.482,3.101,2.965,6.702c-2.701,6.446-5.109,13.015-7.457,19.604
				c-1.022,2.871-2.521,3.461-5.284,2.347c-7.875-3.173-15.789-6.274-23.76-9.185c-1.18-0.438-2.775,0.256-4.183,0.424
				c0.938,0.94,1.791,2.023,2.866,2.783c1.075,0.748,2.327,1.332,3.585,1.707c3.271,0.996,3.562,3.049,2.347,5.795
				c-1.053,2.36-1.441,5.359-5.463,3.871c-2.419-0.902-5.112-1.099-7.684-1.606c-0.232,0.396-0.476,0.799-0.717,1.205
				c1.822,1.124,3.531,2.54,5.488,3.35c6.616,2.728,13.271,5.375,20,7.79c3.386,1.202,4.72,2.875,2.896,6.264
				c-0.154,0.293-0.247,0.614-0.361,0.928c-2.944,7.721-2.944,7.721-10.466,4.791c-14.89-5.812-29.723-11.766-44.697-17.346
				C428.695,86.666,428.095,84.667,429.791,80.482z M452.782,34.031c-6.554,16.805-12.974,33.297-19.556,50.183
				c10.062,3.918,19.738,7.695,29.427,11.461c-0.096,0.263-0.189,0.515-0.284,0.776c-3.196-1.246-6.382-2.492-9.577-3.729
				c-0.066,0.19-0.133,0.372-0.198,0.563c10.03,3.909,20.071,7.828,30.132,11.747c0.633-2.403,1.219-4.615,1.925-7.29
				c-8.357-3.263-16.449-6.741-24.758-9.535c-4.862-1.632-5.434-4.11-3.313-8.155c0.742-1.404,1.443-2.83,2.088-4.093
				c3.99,0.931,7.396,1.722,10.793,2.515c0.18-0.504,0.36-1.008,0.55-1.512c-2.357-0.913-4.68-1.927-7.076-2.729
				c-2.84-0.953-3.275-2.795-2.59-5.459c1.782-6.877,3.008-7.562,9.552-5.023c2.016,0.79,4.031,1.568,6.049,2.359
				c6.139,2.387,12.277,4.783,18.235,7.104c2.807-7.198,5.309-13.608,7.8-20.011C485.314,46.71,469.094,40.385,452.782,34.031z
				 M450.125,35.155c-2.433,6.38-4.945,12.722-7.429,19.083c1.852-4.448,3.551-8.953,5.36-13.42
				c4.212-10.427,2.151-9.415,12.705-5.376c13.81,5.274,27.562,10.708,41.331,16.073c0.038-0.101,0.076-0.211,0.114-0.312
				c-15.596-6.078-31.22-12.095-46.777-18.294C452.577,31.765,451.15,32.443,450.125,35.155z"/>
			<path fill="#FEF059" d="M433.228,84.214c6.582-16.886,13.003-33.378,19.556-50.183c16.312,6.354,32.532,12.679,49.194,19.175
				c-2.49,6.401-4.992,12.813-7.799,20.011c-5.958-2.32-12.098-4.718-18.235-7.105c-2.018-0.789-4.033-1.568-6.05-2.358
				c-6.543-2.539-7.769-1.854-9.551,5.022c-0.687,2.664-0.25,4.507,2.59,5.459c2.396,0.803,4.719,1.815,7.076,2.729
				c-0.188,0.504-0.37,1.007-0.55,1.511c-3.396-0.791-6.803-1.582-10.793-2.514c-0.645,1.264-1.346,2.688-2.088,4.094
				c-2.119,4.043-1.549,6.521,3.313,8.154c8.309,2.794,16.399,6.271,24.758,9.535c-0.706,2.675-1.292,4.887-1.925,7.29
				c-10.061-3.918-20.102-7.837-30.132-11.747c0.065-0.191,0.132-0.373,0.198-0.564c3.195,1.236,6.381,2.482,9.577,3.729
				c0.095-0.263,0.188-0.515,0.284-0.776C452.966,91.909,443.288,88.133,433.228,84.214z M454.094,35.575
				c-2.625,6.734-5.079,13.044-7.543,19.345c0.464,0.191,0.918,0.392,1.372,0.583c2.228-5.706,4.452-11.412,7.039-18.065
				c7.913,3.082,14.869,5.792,21.825,8.503c0.15-0.443,0.302-0.896,0.453-1.35C469.599,41.625,461.978,38.647,454.094,35.575z"/>
			<path d="M448.058,40.817c-1.811,4.467-3.51,8.972-5.36,13.42c2.482-6.361,4.996-12.703,7.429-19.083
				c1.025-2.711,2.452-3.39,5.306-2.247c15.559,6.199,31.183,12.216,46.777,18.294c-0.038,0.101-0.076,0.211-0.114,0.312
				c-13.771-5.364-27.521-10.799-41.331-16.073C450.209,31.402,452.27,30.391,448.058,40.817z"/>
			<path fill="#FEF059" d="M405.06,76.139c10.275,1.674,23.989-9.233,21.445-17.334C422.763,69.162,414.28,73.113,405.06,76.139z
				 M431.604,52.21c-0.236,15.067-11.666,27.11-26.091,27.11c-15.981,0.011-28.325-11.935-28.236-27.458
				c0.093-16.785,12.411-27.445,27.384-28.476C415.986,22.618,431.838,37.963,431.604,52.21z"/>
			<path d="M372.859,52.571c-0.369-17.366,13.421-30.946,31.776-31.275c16.429-0.3,30.724,13.746,31.05,30.502
				c0.316,16.747-14.036,31.168-31.362,31.497C387.436,83.614,373.224,69.736,372.859,52.571z M404.659,23.386
				c-14.974,1.031-27.291,11.691-27.384,28.476c-0.089,15.525,12.255,27.469,28.236,27.458c14.424,0,25.854-12.043,26.091-27.11
				C431.838,37.963,415.986,22.618,404.659,23.386z"/>
			<path d="M426.505,58.805c2.544,8.101-11.17,19.008-21.445,17.334C414.28,73.113,422.763,69.162,426.505,58.805z"/>
			<path fill="#FFFFFF" d="M338.728,69.74c-0.094-5.149-0.196-10.288-0.301-15.427c0.104,5.119,0.206,10.248,0.311,15.367
				C338.736,69.68,338.727,69.72,338.728,69.74z"/>
			<path fill="#FFFFFF" d="M335.852,69.488c-0.191,0.394-0.395,0.777-0.587,1.172C335.447,70.266,335.649,69.872,335.852,69.488z"/>
			<path fill="#FFFFFF" d="M335.245,70.689c-0.076,0.172-0.152,0.354-0.229,0.524h-0.01
				C335.082,71.034,335.159,70.861,335.245,70.689z"/>
			<path fill="#FFFFFF" d="M335.006,71.215c-0.01,0-0.01,0.01-0.01,0.01v-0.01H335.006z"/>
			<path fill="#FFFFFF" d="M334.968,71.296l0.021-0.041C334.978,71.266,334.978,71.286,334.968,71.296z"/>
			<path d="M334.987,71.255l-0.021,0.041C334.978,71.286,334.978,71.266,334.987,71.255z M320.928,14.227
				c0.333-3.377,1.852-4.468,5.28-4.037c15.211,1.885,30.439,3.629,45.675,5.264c3.309,0.354,4.146,1.747,3.771,4.895
				c-0.719,6.116-1.104,12.265-1.581,18.405c-0.271,3.466-1.235,5.706-5.535,4.742c-3.376-0.762-6.909-0.871-11.531-1.408
				c-1.125,9.714-2.333,18.771-3.141,27.857c-0.398,4.539-2.104,5.805-6.706,5.217c-14.832-1.922-14.868-1.741-13.355-16.535
				c0.596-5.773,1.318-11.539,2.077-18.096c-4.491-0.51-8.534-1.099-12.611-1.417c-3.575-0.278-5.038-1.909-4.57-5.521
				C319.527,27.147,320.278,20.691,320.928,14.227z M372.164,18.008c-15.689-1.805-31.499-3.628-46.787-5.391
				c-0.648,5.584-1.072,10.884-1.927,16.122c-0.614,3.753,0.204,5.697,4.366,5.744c2.641,0.017,5.276,0.824,7.93,0.911
				c3.633,0.097,4.9,1.432,4.347,5.234c-0.648,4.544-1.157,9.105-1.666,13.666c0,0.01,0,0.01,0,0.02
				c-0.447,4.04-0.896,8.081-1.427,12.111c-0.139,1.054-0.629,2.063-1.148,3.063c-0.201,0.384-0.403,0.777-0.587,1.172
				c-0.01,0.01-0.02,0.021-0.02,0.031c-0.086,0.17-0.163,0.343-0.239,0.524c-0.001-0.04,0.009-0.081,0.008-0.12
				c0.138-1.152,0.265-2.315,0.4-3.469c0.793-6.848,1.575-13.705,2.367-20.552c-0.792,6.847-1.585,13.694-2.367,20.552
				c-0.137,1.153-0.273,2.316-0.4,3.469c-0.009,0.04-0.009,0.08-0.018,0.12v0.011c0,0.01,0.001,0.02,0.001,0.029
				c0.01-0.01,0.009-0.029,0.019-0.041c5.215,0.596,10.428,1.201,15.86,1.822c1.234-10.737,2.418-21.043,3.611-31.339
				c-0.211-0.026-0.411-0.052-0.612-0.078c-1.142,9.865-2.274,19.72-3.406,29.573c-0.351-0.043-0.701-0.075-1.043-0.118
				c0.902-7.87,1.814-15.739,2.717-23.609c1.167-10.095,1.167-10.095,11.021-8.973c0.662,0.077,1.342,0.073,1.985,0.24
				c3.357,0.863,4.854-0.348,5.133-3.874C370.719,29.179,371.525,23.522,372.164,18.008z"/>
			<path d="M329.2,17.211c-0.771,3.026-1.309,5.137-1.845,7.249c-0.393-0.062-0.793-0.124-1.186-0.186
				c0.316-2.697,0.622-5.404,0.997-8.622c9.464,1.09,18.768,2.164,28.091,3.236c-0.021,0.44-0.042,0.881-0.062,1.321
				C346.583,19.212,337.962,18.225,329.2,17.211z"/>
			<path fill="#FEF059" d="M327.168,15.651c-0.375,3.218-0.681,5.925-0.997,8.622c0.392,0.062,0.793,0.124,1.186,0.186
				c0.536-2.111,1.074-4.223,1.845-7.249c8.762,1.014,17.383,2.001,25.995,2.998c0.021-0.44,0.042-0.881,0.062-1.321
				C345.936,17.815,336.632,16.742,327.168,15.651z M325.377,12.617c15.288,1.763,31.098,3.586,46.787,5.391
				c-0.639,5.514-1.445,11.171-1.882,16.851c-0.278,3.526-1.774,4.737-5.133,3.874c-0.645-0.167-1.323-0.164-1.985-0.24
				c-9.854-1.122-9.854-1.122-11.021,8.973c-0.901,7.87-1.813,15.74-2.717,23.609c0.342,0.043,0.692,0.075,1.043,0.118
				c1.132-9.854,2.266-19.708,3.406-29.573c0.201,0.026,0.401,0.052,0.612,0.078c-1.193,10.296-2.377,20.602-3.611,31.339
				c-5.434-0.621-10.646-1.227-15.86-1.822c0.077-0.171,0.153-0.354,0.229-0.523c0-0.01,0.01-0.021,0.02-0.031
				c0.192-0.395,0.396-0.778,0.587-1.172c0.521-1,1.011-2.012,1.148-3.063c0.529-4.032,0.979-8.071,1.427-12.111
				c0.104,5.139,0.207,10.278,0.302,15.427c-0.002-0.021,0.009-0.062,0.009-0.062c-0.104-5.119-0.206-10.248-0.311-15.367
				c0-0.01,0-0.01,0-0.02c0.51-4.561,1.018-9.122,1.666-13.666c0.555-3.802-0.714-5.137-4.347-5.234
				c-2.652-0.087-5.289-0.894-7.93-0.911c-4.162-0.046-4.98-1.991-4.366-5.744C324.305,23.5,324.729,18.201,325.377,12.617z"/>
			<path d="M292.264,43.599c5.577,2.818,11.154,5.637,18.219,9.216c-3.369,2.548-5.566,4.212-7.765,5.876
				c-0.366-0.373-0.735-0.744-1.103-1.107c1.111-1.393,2.225-2.775,3.648-4.554c-4.744-2.635-9.346-5.193-13.947-7.742
				C291.635,44.721,291.943,44.155,292.264,43.599z"/>
			<path d="M286.389,7.119c13.155-1.835,25.604,3.896,31.375,14.453c2.783,5.075,2.566,5.75-2.596,8.184
				c-5.677,2.685-11.363,5.37-17.923,8.472c6.096,3.198,11.474,6.051,16.891,8.823c5.234,2.675,5.483,3.63,2.082,8.57
				c-6.473,9.372-21.048,17.216-37.108,10.848c-12.393-4.922-20.277-18.066-18.787-31.938
				C261.83,20.396,272.625,9.046,286.389,7.119z M283.335,62.752c12.245,3.574,25.585-1.505,29.418-11.333
				c-7.797-4.264-15.625-8.538-24.433-13.342c9.387-4.7,17.765-8.879,26.479-13.235c-1.982-3.131-3.173-6.078-5.281-8.005
				c-2.108-1.918-5.129-2.877-7.805-4.124c-1.736-0.815-3.579-1.389-5.373-2.062c-14.23-4.915-28.75,9.75-30.859,19.254
				C262.125,45.024,269.562,58.738,283.335,62.752z"/>
			<path fill="#FEF059" d="M310.481,52.814c-7.063-3.579-12.642-6.397-18.22-9.216c-0.318,0.556-0.628,1.123-0.945,1.689
				c4.602,2.548,9.203,5.106,13.947,7.742c-1.424,1.779-2.537,3.162-3.648,4.554c0.367,0.362,0.734,0.735,1.103,1.108
				C304.915,57.027,307.112,55.362,310.481,52.814z M312.754,51.418c-3.833,9.829-17.174,14.908-29.418,11.333
				c-13.773-4.015-21.21-17.728-17.854-32.848c2.108-9.504,16.627-24.169,30.858-19.254c1.794,0.674,3.636,1.247,5.373,2.062
				c2.677,1.247,5.695,2.206,7.805,4.124c2.108,1.928,3.299,4.875,5.281,8.005c-8.714,4.356-17.092,8.535-26.479,13.235
				C297.129,42.88,304.957,47.154,312.754,51.418z"/>
			<path d="M264.793,69.307c-9.808,0.187-19.616,0.383-29.424,0.582v-0.011c-9.638,0.194-19.275,0.427-28.925,0.562
				c-4.87,0.068-5.748-1.345-3.422-5.541c9.652-17.408,19.335-34.795,29.058-52.166c2.356-4.198,4.253-4.346,6.576-0.272
				c9.84,17.295,19.511,34.685,29.271,52.021C270.033,68.22,268.232,69.236,264.793,69.307z M259.387,65.555
				c-2.104,0.762-2.791,1.016-4.319,1.566c4.259-0.085,7.518-0.151,10.278-0.207c-1.146-1.316-2.652-2.547-3.533-4.13
				c-8.133-14.52-16.148-29.091-24.223-43.642c-0.581-1.048-1.39-1.962-2.398-3.362c-9.429,17.062-18.549,33.579-28.074,50.823
				C224.744,66.25,241.331,65.917,259.387,65.555z"/>
			<path d="M247.1,62.82c2.845-0.258,5.701-0.516,9.305-0.838c-1.976-4.25-3.774-8.115-5.582-11.97
				c0.475-0.239,0.96-0.489,1.436-0.729c2.704,4.667,5.398,9.333,8.414,14.554c-5.179,0.104-9.348,0.188-13.507,0.271
				C247.137,63.68,247.118,63.25,247.1,62.82z"/>
			<path fill="#FEF059" d="M260.673,63.837c-3.016-5.221-5.71-9.887-8.414-14.554c-0.476,0.24-0.96,0.49-1.436,0.729
				c1.808,3.854,3.605,7.718,5.582,11.97c-3.604,0.322-6.46,0.58-9.305,0.838c0.019,0.43,0.037,0.859,0.066,1.289
				C251.325,64.025,255.494,63.941,260.673,63.837z M237.59,19.142c8.074,14.551,16.089,29.123,24.223,43.642
				c0.881,1.583,2.387,2.812,3.533,4.13c-2.76,0.056-6.019,0.121-10.278,0.207c1.529-0.551,2.214-0.805,4.319-1.566
				c-18.057,0.362-34.643,0.695-52.27,1.049c9.525-17.245,18.646-33.762,28.074-50.824C236.2,17.18,237.009,18.094,237.59,19.142z"
				/>
			<path d="M157.472,14.551c12.183-1.475,24.409-3.271,36.647-3.478c11.668-0.204,19.908,8.672,20.556,20.001
				c0.462,8.053-7.111,16.927-16.896,19.764c-1.422,0.409-2.865,0.748-4.736,1.235c0.399,5.942,0.62,11.42,1.189,16.87
				c0.311,3.014-0.206,4.675-3.662,4.935c-8.299,0.617-16.563,1.493-24.838,2.31c-3.135,0.304-4.604-1.147-4.975-4.17
				c-2.126-17.691-4.371-35.359-6.288-53.075C154.311,17.545,156.254,14.695,157.472,14.551z M164.908,71.514
				c8.561-1.053,16.303-1.988,25.283-3.09c-0.682-5.557-1.198-10.818-2.003-16.033c-0.484-3.181,0.556-4.722,3.792-4.907
				c1.319-0.077,2.642-0.413,3.915-0.779c8.821-2.548,15.268-10.209,14.665-17.338c-0.613-7.099-8.715-16.088-15.984-15.952
				c-12.178,0.225-24.342,1.62-36.506,2.524c0.04,0.479,0.089,0.948,0.128,1.428c8.571-1.042,17.142-2.095,25.712-3.138
				c-6.947,1.71-13.891,3.58-20.949,4.262c-4.263,0.406-4.984,1.831-4.439,5.54c1.835,12.686,3.521,25.404,5.236,38.103
				C164.17,65.197,164.513,68.28,164.908,71.514z"/>
			<path d="M184.483,65.119c-0.502-6.562-1.006-13.243-1.538-20.293c10.771-1.557,20.923-4.041,24.853-17.523
				c2.037,9.261-1.937,12.631-22.44,20.625c0.742,6.046,1.497,12.272,2.3,18.889c-6.805,0.826-12.991,1.582-19.177,2.336
				c-0.076-0.318-0.163-0.637-0.239-0.957C173.353,67.223,178.455,66.26,184.483,65.119z"/>
			<path fill="#FEF059" d="M168.481,69.15c6.186-0.754,12.372-1.508,19.177-2.336c-0.803-6.614-1.558-12.84-2.3-18.888
				c20.503-7.994,24.477-11.364,22.44-20.625c-3.93,13.482-14.082,15.966-24.853,17.523c0.532,7.051,1.036,13.731,1.538,20.293
				c-6.028,1.141-11.13,2.104-16.242,3.077C168.318,68.514,168.405,68.833,168.481,69.15z M190.191,68.424
				c-8.98,1.102-16.723,2.037-25.283,3.09c-0.395-3.233-0.737-6.316-1.149-9.38c-1.715-12.698-3.401-25.417-5.236-38.103
				c-0.545-3.709,0.177-5.134,4.439-5.54c7.058-0.682,14.001-2.552,20.949-4.262c-8.571,1.042-17.142,2.095-25.712,3.138
				c-0.04-0.479-0.089-0.949-0.128-1.428c12.164-0.905,24.329-2.299,36.506-2.524c7.269-0.136,15.371,8.853,15.984,15.952
				c0.604,7.129-5.844,14.791-14.665,17.338c-1.273,0.366-2.596,0.702-3.915,0.779c-3.237,0.185-4.276,1.726-3.792,4.907
				C188.993,57.605,189.509,62.867,190.191,68.424z"/>
			<path d="M144.61,62.898c-5.267-1.305-10.374-2.571-15.48-3.84c0.157-0.623,0.305-1.246,0.462-1.879
				c6.126,1.266,12.243,2.535,19.997,4.149c-2.583,3.333-4.27,5.517-5.957,7.702c-0.455-0.261-0.911-0.532-1.356-0.794
				C142.985,66.613,143.702,64.979,144.61,62.898z"/>
			<path d="M100.171,50.95c0.711,15.479,11.46,26.774,25.809,27.057c12.748,0.254,24.301-8.14,25.441-18.625
				c-8.644-2.077-17.317-4.163-27.076-6.498c7.841-6.989,14.837-13.21,22.109-19.688c-2.731-2.496-4.642-5.038-7.189-6.347
				c-2.537-1.299-5.69-1.446-8.601-1.947c-1.887-0.332-3.819-0.403-5.733-0.585C109.917,23.288,99.726,41.227,100.171,50.95z
				 M151.619,54.807c5.746,1.215,6.233,2.075,4.236,7.727c-3.795,10.737-15.809,22.112-32.981,20.157
				c-13.253-1.515-24.289-12.146-26.476-25.914c-2.233-14.038,5.222-27.821,18.015-33.269c12.218-5.207,25.716-2.927,34.052,5.757
				c4.005,4.17,3.979,4.881-0.368,8.579c-4.779,4.067-9.568,8.154-15.084,12.855C139.724,52.185,145.663,53.546,151.619,54.807z"/>
			<path fill="#FEF059" d="M149.59,61.329c-7.754-1.614-13.871-2.882-19.997-4.149c-0.158,0.632-0.305,1.255-0.462,1.88
				c5.106,1.268,10.213,2.534,15.48,3.84c-0.908,2.078-1.625,3.713-2.333,5.338c0.445,0.261,0.901,0.531,1.356,0.793
				C145.32,66.846,147.006,64.662,149.59,61.329z M139.265,26.849c2.547,1.309,4.458,3.852,7.189,6.347
				c-7.271,6.478-14.268,12.699-22.109,19.688c9.759,2.334,18.433,4.42,27.076,6.498c-1.14,10.485-12.693,18.879-25.441,18.625
				c-14.349-0.282-25.098-11.577-25.809-27.057c-0.445-9.723,9.746-27.662,24.76-26.633c1.914,0.182,3.846,0.253,5.733,0.585
				C133.575,25.403,136.729,25.55,139.265,26.849z"/>
			<path d="M100.162,86.797l0.965,1.711c-0.427,0.178-0.904,0.328-1.431,0.469c-5.631,1.463-11.251,3.018-16.766,4.868
				c-3.666,1.234-5.452,0.431-6.46-3.44c-2.188-8.368-4.755-16.627-7.162-24.932c0.02-0.01,0.04-0.021,0.06-0.021
				c-2.407-8.303-4.726-16.638-7.282-24.899c-1.059-3.429-0.277-5.315,3.315-6.248c2.896-0.758,5.78-1.557,8.664-2.395l0.504,2.2
				c-3.123,0.903-6.165,1.794-9.099,2.644c5.254,18.088,10.456,36.007,15.743,54.225C88.073,89.471,94.336,88.084,100.162,86.797z"
				/>
			<path d="M84.064,31.359c-3.192,0.924-6.374,1.849-9.497,2.751l-0.504-2.2c2.874-0.838,5.737-1.706,8.589-2.613
				c3.399-1.068,5.297-0.216,6.308,3.324c4.735,16.628,9.55,33.245,14.464,49.83c0.954,3.201,0.21,5.007-2.299,6.058l-0.965-1.711
				C94.692,67.953,89.383,49.656,84.064,31.359z"/>
			<path fill="#FEF059" d="M67.952,39.355c3.062,10.53,6.082,20.952,9.112,31.374c0.488-0.101,0.986-0.211,1.474-0.32
				c-2.02-6.951-3.98-13.923-6.07-20.852c-1.5-4.951-3.279-9.896,4.126-11.666c0.02,0-0.015-0.27-0.061-1.029
				C73.68,37.689,70.925,38.495,67.952,39.355z M81.212,90.979c-5.287-18.218-10.488-36.137-15.743-54.225
				c2.934-0.849,5.976-1.741,9.099-2.644c3.123-0.903,6.305-1.827,9.497-2.751c5.319,18.297,10.627,36.594,16.097,55.438
				C94.336,88.084,88.073,89.471,81.212,90.979z"/>
			<path d="M72.468,49.556c2.09,6.929,4.05,13.901,6.07,20.852c-0.488,0.109-0.986,0.22-1.474,0.32
				c-3.03-10.422-6.05-20.844-9.112-31.374c2.973-0.86,5.728-1.666,8.582-2.493c0.045,0.759,0.081,1.029,0.061,1.029
				C69.188,39.66,70.968,44.605,72.468,49.556z"/>
			<path fill="#FFFFFF" d="M47.688,106.536c0,0.01,0,0.03,0,0.04c0-0.01,0-0.01-0.01-0.02v-0.021H47.688z"/>
			<path fill="#FFFFFF" d="M47.688,106.576c0,0.02,0,0.029,0.001,0.05l-0.011-0.069C47.688,106.564,47.688,106.564,47.688,106.576z"
				/>
			<path fill="#FFFFFF" d="M43.157,99.564l0.001,0.07c-1-3.941-2.009-7.881-3.018-11.812C41.149,91.734,42.148,95.655,43.157,99.564
				z"/>
			<path fill="#FFFFFF" d="M39.51,85.326c0.207,0.826,0.414,1.662,0.63,2.488c-0.207-0.826-0.423-1.662-0.64-2.488H39.51z"/>
			<path fill="#FFFFFF" d="M39.109,83.773c0.13,0.518,0.261,1.035,0.391,1.552c0-0.011,0-0.03-0.011-0.04
				C39.369,84.777,39.239,84.281,39.109,83.773z"/>
			<path fill="#FFFFFF" d="M37.427,77.216c0.554,2.189,1.118,4.369,1.682,6.558C38.544,81.584,37.991,79.405,37.427,77.216z"/>
			<path d="M46.496,103.469c-1.974-5.131-3.958-10.271-5.931-15.404c-0.074-0.179-0.137-0.347-0.211-0.525
				c-0.275-0.734-0.56-1.479-0.845-2.213H39.5c-0.13-0.518-0.261-1.035-0.391-1.553c-0.564-2.188-1.128-4.367-1.682-6.558
				c-0.076-0.289-0.152-0.577-0.218-0.866c-0.032-0.108-0.054-0.209-0.086-0.317l0.367-0.177c0.177,0.365,0.345,0.763,0.504,1.22
				c2.895,8.164,6.256,16.157,9.23,24.29c0.582,1.559,0.339,3.434,0.464,5.172h-0.01c-0.105-0.268-0.201-0.526-0.306-0.794
				c-0.01-0.021-0.021-0.05-0.031-0.069C47.065,104.938,46.781,104.203,46.496,103.469z"/>
			<path d="M43.158,99.635l-0.001-0.07c-1.009-3.91-2.008-7.832-3.017-11.741C41.149,91.754,42.159,95.693,43.158,99.635z
				 M40.784,95.941c-2.159-5.387-4.189-10.838-6.563-16.991c-4.218,1.625-8.071,2.993-11.83,4.599
				c-3.292,1.406-5.348,0.639-6.617-2.768c-2.253-6.096-4.575-12.161-7.007-18.193c-1.274-3.154-0.427-4.822,2.799-6.028
				c14.354-5.389,28.657-10.908,42.906-16.535c3.096-1.223,4.483-0.38,5.613,2.587c2.196,5.747,4.709,11.378,7.134,17.031
				c1.374,3.192,1.563,5.629-2.695,6.766c-3.353,0.896-6.532,2.441-10.87,4.119c3.514,9.121,6.637,17.699,10.147,26.121
				c1.755,4.216,0.823,6.125-3.525,7.732C46.258,109.564,46.292,109.744,40.784,95.941z M55.906,42.157
				c-14.739,5.688-29.587,11.407-43.948,16.946c2.016,5.23,4.114,10.129,5.776,15.168c1.193,3.617,2.83,4.953,6.533,3.059
				c2.356-1.208,5.067-1.712,7.444-2.87c2.863-1.397,4.549-1.11,5.779,1.396l-0.367,0.177c0.032,0.108,0.054,0.209,0.086,0.317
				c0.066,0.289,0.142,0.577,0.218,0.866c0.564,2.189,1.118,4.369,1.682,6.558c0.13,0.508,0.26,1.006,0.38,1.514
				c0.01,0.01,0.01,0.029,0.011,0.04c0.217,0.825,0.434,1.662,0.64,2.487c-0.217-0.825-0.423-1.662-0.63-2.487
				c0.285,0.733,0.57,1.479,0.845,2.213c0.074,0.179,0.137,0.347,0.211,0.526c1.973,5.131,3.957,10.271,5.931,15.403
				c0.285,0.734,0.56,1.47,0.844,2.204c0.01,0.02,0.021,0.051,0.031,0.069c0.096,0.268,0.201,0.526,0.306,0.794v0.02l0.011,0.07
				c0-0.02,0-0.029-0.001-0.05c0-0.011,0-0.03,0-0.04c4.893-1.889,9.786-3.777,14.897-5.75
				c-3.894-10.094-7.619-19.762-11.344-29.438c-0.198,0.073-0.387,0.146-0.576,0.221c3.567,9.25,7.134,18.511,10.7,27.771
				c-0.327,0.126-0.645,0.253-0.972,0.379c-2.849-7.394-5.698-14.777-8.547-22.173c-3.662-9.487-3.662-9.487,5.599-13.065
				c0.615-0.241,1.219-0.563,1.866-0.707c3.375-0.799,4.139-2.564,2.744-5.816C59.809,52.721,57.9,47.338,55.906,42.157z"/>
			<path d="M41.891,51.981c-8.089,3.123-16.178,6.236-24.416,9.414c0.721,3.035,1.224,5.155,1.727,7.276
				c-0.368,0.127-0.745,0.255-1.123,0.382c-0.981-2.541-1.952-5.072-3.124-8.099c8.883-3.429,17.637-6.796,26.381-10.172
				C41.524,51.188,41.703,51.585,41.891,51.981z"/>
			<path fill="#FEF059" d="M24.266,77.33c-3.703,1.895-5.34,0.559-6.533-3.059c-1.662-5.039-3.76-9.938-5.776-15.168
				c14.361-5.54,29.209-11.258,43.948-16.946c1.995,5.181,3.903,10.564,6.149,15.8c1.396,3.252,0.631,5.02-2.744,5.816
				c-0.647,0.143-1.251,0.465-1.866,0.707c-9.26,3.578-9.26,3.578-5.599,13.065c2.849,7.396,5.698,14.779,8.547,22.173
				c0.327-0.126,0.645-0.253,0.972-0.379c-3.566-9.26-7.133-18.521-10.7-27.771c0.189-0.073,0.377-0.147,0.576-0.221
				c3.726,9.676,7.45,19.344,11.344,29.438c-5.112,1.973-10.005,3.861-14.897,5.75c-0.125-1.738,0.117-3.613-0.464-5.172
				c-2.974-8.133-6.335-16.127-9.23-24.29c-0.159-0.457-0.327-0.854-0.504-1.22c-1.23-2.506-2.917-2.793-5.779-1.396
				C29.333,75.618,26.623,76.123,24.266,77.33z M18.079,69.053c0.377-0.127,0.755-0.255,1.123-0.382
				c-0.503-2.121-1.005-4.241-1.727-7.276c8.238-3.177,16.327-6.291,24.416-9.414c-0.188-0.396-0.366-0.793-0.554-1.199
				c-8.744,3.376-17.498,6.743-26.381,10.172C16.126,63.98,17.097,66.512,18.079,69.053z"/>
		</g>
	</g>
</g>
</svg>
