<?xml version="1.0" encoding="utf-8"?>
<!-- Generator: Adobe Illustrator 16.0.4, SVG Export Plug-In . SVG Version: 6.00 Build 0)  -->
<!DOCTYPE svg PUBLIC "-//W3C//DTD SVG 1.1//EN" "http://www.w3.org/Graphics/SVG/1.1/DTD/svg11.dtd">
<svg version="1.1" id="Layer_1" xmlns="http://www.w3.org/2000/svg" xmlns:xlink="http://www.w3.org/1999/xlink" x="0px" y="0px"
	 width="182px" height="36px" viewBox="0 0 182 36" enable-background="new 0 0 182 36" xml:space="preserve">
<g>
	<path fill="#BD2227" d="M2,11.526h9.316V6.869h9.315v4.658h9.316v4.658h-9.316v13.973h4.658V25.5h9.316v4.658h-4.658v4.658H15.974
		v-4.658h-4.658V16.185H2V11.526z"/>
	<path fill="#BD2227" d="M48.579,11.526h13.974v18.631h4.658v4.658H48.579v-4.658h4.658V16.185h-4.658V11.526z M62.553,2.21v4.658
		h-9.316V2.21H62.553z"/>
	<path fill="#BD2227" d="M76.526,16.185h4.658v-4.658h23.29v4.658h4.657V25.5h-23.29v4.658h18.632v4.658h-23.29v-4.658h-4.658
		V16.185z M85.842,16.185v4.657h13.974v-4.657H85.842z"/>
	<path fill="#BD2227" d="M137.079,2.21v4.658h4.658v13.973h-4.658V25.5h-9.315v-4.658h-4.658V6.869h4.658V2.21H137.079z
		 M127.763,30.158h9.315v4.658h-9.315V30.158z"/>
	<path fill="#BD2227" d="M174.342,2.21v4.658H179v13.973h-4.658V25.5h-9.316v-4.658h-4.657V6.869h4.657V2.21H174.342z
		 M165.026,30.158h9.316v4.658h-9.316V30.158z"/>
</g>
</svg>
