<?xml version="1.0" encoding="utf-8"?>
<!-- Generator: Adobe Illustrator 16.0.4, SVG Export Plug-In . SVG Version: 6.00 Build 0)  -->
<!DOCTYPE svg PUBLIC "-//W3C//DTD SVG 1.1//EN" "http://www.w3.org/Graphics/SVG/1.1/DTD/svg11.dtd">
<svg version="1.1" id="Layer_1" xmlns="http://www.w3.org/2000/svg" xmlns:xlink="http://www.w3.org/1999/xlink" x="0px" y="0px"
	 width="608.575px" height="695.582px" viewBox="0 0 608.575 695.582" enable-background="new 0 0 608.575 695.582"
	 xml:space="preserve">
<g>
	<path d="M393.055,337.083c6.332,0.526,12.312,1.177,18.303,1.391c1.248,0.046,2.76-1.338,3.793-2.409
		c5.357-5.557,5.578-13.097,6.896-19.989c1.914-10.004,2.914-20.197,4.016-30.341c0.84-7.724,2.125-9.274,9.703-8.181
		c8.547,1.235,16.969,3.346,25.527,4.53c6.008,0.831,12.199,0.393,18.215,1.185c5.111,0.678,10.107,2.259,15.137,3.516
		c5.178,1.292,10.189,2.844,10.803,9.554c3.879-2.037,7.148-3.985,10.619-5.487c2.426-1.056,5.143-2.199,7.686-2.11
		c13.088,0.462,26.436-1.479,39.078,3.685c0.771,0.32,1.596,0.551,2.309,0.964c20.643,11.857,20.045,16.231,9.312,32.565
		c-1.908,2.9-4.357,5.44-6.363,7.912c4.914,4.815,10.352,9.054,14.412,14.345c7.91,10.294,10.037,22.251,6.641,34.779
		c-5.143,18.947-22.098,33.211-41.27,34.582c-4.461,0.322-9.053-1.396-13.6-2.062c-1.443-0.209-2.938-0.129-4.396-0.02
		c-13.363,0.965-25.301-2.49-34.877-12.068c-2.43-2.428-2.785-7.448-5.428-8.976c-2.387-1.385-6.598,0.668-9.992,0.626
		c-1.68-0.02-3.713-0.955-4.955-2.138c-14.59-13.884-32.602-15.922-51.471-15.155c-2.178,0.085-4.377,0.275-6.531,0.07
		c-1.947-0.188-3.855-0.85-6.209-1.4c-0.91,0.995-2.031,2.223-3.148,3.456c-3.123,3.47-6.838,3.945-10.922,2.017
		c-12.871-6.084-26.375-9.523-40.613-10.303c-8.238-0.453-16.074-2.174-19.537-9.938c-5.775,1.166-11.094,2.197-16.393,3.324
		c-6.379,1.361-12.73,2.852-19.107,4.195c-5.367,1.131-10.07,0.348-12.981-5.535c-11.612,10.478-23.367,19.935-39.072,8.66
		c-11.167,4.924-22.891,4.479-34.439,4.278c-5.131-0.085-9.678-2.752-11.262-9.549c-2.028,2.553-3.086,4.204-4.446,5.542
		c-5.34,5.24-10.053,11.586-16.307,15.337c-17.206,10.321-39.13,7.544-49.415-11.875c-4.081-7.711-6.192-16.488-8.976-24.854
		c-2.243-6.743-4.147-13.598-6.276-20.659c-0.795,0-1.617-0.025-2.433,0c-12.81,0.407-15.104,3.397-8.745,14.056
		c8.307,13.917,17.229,27.551,26.921,40.541c8.425,11.296,5.665,25.646-9.409,28.438c-1.61,0.299-3.058,1.791-4.443,2.896
		c-4.699,3.752-9.083,7.957-14.058,11.285c-6.99,4.682-15.891,0.176-18.578-7.92c-6.321-19.041-13.238-37.885-19.98-56.791
		c-0.475-1.346-1.479-2.506-2.376-3.975c-8.274,4.365-16.525,7.428-25.721,6.771c-9.907-0.711-18.207-4.379-23.647-13.047
		c-5.288-8.421-2.224-15.229,7.537-15.708c7.221-0.355,12.79-3.407,18.014-7.803c2.954-2.485,5.574-5.555,8.888-7.367
		c7.718-4.227,13.268-10.647,19.43-16.646c5.91-5.747,13.032-10.438,20.173-14.679c9.683-5.747,15.401-4.543,23.204,3.495
		c0.691,0.71,1.052,1.744,1.617,2.717c6.282-4.694,12.355-5.435,19.161-5.425c5.564,0.009,11.086-3.076,16.71-4.42
		c4.474-1.064,9.163-2.449,13.298,1.632c5.786-8.516,15.017-7.673,23.23-9.052c3.954-0.662,8.174,0.327,12.28,0.508
		c1.458,0.067,3.365,0.566,4.318-0.144c9.445-7.023,20.92-6.539,31.639-8.522c6.352-1.167,13.33-2.068,19.456-0.647
		c8.25,1.925,16.412,2.13,24.66,2.234c4.459,0.057,8.937-0.699,13.392-1.238c4.078-0.495,8.133-1.179,12.195-1.807
		c0.466-0.069,0.945-0.247,1.355-0.478c17.928-9.961,37.119-8.32,56.301-5.872c2.641,0.336,4.98,2.934,7.482,4.439
		c0.779,0.468,1.605,0.976,2.473,1.157c13.043,2.772,26.191,5.104,39.115,8.351c8.562,2.154,10.488,9.042,5.562,16.32
		c-7.221,10.67-14.613,21.242-21.332,32.225C393.381,329.051,393.719,333.344,393.055,337.083z M324.885,287.885
		c2.256,1.281,4.773,3.418,7.658,4.211c7.379,2.027,14.951,3.335,22.381,5.182c2.717,0.676,4.561,0.736,5.189-2.528
		c1.076-5.584,2.43-11.117,3.33-16.725c0.658-4.132-0.738-7.014-5.447-7.997c-15.301-3.2-30.271-2.475-45.021,2.851
		c-4.369,1.579-8.145,3.564-9.368,9.699c-0.329-2.89-0.514-4.487-0.697-6.071c-11.084,0.859-21.807,1.693-32.838,2.549
		c-0.185,1.934-0.374,3.955-0.687,7.276c-3.74-6.286-8.527-9.096-14.487-9.474c-15.889-1.007-31.278,1.989-46.49,6.186
		c-3.172,0.874-3.314,3.162-2.779,5.958c1.254,6.563,2.437,13.142,3.405,19.748c1.001,6.806,1.944,7.325,7.561,3.66
		c-0.644,1.229-1.363,2.588-2.481,3.187c-3.843,2.041-4.568,5.124-4.378,9.217c0.535,11.551,0.678,23.122,0.998,34.686
		c0.034,1.16,0.115,2.349,0.377,3.477c1.119,4.796,4.575,6.879,10.743,6.936c4.57,0.047,6.714-2.021,6.239-7.002
		c0.865,0.848,1.349,1.338,1.505,1.918c1.058,3.885,3.76,4.328,7.074,3.432c3.751-1.012,3.707-3.997,3.171-6.875
		c-0.33-1.764-1.333-3.409-2.107-5.07c-3.516-7.531-4.806-14.568-3.398-18.813c4.448,12.284,12.007,22.444,22.953,30.321
		c1.807,1.295,4.271,1.682,6.784,2.62c0.166-2.668,0.253-4.172,0.399-6.515c3.029,4.097,6.201,3.22,8.97,1.381
		c5.542-3.674,9.372-8.678,10.684-14.393c-4.886-2.707-9.312-4.625-13.13-7.396c-5.034-3.652-9.401-8.378-16.649-7.31
		c2.338-1.206,4.527-1.948,6.754-2.562c4.03-1.109,8.235-1.766,12.105-3.27c15.783-6.15,18.849-20.993,7.016-33.159
		c-0.701-0.723-1.497-1.348-2.168-2.092c-0.55-0.614-0.979-1.346-1.454-2.025c0.231-0.408,0.462-0.82,0.696-1.231
		c6.705,7.081,14.623,9.481,23.172,6.421c3.635,6.104-4.211,13.922,6.337,18.719c-6.778-0.847-6.809,3.142-7.227,6.351
		c-1.326,10.297-2.441,20.625-3.497,30.955c-0.589,5.744,1.013,7.438,6.833,6.5c7.088-1.144,14.09-2.848,21.12-4.353
		c3.088-0.663,4.668-2.633,4.244-5.791c-0.734-5.465-1.414-10.958-2.611-16.33c-0.428-1.914-2.289-3.507-2.887-4.378
		c1.518-4.322,4.188-8.516,4.236-12.739C327.137,307.072,330.739,296.506,324.885,287.885z M531.192,303.439
		c0.668-6.391-1.867-8.884-8.289-7.199c-10.117,2.649-16.898,9.327-20.277,19.155c-1.148,3.35-1.93,7.319,3.93,8.525
		c-5.154,3.28-4.506,7.443-3.033,11.546c2.109,5.877,6.861,9.284,12.055,12.235c3.584,2.041,5.697,0.833,6.818-2.775
		c0.375-1.207,0.416-2.516,0.607-3.776c0.854,1.62,0.99,3.21,0.826,4.772c-0.557,5.228,1.428,8.449,6.574,10.322
		c4.852,1.766,9.361,4.457,14.027,6.725c6.012,2.918,9.389,7.797,10.873,14.212c0.979,4.239-0.143,7.442-4.227,9.892
		c0.354-2.095,0.648-3.839,1.045-6.236c-13.771,10.304-31.51,4.006-35.203-11.836c-0.789-3.383-2.32-3.865-4.877-2.392
		c-5,2.869-9.844,6.001-14.826,8.909c-3.271,1.913-3.896,4.697-3.293,8.163c0.643,3.612,1.816,6.655,6.525,6.794
		c-3.152,4.171-0.918,6.982,1.762,9.479c6.855,6.355,15.277,8.703,24.385,9.139c4.492,0.217,7.793-1.32,9.297-5.939
		c0.441-1.369,1.561-2.516,2.369-3.768c-2.232,8.6-0.432,11.385,8.535,10.746c4.859-0.344,9.773-2.094,14.346-3.98
		c16.924-6.99,25.943-28.841,19.037-45.439c-3.32-7.978-6.039-9.601-13.924-8.311c5.125-5.079,5.059-7.409-1.676-10.566
		c-8.621-4.041-17.631-7.237-26.455-10.853c-1.836-0.747-3.793-1.46-5.303-2.677c-3.371-2.715-3.057-6.107,0.801-7.885
		c1.873-0.861,4.342-1.554,6.223-1.074c6.256,1.6,12.346,3.828,18.541,5.685c1.781,0.538,4.393,1.568,5.43,0.785
		c4.895-3.675,8.908-8.349,9.402-14.758c0.137-1.844-1.307-4.868-2.852-5.608c-7.193-3.405-14.457-7.062-22.098-9.006
		C537.155,293.623,537.002,294.219,531.192,303.439z M149.58,324.28c6.222-2.303,6.289-2.457,6.643-9.042
		c0.158-3.004,0.421-6.01,0.831-8.993c1.587-11.627-1.179-13.974-12.582-10.576c-0.321,0.097-0.608,0.35-0.925,0.381
		c-5.176,0.532-6.624,3.988-6.445,8.481c0.171,4.141,0.625,8.267,0.91,11.802c-2.715,2.526-5.17,4.804-7.38,6.856
		c1.594-3.498,3.582-6.957,4.756-10.678c1.348-4.257,2.766-8.988-1.257-12.653c-4.018-3.664-8.241-0.691-12.292,0.373
		c-3.647,0.954-4.56,3.404-3.486,6.955c3.086,10.227,6.097,20.474,9.059,30.735c1.064,3.685,2.604,6.635,5.696,6.169
		c-0.561,2.93-1.397,5.996-1.644,9.103c-0.152,1.938,0.504,3.969,0.943,5.924c2.88,12.774,9.483,22.627,22.64,26.315
		c13.459,3.772,24.174-1.257,27.571-12.185c4.695,1.805,8.057,0.297,11.207-5.801c5.23-10.126,7.287-21.126,7.895-32.408
		c0.184-3.404-0.7-6.474-3.821-6.533c0.933-1.726,2.792-3.606,2.833-5.523c0.15-6.82,0-13.686-0.668-20.479
		c-0.436-4.446-1.5-8.96-3.108-13.126c-2.056-5.327-7.141-5.644-10.151-0.907c-2.769,4.36-5.285,8.882-7.913,13.332
		c-0.16,0.042-0.32,0.079-0.48,0.124c1.524-4.825,3.051-9.65,4.642-14.668c-1.381,0.091-2.708,0.051-3.998,0.278
		c-10.098,1.78-11.749,4.547-8.747,14.282c3.9,12.66,4.989,25.695,3.786,38.771c-0.675,7.325-1.037,15.125-6.27,20.812
		c-1.252-1.429-2.422-2.636-3.444-3.963c-1.971-2.561-4.854-4.934-5.577-7.829c-1.442-5.805-2.234-11.906-2.249-17.888
		C156.537,326.551,154.955,324.073,149.58,324.28z M462.034,291.924c-3.648-1.992-6.67-4.369-10.088-5.315
		c-3.971-1.1-8.303-0.828-12.449-1.378c-3.965-0.523-5.125,1.086-5.521,4.964c-1.082,10.653-2.852,21.231-4.051,31.876
		c-0.418,3.684,0.029,7.467,0.078,10.889c-3.58-2.376-4.875,1.245-5.994,4.788c-2.715,8.611-5.332,17.251-7.895,25.91
		c-0.244,0.84,0.164,1.875,0.4,4.066c4.627-2.346,8.594-4.363,12.557-6.375c0.15,0.234,0.301,0.472,0.451,0.71
		c-3.264,2.433-6.527,4.864-10.74,8.003c5.305,0,9.312-0.079,13.324,0.012c16.387,0.393,32.074,2.995,44.879,14.508
		c2.76,2.48,5.469,1.967,7.1-1.074c3.156-5.879,6.012-11.932,8.777-18.014c1.254-2.764,0.166-4.771-2.82-5.863
		c-5.73-2.09-11.404-4.289-15.828-1.541c-2.684-1.852-4.311-3.807-6.23-4.15c-5.979-1.07-12.068-1.531-17.568-2.171
		c0.963-5.1,2.088-11.099,3.215-17.096c-0.133,7.025,1.406,9.036,8.393,9.961c3.154,0.415,6.303,0.894,9.424,1.527
		c15.777,3.228,17.928,1.798,20.938-14.099c0.16-0.822,0.473-1.722,0.283-2.469c-0.223-0.858-0.744-1.865-1.459-2.337
		c-4.854-3.244-13.436-1.962-18.223,3.461c2.766-6.152-0.262-7.068-4.406-7.166c-3.854-0.092-7.701-0.314-11.553-0.525
		c-1.266-0.07-2.516-0.314-3.771-0.477c4.061-0.944,6.031-2.924,6.045-6.799c0.014-3.069,0-6.14,0-9.013
		c3.141,2.361,5.555,5.267,8.584,6.229c6.508,2.067,13.332,3.15,20.033,4.591c3.439,0.741,5.561-0.881,6.354-4.109
		c1.152-4.706,2.08-9.474,3.111-14.214c0.729-3.344-0.209-5.48-3.93-6.113c-6.924-1.183-13.828-2.469-20.711-3.882
		C468.184,288.303,464.139,288.674,462.034,291.924z M112.697,402.728c5.073,4.5,10.049,4.822,14.179,1.215
		c4.166-3.645,3.915-6.99-0.16-13.167c-9.03-13.68-17.789-27.542-26.81-41.235c-0.89-1.355-2.82-2.026-4.078-2.879
		c-1.552-4.667-3.187-9.565-5.297-15.901c6.308-2.409,13.683-5.193,21.038-8.042c1.491-0.577,3.558-1.011,4.21-2.165
		c2.132-3.776-2.798-10.717-7.484-10.914c1.902-5.738,1.375-8.38-2.309-11.778c-3.694-3.412-8.006-3.982-11.999-1.264
		c-8.114,5.519-16.1,11.273-23.71,17.457c-2.364,1.92-3.35,5.542-5.114,8.65c-3.561-1.128-4.036-1.046-7.93,2.081
		c-5.614,4.516-10.956,9.438-16.932,13.404c-3.739,2.484-8.415,3.577-12.701,5.219c-2.024,0.776-4.116,1.381-6.178,2.061
		c0.969,2.186,1.765,4.472,2.972,6.516c0.637,1.082,1.919,1.854,3.044,2.562c11.325,7.135,27.296,4.613,37.608-5.969
		c1.103-1.132,1.856-2.603,2.83-3.993c1.403,3.89,2.303,6.723,3.44,9.458c4.861,11.683,10.965,22.828,14.714,34.994
		c2.708,8.793,5.735,17.492,8.643,26.221c1.04,3.115,2.566,5.439,6.533,4.416C108.327,417.837,113.641,410.402,112.697,402.728z
		 M384.221,288.743c0.105-10.438-0.623-11.275-8.928-13.16c-3.852-0.878-5.344-0.096-5.643,4.16
		c-0.51,7.168-1.588,14.308-2.771,21.401c-0.922,5.538-2.367,10.986-3.691,16.988c-5.346,1.834-5.82,7.813-7.682,12.866
		c-2.592,7.062-4.688,14.344-7.803,21.166c-3.906,8.567-2.812,11.043,6.568,11.801c1.67,0.134,3.348,0.186,5.016,0.349
		c12.174,1.222,24.201,2.843,35.475,8.199c6.758,3.216,9.398,1.547,12.281-6.126c2.605-6.939,0.842-9.319-7.404-9.819
		c-1.123-0.065-2.273,0.653-3.422,0.696c-2.867,0.111-5.748,0.039-8.629,0.039c0.021-0.275,0.039-0.545,0.055-0.82
		c7.072-1.459,14.148-2.914,21.211-4.371c-0.932,1.031-2.203,2.443-3.598,3.99c3.039,1.514,4.967,0.322,5.629-2.536
		c0.701-3.024,0.852-6.172-3.445-6.973c-11.875-2.222-23.713-4.223-34.441,4.426c7.549-7.927,14.756-15.814,12.654-27.174
		c1.951-2.595,3.793-4.823,5.396-7.21c4.668-6.942,9.268-13.925,13.818-20.936c1.357-2.092,2.707-4.244,3.639-6.539
		c1.145-2.812,0.723-5.193-2.76-6.249c-3.834-1.169-7.576-2.626-11.393-3.872c-6.732-2.192-7.461-1.72-8.887,5.311
		C385.223,285.602,384.78,286.814,384.221,288.743z M335.989,299.275c-2.004,18.614-3.717,35.62,1.453,53.812
		c1.816-3.184,3.346-5.199,4.188-7.463c1.631-4.369,2.861-8.884,4.289-13.326c2.09-6.482,3.705-13.136,9.574-17.683
		c2.492-1.929,1.664-6.346-1.473-7.824C348.502,304.192,342.762,302.066,335.989,299.275z M527.485,363.646
		c-3.025,4.75-0.756,7.572,1.227,10.133c2.77,3.586,6.688,5.037,11.158,4.131c1.301-0.264,3.262-1.347,3.396-2.281
		c0.201-1.362-0.545-3.621-1.627-4.291C537.147,368.565,532.372,366.246,527.485,363.646z M512.59,357.074
		c-5.467-4.58-10.436-8.753-15.566-13.058c-0.859,1.856-2,3.579-2.402,5.46c-0.215,1.018,0.578,3.105,1.334,3.343
		c4.436,1.366,6.303,4.358,6.045,9.509C505.836,360.425,509.038,358.835,512.59,357.074z M164.533,346.328
		c0.55-0.039,1.109-0.07,1.66-0.111c2.688-7.034,1.654-29.86-2.661-36.185C163.865,322.128,164.2,334.228,164.533,346.328z
		 M288.916,343.118c0.559-5.082,1.046-9.53,1.575-14.342c-4.941,3.111-9.257,5.826-14.608,9.19
		C280.444,339.766,284.426,341.34,288.916,343.118z"/>
	<path d="M304.186,607.888c-14.448-0.078-28.796-0.943-42.687-5.432c-2.062-0.668-4.142-1.385-6.083-2.324
		c-11.989-5.816-15.68-13.227-12.343-26.143c3.535-13.691,7.27-27.344,11.488-40.83c4.483-14.35,9.846-28.428,14.409-42.76
		c2.225-7.008,7.161-10.109,13.662-11.789c16.798-4.332,33.841-4.131,50.925-2.604c5.994,0.535,11.939,1.619,17.902,2.484
		c13.178,1.916,18.424,8.473,21.178,22.508c1.121,5.711,1.248,11.652,1.447,17.494c0.457,13.129,5.17,25.123,9.08,37.412
		c2.516,7.889,3.498,16.275,5.07,24.461c1,5.232-1.271,9.057-6.102,10.729c-11.826,4.088-23.58,8.658-35.734,11.432
		c-13.791,3.148-27.975,4.555-41.989,6.713C304.333,608.791,304.261,608.339,304.186,607.888z"/>
	<path d="M501.655,261.323c-10.008,2.379-19.434,2.204-28.84-0.106c-14.305-3.51-28.709-6.653-42.863-10.677
		c-15.303-4.354-26.939-14.07-35.438-27.376c-9.105-14.254-18.75-28.394-20.992-45.735c-0.738-5.726-0.619-11.723,0.229-17.429
		c0.496-3.352,2.912-6.584,4.98-9.501c5.91-8.329,11.979-16.558,18.203-24.653c3.557-4.629,7.334-9.125,11.396-13.315
		c4.6-4.75,10.697-5.801,16.154-2.567c6.82,4.04,13.764,8.551,19.109,14.292c24.818,26.623,39.721,58.483,47.988,93.721
		c2.748,11.721,6.355,23.236,9.359,34.902C501.627,255.537,501.438,258.427,501.655,261.323z"/>
	<path d="M196.276,404.853c8.586,0.033,15.452,3.262,21.428,9.467c8.898,9.24,14.313,20.527,20.204,31.631
		c3.75,7.072,7.909,13.971,12.39,20.604c3.536,5.23,5.069,10.855,1.68,15.982c-7.031,10.625-7.775,23.002-11.089,34.67
		c-3.201,11.258-6.124,22.645-10.24,33.568c-4.848,12.848-10.956,14.49-23.652,8.852c-14.339-6.379-24.525-17.23-33.58-29.498
		c-14.254-19.314-27.818-39.102-36.438-61.662c-2.7-7.047-3.591-14.844-4.792-22.375c-0.729-4.605,1.572-8.393,5.155-11.377
		c15.772-13.137,33.427-22.824,53.038-28.889C192.265,405.24,194.306,405.166,196.276,404.853z"/>
	<path d="M382.774,474.423c-0.686-10.643,2.227-20.242,8.422-28.834c7.832-10.869,15.988-21.518,23.549-32.58
		c6.443-9.432,14.422-12.6,25.809-10.229c15.844,3.297,30.57,8.457,43.346,18.656c7.82,6.242,10.225,14.076,8.152,23.678
		c-4.229,19.621-11.77,38.096-20.193,56.143c-7.137,15.281-15.141,30.201-23.582,44.811c-3.365,5.816-8.74,10.559-13.58,15.402
		c-5.492,5.502-13.389,4.934-18.549-0.971c-1.318-1.506-2.58-3.158-3.43-4.949c-8.439-17.838-17.359-35.486-24.902-53.701
		c-3.514-8.482-4.312-18.088-6.342-27.18C381.897,474.582,382.336,474.507,382.774,474.423z"/>
	<path d="M305.572,82.812c21.726-0.385,43.036,2.726,64.099,7.842c1.787,0.434,3.566,0.94,5.379,1.245
		c7.822,1.318,9.354,3.238,8.246,11.247c-2.91,21.095-10.492,40.789-18.699,60.227c-5.457,12.934-16.887,15.158-29.264,14.548
		c-7.342-0.36-14.658-1.866-21.988-1.851c-7.825,0.016-15.655,1.81-23.47,1.741c-8.634-0.077-17.32-0.973-25.86-2.31
		c-5.968-0.931-9.875-5.093-12.124-10.874c-7.328-18.842-12.633-38.134-12.936-58.49c-0.178-11.941,2.572-16.189,14.254-18.117
		c17.282-2.852,34.78-4.417,52.187-6.527C305.448,81.931,305.508,82.372,305.572,82.812z"/>
	<path d="M135.604,242.5c1.306-5.682,1.993-11.593,4.021-16.999c8.048-21.446,16-42.953,24.975-64.016
		c7.876-18.474,21.139-33.282,36.039-46.476c8.653-7.66,20.664-3.748,23.529,7.519c1.431,5.636,1.479,11.618,2.692,17.331
		c0.818,3.846,1.888,7.967,4.044,11.148c7.174,10.595,9.834,22.628,11.807,34.851c0.564,3.479-0.013,7.449-1.128,10.843
		c-5.738,17.405-15.119,32.741-27.309,46.384c-4.069,4.554-9.046,6.836-15.193,7.867c-7.812,1.312-15.407,3.909-23.106,5.934
		c-6.751,1.774-13.433,4.596-20.273,5.043C142.824,262.771,136.154,255.54,135.604,242.5z"/>
	<path d="M321.696,458.578c-15.061,0-30.127,0.363-45.174-0.109c-13.335-0.422-28.48-12.629-32.954-25.264
		c-3.293-9.299-6.833-18.51-10.35-27.727c-2.091-5.477-0.809-8.26,5.075-9.412c3.586-0.704,7.356-1.258,10.959-0.936
		c13.243,1.182,26.125-0.85,38.691-4.489c14.076-4.082,28.03-3.45,42.235-1.249c6.404,0.995,13.01,0.639,19.502,1.148
		c6.605,0.518,13.215,1.16,19.773,2.09c7.602,1.08,15.199,2.318,22.721,3.877c8.873,1.834,9.373,2.607,6.191,10.891
		c-6.895,17.961-18.449,32.51-33.537,44.281c-6.453,5.031-14.395,5.146-22.031,5.621c-7.012,0.436-14.064,0.088-21.105,0.088
		C321.692,457.791,321.696,458.183,321.696,458.578z"/>
	<path d="M72.947,278.464c-3.925-0.242-7.939-0.45-11.943-0.746c-4.214-0.317-6.541-2.718-7.745-6.7
		c-3.495-11.505-1.633-22.601,2.682-33.378c7.458-18.632,14.916-37.281,23.018-55.641c2.356-5.342,6.422-10.167,10.521-14.448
		c7.306-7.619,16.936-8.05,26.692-6.808c3.645,0.463,7.272,1.277,10.82,2.243c8.416,2.301,10.744,5.07,9.543,13.716
		c-1.213,8.747-3.858,17.29-5.348,26.008c-2.528,14.85-4.308,29.833-7.094,44.628c-1.029,5.463-3.438,10.886-6.226,15.748
		c-5.249,9.169-14.133,12.981-24.249,14.015C86.786,277.797,79.908,278.02,72.947,278.464z"/>
	<path d="M379.881,246.062c-9.621,0-18.719,0.853-27.596-0.178c-19.41-2.247-38.459,0.092-57.583,2.57
		c-14.006,1.812-28.042,2.418-42.041-0.269c-0.49-0.096-0.995-0.14-1.499-0.178c-8.569-0.64-9.433-1.714-7.667-10.411
		c0.995-4.914,2.316-9.769,3.498-14.644c5.091-21.027,20.091-30.405,40.051-33.229c22.587-3.193,44.791-0.717,66.482,6.27
		c7.168,2.309,12.934,6.185,15.459,13.807c3.357,10.147,6.939,20.221,10.289,30.371
		C379.827,241.854,379.665,243.767,379.881,246.062z"/>
	<path d="M264.131,670.089c-17.866-1.537-36.81-7.662-55.368-14.939c-9.781-3.836-19.316-8.443-28.582-13.418
		c-7.711-4.139-9.717-9.438-7.315-17.709c2.95-10.158,8.462-18.959,16.382-25.994c5.925-5.264,13.126-5.389,20.399-3.51
		c24.407,6.303,47.736,15.42,70.101,27.059c5.528,2.877,7.432,7.861,7.268,13.346c-0.241,8.162-0.894,16.391-2.342,24.42
		C283.223,667.394,276.965,670.656,264.131,670.089z"/>
	<path d="M384.434,615.474c1.846,0,3.686,0.004,5.527,0c10.148-0.037,17.193,4.559,20.939,14.062
		c3.664,9.309,5.729,18.852,4.617,28.938c-0.494,4.484-2.543,7.674-6.994,8.725c-12.508,2.957-24.982,6.109-37.602,8.48
		c-9.678,1.818-19.549,2.645-29.348,3.773c-9.01,1.043-17.695-0.109-25.795-4.473c-4.051-2.182-6.621-5.42-7.49-10.076
		c-1.859-9.934-3.113-19.713,1.018-29.525c2.672-6.344,6.506-10.998,13.482-12.092c15.186-2.395,30.389-4.672,45.611-6.773
		c5.293-0.732,10.676-0.816,16.02-1.197C384.428,615.369,384.434,615.417,384.434,615.474z"/>
	<path d="M550.417,463.601c-0.891,3.9-1.734,7.816-2.688,11.697c-3.316,13.455-6.305,27.004-10.117,40.322
		c-3.436,12.016-8.99,23.055-18.059,32.051c-3.916,3.887-9.279,5.115-13.975,1.938c-7.33-4.971-14.604-10.109-21.432-15.744
		c-6.578-5.441-8.209-13.896-5.01-21.436c5.875-13.855,11.395-27.889,17.805-41.498c3.969-8.412,9.123-16.299,14.129-24.176
		c2.605-4.1,6.838-5.396,11.492-3.553c7.133,2.826,14.225,5.773,21.25,8.869C548.708,454.228,550.713,458.191,550.417,463.601z"/>
	<path d="M283.283,59.868c0.016,6.935-2.962,11.764-9.622,13.78c-12.967,3.924-26.071,7.406-38.975,11.512
		c-6.803,2.165-13.551,4.78-19.888,8.047c-9.452,4.876-16.333,4.583-24.399-2.31c-6.612-5.65-11.881-12.313-14.448-20.73
		c-2.366-7.766-0.49-13.599,6.79-16.853c20.537-9.191,40.433-20.089,62.671-25.051c0.815-0.184,1.638-0.344,2.457-0.525
		c19.756-4.275,28.729,4.033,34.166,23.714C282.787,54.164,282.884,57.057,283.283,59.868z"/>
	<path d="M369.208,78.699c-8.896-2.091-17.75-4.384-26.701-6.203c-7.035-1.43-14.191-2.255-21.295-3.377
		c-2.311-0.365-4.668-0.619-6.908-1.254c-10.72-3.045-14.924-7.389-13.793-17.601c0.876-7.967,1.691-15.974,3.267-23.816
		c0.439-2.18,3.14-4.755,5.38-5.575c9.951-3.637,20.131-2.811,30.143,0c9.084,2.547,18.219,3.589,27.688,3.954
		c7.805,0.301,15.885,2.453,23.139,5.469c8.666,3.598,11.746,12.41,9.262,21.462c-1.545,5.636-2.699,11.437-4.877,16.82
		c-1.045,2.584-3.83,4.708-6.27,6.403c-1.682,1.168-4.092,1.495-6.229,1.755c-4.146,0.504-8.336,0.697-12.51,1.018
		C369.405,78.065,369.305,78.38,369.208,78.699z"/>
	<path d="M445.227,638.902c-3.502-1.67-6.381-2.398-8.395-4.125c-5.459-4.674-10.672-9.658-15.734-14.758
		c-2.088-2.105-3.885-4.664-5.215-7.316c-2.605-5.18-2.811-10.273,1.852-14.701c1.941-1.844,3.551-4.043,5.547-5.822
		c12.217-10.91,22.156-23.713,31.262-37.23c1.021-1.523,2.312-2.865,3.424-4.336c5.676-7.52,9.678-9.766,20.502-2.145
		c9.072,6.391,15.029,15.652,20.006,25.432c0.756,1.48,0.725,3.977,0,5.51c-9.523,20.289-22.672,37.926-39.941,52.246
		C454.711,634.82,449.688,636.525,445.227,638.902z"/>
	<path d="M138.223,529.244c7.693-0.846,12.515,2.424,16.65,8.852c5.681,8.84,12.586,16.883,18.61,25.521
		c3.225,4.621,6.337,9.521,8.357,14.736c2.889,7.445,0.583,12.824-6.045,17.275c-15.511,10.42-31.056,9.43-44.945-2.928
		c-11.685-10.393-22.676-21.561-29.969-35.479c-10.009-19.086-4.473-21.111,11.036-24.307
		C120.573,531.142,129.447,530.435,138.223,529.244z"/>
	<path d="M429.333,47.679c10.48,0.435,18.916,3.989,25.613,10.211c9.893,9.197,18.52,19.775,28.516,28.86
		c6.906,6.276,6.961,12.419,3.115,19.748c-2.4,4.568-4.365,9.511-7.537,13.483c-2.355,2.954-6.053,5.38-9.648,6.671
		c-5.164,1.853-10.449,1.833-14.121-3.818c-8.082-12.434-21.211-18.553-33.094-26.31c-13.752-8.976-17.217-18.874-12-32.871
		C413.784,53.974,421.168,46.614,429.333,47.679z"/>
	<path d="M520.62,202.979c-5.834,0.55-10.205-1.756-13.002-6.755c-8.887-15.88-18.301-31.503-26.336-47.801
		c-5.949-12.064-1.287-20.347,11.703-23.729c4.188-1.091,8.52-1.775,12.836-2.174c8.604-0.796,15.496,2.781,20.145,9.803
		c3.381,5.106,6.227,10.686,8.543,16.366c3.783,9.271,6.969,18.792,10.369,28.218c3.893,10.759,2.498,15.137-7.502,20.571
		c-5.174,2.808-10.854,4.658-16.305,6.943C520.915,203.935,520.768,203.457,520.62,202.979z"/>
	<path d="M185.348,104.276c-1.365,3.603-2.023,6.433-3.414,8.84c-8.253,14.302-19.508,25.866-33.264,34.902
		c-7.345,4.823-11.172,3.954-18.256-0.998c-4.13-2.887-9.229-4.394-13.927-6.442c-3.504-1.523-7.217-2.646-10.57-4.448
		c-3.035-1.635-3.358-4.211-1.204-7.135c3.169-4.299,6.099-8.776,9.223-13.108c2.139-2.971,3.859-5.877,7.791-7.686
		c3.583-1.647,5.614-6.419,8.722-9.399c3.843-3.686,7.758-7.478,12.232-10.278c9.438-5.907,20.182-4.958,29.047,1.781
		c2.928,2.227,6.176,4.121,8.751,6.696C182.561,99.091,183.854,101.975,185.348,104.276z"/>
	<path d="M132.781,508.689c-11.286,3.457-22.07,7.08-33.754,5.512c-12.388-1.66-20.306-8.717-24.533-20.23
		c-4.112-11.193-2.947-22.826-2.146-34.299c0.157-2.188,3.515-5.633,5.745-5.934c8.345-1.131,16.829-1.26,25.273-1.65
		c8.764-0.402,14.226,4.877,18.854,11.355c1.045,1.463,1.968,3.193,2.34,4.934c2.7,12.41,5.242,24.85,7.82,37.287
		C132.542,506.46,132.6,507.283,132.781,508.689z"/>
	<path d="M563.03,260.686c0,2.005,0.059,4.018-0.014,6.02c-0.27,7.696-2.648,10.589-10.32,11.476
		c-9.346,1.084-18.381-0.333-26.635-5.076c-1.951-1.122-3.857-2.785-5.084-4.66c-6.82-10.463-10.555-21.96-10.297-34.522
		c0.207-9.67,6.014-14.992,15.562-13.811c4.537,0.562,8.887,2.658,13.299,4.112c3.311,1.089,6.516,2.667,9.9,3.316
		c6.029,1.164,10.365,4.607,11.367,10.721c1.213,7.406,1.883,14.901,2.791,22.354C563.411,260.648,563.225,260.67,563.03,260.686z"
		/>
	<path d="M576.342,295.842c-1.064-2.975-1.844-5.13-3.111-8.659c4.055,0.975,7.438,2.039,10.9,2.492
		c1.258,0.169,2.713-1.104,4.639-1.963c0,2.724,0,4.811,0,7.248c-2.52-0.164-5.168-0.336-8.346-0.541
		c-0.127-0.866-0.375-2.57-0.625-4.272c-0.338-0.146-0.678-0.285-1.012-0.433C578.079,291.485,577.379,293.253,576.342,295.842z"/>
	<path d="M233.243,333.126c0-0.327,0.124-0.723-0.018-0.967c-4.062-7.067-0.39-14.535-1.109-21.781
		c-0.288-2.916-0.048-5.884-0.048-9.125c6.47-1.5,16.485,2.283,18.468-10.079c-0.662,5.623,2.63,8.494,6.276,11.463
		c3.09,2.519,3.105,6.007,0.19,8.779c-1.62,1.537-3.866,2.573-6,3.369c-2.652,0.988-5.529,1.351-8.226,2.251
		C235.224,319.559,233.782,322.164,233.243,333.126z M250.001,308.175c-0.109-0.488-0.209-0.982-0.317-1.475
		c-6.406-0.487-8.532,0.127-10.006,3.637C243.458,309.546,246.727,308.859,250.001,308.175z"/>
	<path d="M239.84,342.434c2.782-1.324,5.088-2.424,8.555-4.068c-1.112,3.057-1.879,5.17-2.842,7.823
		C243.496,344.835,241.785,343.71,239.84,342.434z"/>
	<path d="M548.866,356.91c2.459,0.178,5.342,0.383,8.498,0.604c0.332,2.327,0.729,5.142,1.123,7.896
		C555.377,362.666,552.124,359.791,548.866,356.91z"/>
	<path d="M520.889,312.763c-2.838,4.581-4.238,10.493-11.076,12.597C513.979,320.617,517.438,316.688,520.889,312.763z"/>
	<path d="M443.77,327.555c0,6.483,0,12.268,0,18.053c-0.373,0-0.748,0-1.121,0c0.168-2.306,0.926-4.781,0.328-6.865
		c-0.566-1.994-2.547-3.579-4.219-5.756c0.125-0.144,0.984-1.104,1.85-2.048C441.495,329.973,442.401,329.015,443.77,327.555z"/>
	<path d="M91.394,374.61c0.079-0.248,0.494-1.493,0.829-2.509c5.383,6.518,10.801,13.074,16.215,19.631
		c-0.253,0.206-0.51,0.415-0.765,0.62C102.47,386.688,97.268,381.014,91.394,374.61z"/>
	<path d="M97.404,372.666c4.797,6.185,9.589,12.369,14.387,18.555c-0.342,0.26-0.684,0.517-1.024,0.775
		c-4.94-6.061-9.88-12.119-14.82-18.177C96.43,373.435,96.916,373.05,97.404,372.666z"/>
	<path d="M382.02,304.131c-2.326,5.149-5.506,10.212-1.66,16.102c-2.188,0.862-4.152,1.638-6.963,2.748
		c1.367-2.319,2.822-3.875,3.182-5.649c0.369-1.847-0.986-4.14-0.4-5.829c0.988-2.86,2.91-5.402,4.439-8.082
		C381.083,303.66,381.543,303.898,382.02,304.131z"/>
	<path d="M368.026,355.5c-1.498-4.078-0.592-6.474,5.025-10.266C371.354,348.705,369.659,352.164,368.026,355.5z"/>
</g>
</svg>
